<?xml version="1.0" standalone="no"?>
<!DOCTYPE svg PUBLIC "-//W3C//DTD SVG 1.1//EN" "http://www.w3.org/Graphics/SVG/1.1/DTD/svg11.dtd" >
<svg xmlns="http://www.w3.org/2000/svg" xmlns:xlink="http://www.w3.org/1999/xlink" version="1.1">
<metadata>
Created by FontForge 20170731 at Tue May 25 01:02:50 2021
 By Aleksey,,,
Phitradesign 2016 (C) ALL RIGHTS RESERVED
</metadata>
<defs>
<font id="PrequelDemo-ShadowItalic" horiz-adv-x="1497" >
  <font-face 
    font-family="Prequel Demo Shadow Italic"
    font-weight="400"
    font-style="italic"
    font-stretch="normal"
    units-per-em="2048"
    panose-1="0 0 5 0 0 0 0 0 0 0"
    ascent="1638"
    descent="-410"
    x-height="1884"
    cap-height="1882"
    bbox="-523.161 -682 2573.85 2388"
    underline-thickness="102"
    underline-position="-307"
    unicode-range="U+0020-2265"
  />
<missing-glyph horiz-adv-x="1423" 
 />
    <glyph glyph-name="o_f.liga" unicode="of" horiz-adv-x="1808" 
d="M285 -102q-42 0 -73.5 27t-39.5 67q-44 7 -70.5 43.5t-23.5 83.5l12 123q6 53 41 88t84 35h135q-58 42 -90.5 106.5t-32.5 140.5q0 13 3 32.5t3 25.5l84 465q20 113 113 206q-47 26 -59 80q-45 9 -73 49.5t-22 90.5l19 122q9 48 43.5 78.5t79.5 30.5h1192q42 0 72.5 -26
t39.5 -68q47 -7 74.5 -47.5t22.5 -94.5l-17 -114q-6 -43 -36.5 -76t-69.5 -37q43 -40 43 -98q0 -17 -10 -68l-13 -55q-9 -43 -46.5 -70.5t-84.5 -27.5h-86q9 -14 12 -31q40 -9 67.5 -42.5t27.5 -74.5q0 -13 -11 -67l-8 -58q-14 -44 -50.5 -73t-80.5 -29h-125l-45 -256
q0 -2 -1 -7t-1 -7h125q42 0 73 -26.5t40 -68.5q46 -7 73.5 -47.5t22.5 -93.5l-16 -115q-7 -49 -43 -82.5t-82 -33.5h-1192zM1384 82q10 0 21 12t14 27l15 110q1 17 -6 29t-19 12h-1194q-13 0 -22 -11.5t-11 -29.5l-12 -110q-3 -15 3.5 -27t19.5 -12h1191zM584 395
q107 0 196 78t111 189l80 446q2 10 2 45q0 92 -61.5 153.5t-155.5 61.5h-47q-108 0 -197 -77t-106 -185l-80 -449q-1 -10 -4 -25t-3 -20q0 -92 64 -154.5t158 -62.5h43zM586 555q-38 0 -64 27t-26 65q0 13 2 19l77 446q7 43 44 73t83 32h5q40 0 66 -25t26 -62q0 -12 -2 -18
l-80 -446q-8 -45 -44.5 -78t-80.5 -33h-6zM1053 410q27 0 43 32l65 377h203q13 0 24.5 10t16.5 23l16 96v6q0 10 -9.5 18.5t-18.5 8.5h-203l37 213h266q16 0 29 9t14 22l18 94v4q0 14 -8.5 24.5t-21.5 10.5h-391q-15 0 -29 -12t-17 -27l-65 -369l-16 -98l-72 -410v-6
q0 -10 9.5 -18t21.5 -8h88zM1587 1511q10 0 21 11.5t12 25.5l14 111q2 18 -4.5 29.5t-19.5 11.5h-1192q-13 0 -22 -11.5t-11 -29.5l-16 -111q-2 -15 5.5 -26t20.5 -11h1192z" />
    <glyph glyph-name="t_h_e.liga" unicode="the" horiz-adv-x="2525" 
d="M406 -102q-46 0 -82 27.5t-45 68.5q-41 10 -68 43t-29 72l11 88q0 3 1 8q5 58 22 86q3 5 7 10q43 59 117 59h61q-28 39 -22 93l106 602q-19 22 -26 55q-50 12 -76 51t-16 88l22 97q11 36 43 61q-43 15 -66.5 53.5t-19.5 85.5l21 119q9 47 49.5 78t93.5 31h1751
q37 0 67.5 -16.5t45.5 -43.5q10 -16 14 -37q53 -12 78 -55q15 -24 15 -53t-5 -56l-8 -81q-5 -47 -43.5 -84t-89.5 -41q38 -38 32 -97l-16 -102q-8 -44 -46 -75.5t-85 -31.5h-86q4 -8 8 -24q42 -9 68 -41.5t26 -75.5l-16 -119q-6 -44 -39 -76t-78 -38q26 -26 35 -62
q43 -9 70 -44.5t24 -76.5l-20 -116q-1 -4 -4 -12.5t-4 -12.5q11 -23 16 -39q46 -12 72 -49t22 -86l-16 -115q-7 -49 -48 -82.5t-91 -33.5h-1753zM2066 82q17 0 32 12.5t18 26.5l14 110q2 16 -8 26.5t-31 10.5h-1751q-36 0 -51 -37l-13 -110q-6 -13 6 -26t31 -13h1753z
M600 401q17 0 29 11t14 26l135 760h111q16 0 29 9t14 22l18 88q0 12 -11 21.5t-26 9.5h-393q-14 0 -28.5 -11t-14.5 -20l-20 -88q-3 -13 8 -22t29 -9h110l-133 -760q-2 -15 6 -26t23 -11h100zM989 401q12 0 25 11t16 26l68 377h254l-62 -377q-2 -15 7 -26t22 -11h100
q12 0 25 11t16 26l158 871q0 15 -10 24.5t-25 9.5h-98q-17 0 -29.5 -9.5t-13.5 -24.5l-62 -330h-254l60 330q1 15 -7.5 24.5t-23.5 9.5h-98q-18 0 -31 -9.5t-14 -24.5l-154 -871q-1 -15 8 -26t23 -11h100zM1987 406q33 0 43 34l16 92q6 13 -4 25t-27 12h-264l43 242h203
q14 0 27 11t14 26l12 92q6 17 -2 28t-23 11h-202l37 207h268q14 0 27 10t14 23l14 92q3 13 -7 25t-24 12h-389q-15 0 -28 -11.5t-15 -25.5l-18 -92l-45 -279l-19 -92l-59 -316l-14 -92q-1 -15 7.5 -24.5t22.5 -9.5h392zM2232 1491q18 0 34.5 13t17.5 30l12 111q6 15 -4 25.5
t-31 10.5h-1751q-21 0 -36 -10.5t-17 -25.5l-19 -111q-2 -18 9 -30.5t32 -12.5h1753z" />
    <glyph glyph-name=".notdef" horiz-adv-x="1423" 
 />
    <glyph glyph-name=".null" horiz-adv-x="0" 
 />
    <glyph glyph-name="nonmarkingreturn" horiz-adv-x="682" 
 />
    <glyph glyph-name="space" unicode=" " horiz-adv-x="655" 
 />
    <glyph glyph-name="exclam" unicode="!" horiz-adv-x="849" 
d="M309 -184q-56 0 -98 29t-59 79q-46 22 -71.5 68t-19.5 102l21 195q9 85 76 139q-46 40 -37 107l102 1179q6 81 56 128.5t129 49.5h235q146 0 164 -102q96 -33 84 -156v-2l-150 -1194q-6 -62 -59 -102q56 -53 47 -139l-20 -195q-7 -78 -67 -132t-138 -54h-195zM430 0
q40 0 70.5 27t34.5 67l20 195q4 41 -20 66.5t-64 25.5h-195q-39 0 -68.5 -25.5t-33.5 -66.5l-20 -195q-4 -40 20 -67t62 -27h194zM496 479q29 0 48 15t21 38l152 1194q4 47 -14.5 60.5t-67.5 13.5h-221q-93 3 -99 -84l-102 -1181q-3 -24 14 -40t47 -16h222z" />
    <glyph glyph-name="quotedbl" unicode="&#x22;" horiz-adv-x="995" 
d="M328 963q-146 0 -176 106q-104 44 -89 188l46 429q21 200 225 200h63q99 0 144 -45q57 45 155 45h62q30 0 47.5 -1.5t44 -8t46 -23t34.5 -43.5q6 -24 6 -26q52 -17 76 -66q19 -42 12 -125l-45 -428q-10 -104 -66 -153t-161 -49h-62q-91 0 -139 51q-57 -51 -160 -51h-63z
M319 1147q60 0 88.5 22.5t34.5 87.5l45 429q7 66 -16 87t-84 21h-63q-59 0 -87.5 -21.5t-35.5 -86.5l-45 -429q-6 -66 17.5 -88t82.5 -22h63zM680 1147q64 0 90.5 21.5t32.5 88.5l45 429q6 56 -4 77q-11 22 -28.5 26.5t-67.5 4.5h-62q-61 0 -89.5 -21t-35.5 -87l-45 -429
q-9 -110 102 -110h62z" />
    <glyph glyph-name="numbersign" unicode="#" horiz-adv-x="1679" 
d="M791 -184q-50 0 -85 27.5t-44 72.5h-5q-28 -42 -71 -67t-88 -25h-189q-54 0 -96.5 18.5t-65.5 47.5t-38.5 64.5t-14.5 70t6 63.5l58 211h-11q-51 0 -90.5 16.5t-60.5 43t-35 58t-14.5 62t0.5 56.5q0 17 18 79l39 144q19 60 67.5 99.5t102.5 39.5h59q-39 12 -65.5 37.5
t-37 57t-14 57t-1.5 49.5q1 6 4 18.5t4 18.5l53 192q19 56 67.5 94.5t102.5 38.5h139l82 289q19 63 71 104t114 41h188q49 0 83.5 -27.5t43.5 -70.5q2 -2 4 -2q28 42 71.5 67t90.5 25h188q18 0 36.5 -2t41.5 -6t42.5 -13t39.5 -22t33.5 -33.5t21.5 -45.5t6.5 -60.5
t-12.5 -77.5l-47 -166h29q24 0 53 -7t60.5 -25t55 -44t34.5 -67.5t2 -91.5q-11 -38 -13 -43l-55 -199q-19 -53 -64.5 -87t-99.5 -34h-55q61 -29 90.5 -64t29 -64t-1.5 -61q-1 -6 -1 -9q0 -8 -9 -35l-59 -207q-21 -53 -65 -86t-97 -33h-157l-99 -342q-19 -62 -70.5 -103.5
t-111.5 -41.5h-188zM905 0q26 0 51.5 20.5t34.5 49.5l117 417h235q24 0 45.5 19t24.5 47l55 190q5 5 5 13q1 22 -9.5 36.5t-27.5 14.5h-238l68 240h247q24 0 45 19t25 48l53 189q2 2 6 14q3 51 -40 51h-248l102 358q9 27 -4.5 47.5t-40.5 20.5h-188q-29 0 -53 -19.5
t-33 -48.5l-103 -358h-162l103 365q9 29 -4 49t-39 20h-189q-29 0 -54 -20t-34 -49l-102 -365h-217q-22 0 -44 -19.5t-28 -45.5l-53 -189l-4 -16q-1 -23 10 -37t29 -14h217l-70 -242h-229q-21 0 -42 -19.5t-30 -46.5l-53 -188v-16q-3 -23 7 -37.5t30 -14.5h229l-115 -405
q-9 -29 5 -49.5t43 -20.5h188q26 0 50.5 20.5t33.5 49.5l115 407h163l-116 -415q-9 -30 3.5 -50t41.5 -20h188zM782 1047h164l-67 -240l-166 -2z" />
    <glyph glyph-name="percent" unicode="%" horiz-adv-x="1423" 
d="M1059 -203q-61 0 -115.5 25t-89.5 69q-12 12 -20 37q-36 20 -64 56q-40 52 2 116q0 2 23 29v4q-44 -46 -70 -39q-10 3 -12 17q-6 30 -6 63l-166 -285l-2 -2q-44 -73 -115 -73h-238q-41 0 -70 26t-38 68q-42 9 -65 48t-17 91q0 31 18 66l463 796h-20q-60 0 -114 24.5
t-91 67.5q-16 19 -19 39q-33 19 -65 54q-40 48 0 114q1 1 4.5 5.5t9.5 12t11 13.5v4q-44 -46 -70 -39q-10 3 -12 17q-8 37 -5 82l33 311q8 77 54.5 146.5t119.5 113.5q73 39 156 39h31q77 0 141.5 -37.5t99.5 -103.5q56 -38 86 -99q23 -54 23 -121l147 254l2 2
q20 35 50.5 57t64.5 25h246q42 0 73 -27t40 -69q40 -11 64.5 -49.5t18.5 -87.5q-4 -32 -18 -55l-467 -801h31q77 0 141 -37.5t98 -101.5q56 -38 86 -99q32 -60 23 -151l-29 -310v-2q-8 -79 -57 -151t-123 -111q-80 -41 -151 -41h-31zM856 8q0 4 4 8q-1 -2 -3 -5zM772 100
l4 7l2 2q-6 -6 -6 -9zM168 1208h1l7 11q-2 -2 -4.5 -6t-3.5 -5zM250 1116q4 2 8 10q-3 -3 -5 -6.5l-2 -3.5q-1 -2 -1 0zM1016 -18q48 0 106 28q52 29 85.5 78.5t39.5 104.5l29 311q7 67 -14 102q-23 49 -69 76t-101 27h-31q-58 0 -107 -25q-51 -30 -82.5 -79t-37.5 -103
l-33 -309q-6 -60 20 -105h-2q20 -49 65 -77.5t101 -28.5h31zM1016 143q-22 0 -34.5 15.5t-10.5 38.5l33 307q2 20 17 33.5t38 13.5h2q22 0 34.5 -13.5t10.5 -33.5l-33 -307q-1 -22 -18 -38t-37 -16h-2zM350 -2q18 0 29 22l995 1706q4 5 8 23q2 19 -7.5 34t-24.5 15h-226
q-25 6 -47 -31l-983 -1693q-6 -9 -6 -27q-3 -20 4.5 -34.5t20.5 -14.5h237zM414 1094q54 0 106 28q50 27 83.5 76.5t39.5 104.5l31 313q6 58 -15 102q-23 47 -68 75t-99 28h-31q-57 0 -109 -27q-51 -31 -83 -78.5t-38 -101.5l-32 -311q-6 -59 20 -105h-2q20 -47 65.5 -75.5
t100.5 -28.5h31zM414 1255q-21 0 -34.5 15.5t-12.5 38.5l32 307q2 19 17.5 32t38.5 13h4q20 0 32.5 -13t10.5 -32l-33 -307q-1 -23 -16.5 -38.5t-34.5 -15.5h-4z" />
    <glyph glyph-name="ampersand" unicode="&#x26;" horiz-adv-x="1585" 
d="M258 -233q-47 0 -82 27.5t-41 70.5q-40 12 -64 46.5t-20 76.5l17 145q4 54 48 91.5t101 37.5h148q-13 18 -17 25q-149 115 -143 342q6 125 60.5 237t142.5 178q4 2 13.5 10t16.5 11q2 -1 5 -3t12.5 -8t16 -9.5t15.5 -9t11.5 -6t3.5 0.5q-71 127 -68 223q0 26 4 54
q9 86 45 147h-37q-47 0 -81.5 27.5t-40.5 70.5q-41 12 -64.5 46t-19.5 77l14 146q6 54 50.5 91.5t101.5 37.5h1015q47 0 81 -28t40 -71q40 -12 64 -46t20 -76l-16 -146q-4 -54 -48 -91.5t-100 -37.5h-270q70 -82 70 -219q2 -13 0 -31q-6 -42 -21 -92q53 -6 86 -32.5
t39 -67.5q44 -15 66.5 -50.5t17.5 -82.5q-6 -49 -39 -103q-7 -11 -47 -69q-44 -66 -92 -95q-34 -20 -33 3v3l-8 13l-23 -219q87 22 99 -21q4 -32 4 -45q-1 -4 -2 -11.5t-2 -10.5q74 13 82 -25q5 -39 4 -45q-6 -54 -39 -80v-10q41 -12 64.5 -46t19.5 -77l-15 -145
q-6 -54 -49.5 -91.5t-99.5 -37.5h-1016zM1200 -49q17 0 31.5 11t15.5 26l17 145q1 15 -10.5 26t-28.5 11h-1016q-19 0 -33 -11t-16 -26l-17 -145q-2 -15 10 -26t31 -11h1016zM696 573q1 -1 2 -3t2 -3zM643 514q-63 0 -97 41t-26 109q10 74 61 130.5t101 51.5q3 0 20 -39
l78 -184q6 -12 6 -23q-1 -2 -2 -4.5t-1.5 -3.5t-0.5 -2q-47 -76 -139 -76zM621 297q97 0 178 37t133 102l47 -86q25 -41 68 -41q8 0 25.5 2t25.5 2h4q63 2 89.5 9t27.5 24q0 13 -13 39v-4l-135 283q137 176 180 247q22 36 25 60q3 51 -74 51q-2 0 -14 -1t-17 -1l-61 -10
q-49 -11 -72 -58v2q-64 -85 -67 -88l-60 119q-6 15 11 29q8 7 23 20t25.5 23t18.5 20v-2q36 37 64 101t32 120q2 10 2 27q-3 115 -64 174t-177 59q-138 0 -221 -65.5t-95 -183.5q-2 -14 -2 -45q-6 -72 56 -179l22 -36q-76 -19 -147 -74q-70 -52 -113.5 -144.5t-46.5 -193.5
q-3 -82 19.5 -145t57 -98.5t81.5 -58t86.5 -29.5t77.5 -7zM997 1038zM1081 946zM799 1169q-21 17 -41.5 54t-16.5 77q3 37 27 58.5t53 21.5q30 0 50.5 -17.5t21.5 -51.5q1 -4 1 -10t-0.5 -13t-0.5 -10q-10 -77 -76 -109q-12 -2 -18 0zM1389 1638q17 0 31.5 11t15.5 26
l14 146q1 15 -10.5 26t-28.5 11h-1016q-19 0 -33 -11t-16 -26l-14 -146q-2 -15 10 -26t31 -11h1016z" />
    <glyph glyph-name="quotesingle" unicode="'" horiz-adv-x="696" 
d="M303 1100q-43 0 -72 26.5t-34 67.5q-40 8 -63 41.5t-19 77.5q22 59 47 96l4 8q-35 47 -29 117l19 176q8 74 63.5 125t128.5 51h180q55 0 96 -29t56 -77q45 -21 69.5 -64.5t18.5 -97.5l-18 -176q-3 -54 -39 -99l-164 -198q-42 -45 -115 -45h-129zM358 1284q29 0 41 10
l148 179q25 25 28 61l19 176q4 35 -18 59.5t-58 24.5h-180q-34 0 -60 -24t-30 -60l-19 -176q-10 -56 25 -93q19 -21 27 -11q2 2 2 6q0 -9 -4 -11l-62 -92q-10 -7 -10 -20q-2 -12 4 -20.5t18 -8.5h129z" />
    <glyph glyph-name="asterisk" unicode="*" horiz-adv-x="1138" 
d="M563 897q-35 0 -61.5 18t-38.5 48l31 26h-9q-28 -14 -61 -14q-49 0 -84 35l-61 75q-1 1 -23 17l-59 76q-28 35 -25 82q6 37 37 77l-29 -28q-51 38 -45 106l10 98q6 55 52 89l41 -48q-31 39 -25 82q3 35 31 75q-4 -5 -47 -42l137 125q41 35 88 35q51 0 82 -39l-33 37
q46 53 102 53h101q51 0 84 -41l-43 -39q42 39 88 39q48 0 84 -39l65 -76l6 -6q8 -4 11 -10l67 -76q24 -34 21 -76q-6 -42 -33 -77v-2l43 41q23 -15 34.5 -41t8.5 -56l-10 -98q-5 -37 -27.5 -68.5t-54.5 -44.5l-29 31q31 -39 25 -84q-3 -43 -39 -82l-82 -76q-44 -32 -90 -32
q-9 0 -15 -2l7 53q-5 -47 -44.5 -84t-86.5 -37h-101zM707 1057q-29 -5 -5 -33zM786 932q-25 29 2 33zM590 1081q9 0 19.5 9.5t11.5 19.5l14 139l78 -90q11 -8 18 -8q12 0 23 8l75 70q9 12 11 20q0 15 -6 21l-99 112h158q11 0 20.5 10t10.5 23l10 98q2 9 -6.5 18t-18.5 9
h-129l90 84q11 11 11 25q3 11 -7 18l-59 68q-12 12 -22 12q-7 0 -19 -12l-98 -90l12 114q2 9 -6.5 19t-17.5 10h-101q-9 0 -17.5 -9.5t-10.5 -19.5l-15 -135l-90 102q-7 11 -18 11q-7 0 -25 -11l-72 -67q-10 -15 -10 -23q-2 -10 6 -18l68 -78h-113q-10 0 -18 -8.5t-10 -18.5
l-11 -98q-1 -13 5.5 -23t17.5 -10h139l-115 -104q-9 -13 -10 -18q0 -9 6 -21l60 -72q8 -8 20 -8q14 0 25 8l108 101l-16 -158q-2 -11 4.5 -20t17.5 -9h101z" />
    <glyph glyph-name="plus" unicode="+" horiz-adv-x="1296" 
d="M584 252q-53 0 -90 28t-48 74q-45 15 -68.5 55t-17.5 93l13 123h-84q-50 0 -90 29.5t-52 74.5q-42 18 -66 56t-20 83l17 166q6 61 60.5 108.5t117.5 47.5h176l21 190q7 67 56.5 110.5t117.5 43.5h176q52 0 89.5 -28.5t49.5 -73.5q42 -18 66 -57t18 -87l-10 -98h86
q52 0 90 -29t49 -74q44 -17 68 -56.5t20 -88.5l-18 -166q-6 -64 -57 -107.5t-119 -43.5h-179l-22 -215q-8 -69 -56.5 -113.5t-117.5 -44.5h-176zM688 436q30 0 49.5 18t22.5 48l33 307h270q30 0 50.5 17t23.5 42l16 166q3 26 -13 45t-46 19h-271l29 282q3 25 -13.5 43.5
t-45.5 18.5h-177q-30 0 -49 -16.5t-22 -45.5l-29 -282h-268q-25 0 -50 -20t-28 -44l-16 -166q-3 -23 17.5 -41t45.5 -18h268l-32 -307q-3 -30 13 -48t46 -18h176z" />
    <glyph glyph-name="comma" unicode="," horiz-adv-x="727" 
d="M254 -367q-44 0 -75.5 26.5t-37.5 68.5q-40 9 -62 42.5t-18 77.5q16 52 41 89q4 4 10.5 13t10.5 13q-43 49 -37 127l20 193q7 76 65.5 130t133.5 54h199q56 0 98 -30t60 -79q46 -22 71 -67t19 -101l-21 -192q-3 -55 -41 -102l-178 -213v-2q-42 -48 -119 -48h-139z
M319 -182q33 0 43 10l162 195q30 30 33 67l21 193q4 38 -20 65t-62 27h-199q-36 0 -65 -26.5t-33 -65.5l-21 -193q-6 -65 47 -88q11 -4 8 -20q0 -9 -2 -11l-65 -100q-12 -7 -12 -23q-3 -30 26 -30h139z" />
    <glyph glyph-name="hyphen" unicode="-" horiz-adv-x="876" 
d="M289 575q-56 0 -100.5 30.5t-59.5 78.5q-45 22 -69.5 64t-20.5 94l18 162q7 75 65 124.5t136 49.5h420q56 0 100.5 -30.5t59.5 -78.5q45 -22 69.5 -64t20.5 -94l-19 -161q-6 -72 -65.5 -123.5t-134.5 -51.5h-420zM635 760q38 0 67.5 24.5t32.5 57.5l19 162q3 33 -21.5 57
t-62.5 24h-420q-40 0 -68.5 -22.5t-31.5 -58.5l-19 -162q-3 -33 21.5 -57.5t62.5 -24.5h420z" />
    <glyph glyph-name="period" unicode="." horiz-adv-x="729" 
d="M324 -190q-54 0 -96 30t-60 78q-47 22 -72.5 68.5t-19.5 103.5l20 195q9 77 69 130.5t136 53.5h195q58 0 100 -29.5t57 -79.5q48 -22 73 -66.5t19 -100.5l-20 -195q-9 -78 -69 -133t-138 -55h-194zM446 -6q40 0 70 28t33 68l20 195q4 40 -20 66t-64 26h-194
q-39 0 -69 -26.5t-34 -65.5l-20 -195q-3 -40 21.5 -68t62.5 -28h194z" />
    <glyph glyph-name="slash" unicode="/" horiz-adv-x="911" 
d="M195 -193q-51 0 -88 28.5t-48 72.5q-47 19 -69.5 64.5t-9.5 99.5l477 1689q19 60 72 100t114 40h191q51 0 87.5 -28.5t45.5 -72.5q48 -17 71 -60t11 -95l-482 -1711q-20 -54 -72 -90.5t-112 -36.5h-188zM311 -8q30 0 57 20t31 49l475 1682q8 27 -6.5 46t-44.5 19h-190
q-29 0 -54.5 -19t-33.5 -46l-475 -1682q-9 -29 7 -49t46 -20h188z" />
    <glyph glyph-name="colon" unicode=":" horiz-adv-x="655" 
d="M336 717q-57 0 -99 29t-57 79q-46 22 -71 68t-19 102l21 195q7 78 65.5 131t136.5 53h195q59 0 102 -29.5t56 -78.5q48 -22 73 -67t19 -101l-21 -195q-9 -78 -69 -132t-138 -54h-194zM362 0q40 0 71 27.5t34 66.5l20 195q4 41 -20 66.5t-64 25.5h-194q-39 0 -69 -26
t-34 -66l-20 -195q-3 -40 20.5 -67t61.5 -27h194zM242 -184q-57 0 -99 29t-57 79q-47 22 -72.5 68t-19.5 102l20 195q9 78 68 131t137 53h195q58 0 100.5 -29t56.5 -79q48 -22 72.5 -66.5t20.5 -101.5l-21 -195q-9 -78 -69 -132t-138 -54h-194zM459 901q40 0 69.5 27
t34.5 67l21 195q3 41 -21.5 66.5t-64.5 25.5h-195q-39 0 -68 -26t-32 -66l-21 -195q-4 -40 20 -67t62 -27h195z" />
    <glyph glyph-name="semicolon" unicode=";" horiz-adv-x="655" 
d="M172 -367q-44 0 -75 27t-36 68q-40 9 -62.5 42.5t-18.5 77.5q18 52 43 89l16 26q-42 58 -33 127l21 193q8 77 66 130.5t134 53.5h197q56 0 98 -30t60 -79q46 -22 71 -67t19 -101l-21 -192q-5 -48 -39 -100l-180 -220q-45 -45 -119 -45h-141zM70 6q4 4 11 11.5t11 11.5v6
q-12 -11 -22 -29zM242 -182q31 0 41 10l159 195q32 32 35 67l21 193q3 38 -21.5 65t-62.5 27h-197q-37 0 -66 -26.5t-32 -65.5l-21 -193q-6 -65 45 -88q16 -4 13 -20q0 -9 -4 -11l-66 -100q-10 -6 -14 -23q-1 -13 6.5 -21.5t21.5 -8.5h142zM463 901q41 0 71 27t35 67l21 195
q4 41 -20 66.5t-66 25.5h-195q-39 0 -68.5 -25.5t-33.5 -66.5l-21 -195q-4 -40 20 -67t62 -27h195zM342 717q-57 0 -99 29t-57 79q-47 22 -72.5 68t-19.5 102l21 195q9 78 67.5 131t136.5 53h195q59 0 102 -29t60 -79q46 -22 70 -67t18 -101l-21 -195q-8 -78 -67.5 -132
t-138.5 -54h-195z" />
    <glyph glyph-name="less" unicode="&#x3c;" horiz-adv-x="962" 
d="M657 283q-79 0 -139 57l-328 360q-1 2 -4 5.5t-4 5.5l-73 82q-46 55 -37 145q10 89 73 149l400 367q68 62 157 62q65 0 119 -41l43 -39q22 -30 29 -45q8 -8 10 -9l43 -39q56 -66 47 -153q-5 -40 -26 -81t-52 -69l-210 -192l83 -90q1 -2 3.5 -5t3.5 -5l75 -82
q23 -28 35 -70.5t8 -83.5q-3 -36 -23.5 -77t-47.5 -68l-39 -33q-66 -51 -146 -51zM586 467q47 0 88 35l26 22q35 35 39 80q4 57 -24 88l-223 248l282 258q37 32 45 84q3 50 -26 86l-23 21q-30 34 -78 34q-50 0 -90 -34l-397 -365q-37 -37 -41 -86q-7 -63 24 -90l320 -348
q30 -33 78 -33z" />
    <glyph glyph-name="equal" unicode="=" horiz-adv-x="911" 
d="M285 358q-57 0 -100.5 30.5t-57.5 78.5q-47 22 -71.5 64t-18.5 94l16 161q4 43 28 80.5t60 61.5q-72 50 -63 143l16 160q7 75 65 124.5t138 49.5h420q58 0 101.5 -30.5t58.5 -78.5q45 -22 69.5 -64t18.5 -93l-17 -160q-9 -87 -90 -141q34 -24 52 -62t14 -82l-17 -162
q-7 -72 -67 -123t-135 -51h-420zM633 543q38 0 67.5 24.5t32.5 57.5l17 161q3 33 -21.5 57.5t-62.5 24.5h-420q-40 0 -68.5 -22.5t-32.5 -59.5l-16 -161q-3 -33 21.5 -57.5t62.5 -24.5h420zM674 989q38 0 66.5 24t33.5 58l17 160q3 34 -21.5 58t-62.5 24h-420
q-41 0 -69.5 -22.5t-31.5 -59.5l-16 -160q-4 -34 21 -58t63 -24h420z" />
    <glyph glyph-name="greater" unicode="&#x3e;" horiz-adv-x="962" 
d="M360 287q-80 0 -133 53l-32 33q-11 11 -23 39q-22 13 -27 20l-34 33q-22 26 -33.5 67.5t-7.5 77.5q5 42 25 83.5t50 68.5l205 184l-176 203q-51 57 -41 139q10 92 82 152l35 30q72 52 141 52q80 0 141 -64l76 -84q5 -3 8 -8l322 -365q55 -61 45 -151q-10 -88 -61 -139
l-412 -367q-70 -57 -150 -57zM289 471q39 0 84 33l389 348q40 27 47 90q4 52 -27 88l-319 363q-37 37 -82 37q-46 0 -86 -37l-25 -21q-42 -36 -45 -84q-6 -46 27 -84l229 -260l-278 -248q-38 -33 -41 -86q-4 -48 22 -80l23 -22q30 -37 82 -37z" />
    <glyph glyph-name="question" unicode="?" horiz-adv-x="1218" 
d="M461 -190q-55 0 -96 30t-56 78q-48 22 -74 68t-20 104l21 193q9 80 71 135q-57 57 -51 139q17 129 45.5 225.5t66.5 156t73.5 93.5t80.5 60q-36 -9 -49 -9h-176q-51 0 -89 29t-52 76q-45 19 -69.5 60.5t-18.5 94.5v5q12 114 63 215.5t128.5 176t181 120.5t216.5 53
q25 2 72 2q327 0 455 -199q189 -151 151 -508q-16 -154 -46.5 -261t-66.5 -159.5t-76.5 -83t-81 -44.5t-75 -30.5t-62 -55t-40.5 -103.5q-2 -8 -5 -28.5t-5 -29.5t-7.5 -24t-13.5 -29q-10 -20 -25 -32q49 -55 43 -138l-20 -192q-9 -77 -68 -132.5t-133 -55.5h-192zM580 -6
q36 0 65.5 28.5t32.5 67.5l20 193q5 40 -17 66t-60 26h-193q-37 0 -66.5 -26.5t-33.5 -65.5l-21 -193q-3 -40 20 -68t60 -28h193zM600 465q54 0 75 9.5t30 39.5q8 79 35 138.5t63.5 97t80 71t87 72t81.5 87.5t67 131t40 189q28 264 -80 393.5t-360 129.5q-43 0 -66 -2
q-193 -10 -333 -144.5t-160 -328.5v-5q-4 -32 15 -53.5t50 -21.5h174q29 2 51 22t25 49l2 19q9 80 68 126t133 46q72 0 121 -44.5t43 -127.5q-7 -113 -34 -190t-66 -116.5t-85 -66.5t-94 -54.5t-90 -66.5t-76 -116t-49 -189q0 -39 23 -65.5t59 -26.5q43 0 99 -1t71 -1z
M580 1122q35 17 51.5 26t42 28.5t38 40t24 53.5t14.5 76q-41 0 -67.5 -22t-29.5 -58l-2 -19q-9 -76 -71 -125z" />
    <glyph glyph-name="at" unicode="@" horiz-adv-x="2498" 
d="M1047 -449q-214 0 -393.5 88.5t-301.5 247.5q-165 160 -243 397t-48 513q18 171 80 334.5t157.5 301t223.5 253.5t275 197t315 126t340 45q277 0 499.5 -98t358.5 -277q225 -216 260 -549q10 -112 -6 -270q-35 -336 -186 -568.5t-402 -334.5q-163 -61 -299 -61
q-226 0 -342 176q-56 49 -84 94q-7 -5 -24 -8q-49 -8 -111 -8q-241 0 -352 178q-92 73 -133 201.5t-23 297.5q2 6 2 17q-21 -78 -26 -139q-15 -140 14.5 -264t95.5 -218q147 -131 357 -131q53 0 90 6l16 2h8q47 0 79 -26.5t38 -69.5q43 -12 66.5 -48t17.5 -85q0 -3 -23 -176
q-7 -54 -48 -91t-95 -40q-102 -13 -153 -13zM1133 698q41 0 106 21q8 4 8 6l45 233q-67 -3 -123 -100q-29 -43 -39 -125q0 -4 -0.5 -11.5t-0.5 -13.5t1 -10h3zM1122 606q-53 0 -89 18.5t-53 51t-22.5 69t-1.5 80.5q13 105 54 168q91 150 213 150q48 0 92 -21
q41 -18 60.5 -57t13.5 -84l-50 -264q-3 -26 -25 -49.5t-52 -34.5q-82 -27 -140 -27zM973 -264q53 0 147 12q5 0 14 2t21 12t14 27q3 21 8 56.5t8.5 64t6.5 53.5q3 45 -37 45h-8q-47 -8 -107 -8q-148 0 -273.5 61t-210 166t-124.5 253.5t-22 316.5q12 117 55 230.5t109.5 211
t156 181t192 143.5t221.5 95.5t240 39.5q277 9 459.5 -107t247.5 -336q0 -4 2 -6q36 -137 29 -245q3 -32 -4 -80q-15 -151 -72 -284.5t-158 -211.5q-14 -7 -57 -39q-53 -21 -117 -33q-34 -1 -56.5 16t-30 41t-11 50.5t1.5 44.5v2l143 762q9 54 -22.5 92t-85.5 35l-101 -6
q-7 0 -13 -1t-12 -4.5t-9 -5t-10 -7.5t-9 -7q-16 -16 -33 -16q-11 0 -20 6q-105 57 -227 57q-259 0 -441 -317q-59 -103 -78 -271q-5 -70 -3 -139.5t25.5 -133.5t61.5 -113t105 -78t155 -29q82 0 203 31q18 4 33 -2.5t18 -24.5q2 -10 6 -32.5t8.5 -40t12.5 -32.5
q89 -153 281 -153q119 0 262 55q111 45 199 120.5t143 158t94.5 182.5t57.5 183.5t28 172.5q4 39 6 78t2 69t-0.5 52.5t-1 38.5t-0.5 18q-17 165 -92.5 304t-197.5 238.5t-293 155.5t-371 56q-241 0 -467.5 -93t-398 -250t-285 -372t-137.5 -450q-24 -224 28.5 -422.5
t163 -337.5t274 -220t353.5 -81zM1804 479q2 1 16 10.5t23 14.5q77 76 124 183.5t58.5 212.5t3 204t-36 171t-63.5 101q-172 146 -471 137q-74 -3 -131 -14q75 -15 139 -45q39 26 80 31l109 6q65 3 114.5 -28.5t71.5 -86.5q53 -27 79.5 -82t14.5 -120zM1440 1434q2 0 2 2
q0 -2 -2 -2zM1518 1425q-12 12 -25 17q4 -3 12.5 -8.5t12.5 -8.5z" />
    <glyph glyph-name="A" unicode="A" horiz-adv-x="1492" 
d="M207 -186q-56 0 -95.5 28.5t-48.5 73.5q-51 21 -73 66.5t-4 99.5l512 1659q19 61 74.5 101t121.5 40h324q58 0 102.5 -30t59.5 -80q37 -18 61.5 -50t28.5 -73l162 -1661q6 -70 -46 -122t-129 -52h-217q-54 0 -91 27t-48 73q-67 25 -82 96l-18 152h-144l-63 -219
q-45 -129 -170 -129h-217zM350 -2q31 0 47 13t25 42l86 293h364l35 -293q0 -55 60 -55h217q33 0 54 18.5t19 46.5l-161 1659q-3 29 -28.5 48.5t-59.5 19.5h-324q-32 0 -60.5 -19.5t-37.5 -48.5l-512 -1659q-9 -28 8 -46.5t51 -18.5h217zM580 627l231 841l57 -843z" />
    <glyph glyph-name="B" unicode="B" horiz-adv-x="1439" 
d="M303 -182q-120 0 -147 102q-106 39 -88 203l161 1550q24 211 234 211l452 -2q129 0 228 -47t151 -133q70 -56 97 -123q63 -138 41 -362q-27 -257 -121 -392q125 -128 94 -450q-31 -290 -180 -425.5t-434 -133.5zM649 555q4 0 6 2q-2 -2 -6 -2zM545 266q-32 0 -37 4t-2 27
l31 332q1 13 3 36q2 27 3 37.5t4 21t7.5 12.5t12.5 3q39 4 105 4q123 0 179.5 -44.5t55.5 -161.5q0 -46 -2 -66q-5 -43 -16 -76t-23.5 -54.5t-35 -36.5t-38.5 -22.5t-46.5 -11t-47 -4t-50.5 -0.5h-13h-90zM694 358q72 1 91.5 21t27.5 92v57q1 5 1 14t1 13q-40 4 -72 4h-30
q0 -3 -1 -10.5t-1 -11.5zM717 0q85 -1 151 9.5t130.5 41t109 81.5t77 135.5t44.5 199.5q15 135 -3 229.5t-55 139.5t-90 59q75 49 116.5 150.5t59.5 263.5q18 204 -32 317q-21 47 -58.5 80.5t-83.5 51t-89.5 25t-88.5 7.5l-452 2q-40 0 -66.5 -9.5t-39.5 -29t-17.5 -36.5
t-7.5 -44l-162 -1550q-1 -24 -3.5 -51t15.5 -48.5t57 -21.5zM596 1010q-25 0 -28.5 3.5t-0.5 26.5l41 433q3 37 6.5 45t18.5 8h20h80q39 0 63 -1.5t50 -7t39.5 -16t26.5 -28.5t17 -45.5t4 -65.5t-5 -90q-8 -78 -20.5 -124t-39 -79.5t-69.5 -46t-113 -12.5h-90zM756 1104
q40 6 54.5 38t25.5 130q3 45 6 69h-37h-27z" />
    <glyph glyph-name="C" unicode="C" horiz-adv-x="1437" 
d="M670 -203q-127 0 -234.5 55.5t-175.5 155.5q-88 72 -131 180q-61 128 -45 295l88 848q17 157 106.5 291t227.5 209q133 80 291 80h82q130 0 239.5 -56.5t177.5 -156.5q80 -68 127 -168q58 -135 43 -291q-6 -69 -60.5 -121.5t-121.5 -52.5h-174q-50 0 -90 29.5t-55 74.5
q-44 21 -69.5 65t-21.5 95l3 8v13h-11h-10q-43 0 -77.5 -32t-37.5 -75v-2l-88 -835q0 -19 2 -27h9h10q43 0 75.5 34t38.5 85q6 69 62 118.5t125 49.5h174q52 0 90.5 -29t52.5 -76q45 -19 69.5 -60.5t18.5 -94.5l-2 -15q-15 -156 -103 -292t-226 -218h-2q-144 -84 -295 -84
h-82zM678 -18q125 0 248 69q115 68 190 183t88 249l2 15q3 32 -15.5 53.5t-49.5 21.5h-174q-32 0 -57.5 -21.5t-28.5 -53.5q-9 -88 -71.5 -149.5t-145.5 -61.5h-11q-77 0 -130 63.5t-44 147.5l88 835q6 83 71.5 142t145.5 59h11q85 0 134 -55.5t40 -141.5l-2 -8
q-3 -31 18 -55.5t51 -24.5h174q29 0 53.5 24.5t26.5 55.5v2q15 134 -35 246q-51 113 -153 177.5t-232 64.5h-82q-132 0 -243 -66q-117 -64 -191.5 -176.5t-89.5 -245.5l-88 -848q-15 -136 37 -250q50 -116 151.5 -183.5t231.5 -67.5h82z" />
    <glyph glyph-name="D" unicode="D" 
d="M287 -184q-49 0 -87 28.5t-50 73.5q-44 19 -68.5 60.5t-20.5 91.5l172 1636q8 71 63 122.5t124 51.5h514q133 0 245 -57t183 -160q68 -57 119 -154q36 -83 40 -209.5t-22 -377.5q-6 -57 -26 -223t-31 -277q-19 -174 -110.5 -322t-221.5 -211q-145 -71 -287 -71zM752 2
q116 0 241 61q76 37 137 112t95 162.5t43 176.5q11 112 31.5 279.5t25.5 220.5q24 205 22.5 336.5t-34.5 203.5q-53 108 -156.5 171t-232.5 63h-514q-31 0 -56 -25t-28 -57l-172 -1636q-3 -27 14.5 -48.5t44.5 -21.5zM506 301q-22 0 -19 21l119 1130q2 14 14 25.5t27 11.5
h215q79 0 129.5 -57t42.5 -136l-82 -780q-9 -87 -79.5 -151t-157.5 -64h-209zM725 393q50 0 90.5 37t44.5 86l82 780v9h-8h-160l-94 -912h45z" />
    <glyph glyph-name="E" unicode="E" horiz-adv-x="1302" 
d="M289 -178q-52 0 -91 28.5t-51 73.5q-45 17 -68.5 57.5t-17.5 92.5l175 1655q7 67 58 112t120 45h753q52 0 91 -28t51 -74q45 -17 68.5 -57t17.5 -91l-19 -176q-8 -68 -59.5 -115t-118.5 -47h-424l-22 -219h206q52 0 87.5 -27.5t46.5 -72.5q45 -18 68.5 -57.5t19.5 -92.5
l-19 -178q-8 -68 -56.5 -111.5t-115.5 -43.5h-299l-10 -86h332q52 0 90.5 -29t50.5 -74q44 -19 68 -58t18 -89l-18 -178q-6 -66 -58.5 -113t-120.5 -47h-753zM969 6q29 0 52 20t26 48l18 178q3 28 -16 46.5t-48 18.5h-516l39 363h391q29 0 48 17t22 46l19 179q3 30 -12 47.5
t-44 17.5h-391l51 496h516q29 0 52 20t26 49l19 177q3 29 -15.5 47t-48.5 18h-754q-31 0 -51.5 -18t-23.5 -47l-174 -1655q-3 -28 14 -48t47 -20h754z" />
    <glyph glyph-name="F" unicode="F" horiz-adv-x="1333" 
d="M291 -176q-55 0 -94 28t-50 74q-43 18 -66.5 57t-19.5 89l175 1650q6 64 58.5 109t121.5 45h758q55 0 94 -28.5t51 -75.5q43 -18 66.5 -55.5t19.5 -86.5l-19 -180q-7 -66 -60.5 -113t-121.5 -47h-428l-24 -221h213q53 0 90 -27.5t49 -74.5q43 -15 66.5 -54.5t19.5 -91.5
l-21 -180q-6 -65 -55.5 -108.5t-116.5 -43.5h-305l-55 -509q-6 -64 -59 -110t-119 -46h-168zM387 8q29 0 51 19.5t25 44.5l63 602h398q30 0 49 16.5t22 42.5l19 180q3 28 -12.5 46t-45.5 18h-397l51 498h520q30 0 54.5 20t27.5 47l19 180q3 26 -16.5 44t-51.5 18h-757
q-31 0 -53 -18t-25 -44l-174 -1650q-3 -29 15.5 -46.5t49.5 -17.5h168z" />
    <glyph glyph-name="G" unicode="G" horiz-adv-x="1480" 
d="M1425 387q-17 -165 -100 -294.5t-200.5 -201t-260.5 -94t-277.5 9.5t-254 127t-187.5 242v2q-63 134 -47 299l90 850q15 158 105 292t235 214h2q140 76 297 76h80q164 1 299.5 -71t209 -201.5t57.5 -284.5q-6 -42 -26.5 -72.5t-53.5 -47t-70 -26t-84 -11t-87.5 -0.5
t-87.5 3q-23 1 -34 2q-42 3 -64 21t-26.5 41.5t-8.5 46t-20 38t-51 15.5q-55 0 -94.5 -32t-44.5 -79l-31 -311q1 4 3.5 25t5.5 42t15.5 47.5t30.5 46t53 34t81 14.5l338 -2q131 0 197 -72t63 -213zM870 647q-46 -4 -82.5 -1.5t-62.5 19.5t-39.5 49.5t-12.5 89t17 136.5
l-51 -506q-3 -9 0 -20q54 -22 100.5 -14t79 36.5t35.5 61.5zM1307 997q2 26 -14 45t-42 19h-399q-25 0 -47 -19.5t-23 -44.5l-20 -190q-2 -20 12.5 -36.5t34.5 -16.5h164l-27 -265q-11 -100 -84.5 -154t-165.5 -54h-8q-85 0 -139 61.5t-45 146.5l88 844q9 84 74.5 140.5
t150.5 56.5h10q93 0 142.5 -33t52.5 -123q0 -21 14.5 -33t38.5 -12h219q20 0 33.5 13t15.5 32q12 139 -49 242q-59 98 -164 150.5t-229 50.5h-82q-132 0 -254 -64q-120 -67 -195.5 -179t-88.5 -247l-91 -850q-15 -135 39 -254q56 -118 162 -186t238 -68h82q128 0 252 70
q120 70 197.5 187t90.5 253z" />
    <glyph glyph-name="H" unicode="H" horiz-adv-x="1607" 
d="M285 -184q-49 0 -86 28.5t-49 73.5q-43 17 -68 59.5t-21 92.5l175 1652q6 63 58.5 111.5t115.5 48.5h190q50 0 88.5 -28.5t50.5 -73.5q44 -18 68 -58.5t18 -91.5l-57 -547l209 2l67 637q6 65 60 112.5t121 47.5h184q50 0 89.5 -29.5t53.5 -74.5q41 -19 65.5 -59.5
t20.5 -88.5l-174 -1653q-6 -66 -60 -113.5t-120 -47.5h-184q-52 0 -91 29t-53 75q-43 17 -66.5 58t-19.5 92l45 426l-208 -2l-56 -517q-6 -67 -58 -114t-118 -47h-190zM401 0q28 0 50.5 20.5t25.5 49.5l64 608l485 2l-63 -610q-3 -29 15.5 -49.5t47.5 -20.5h184
q28 0 52.5 20.5t27.5 49.5l174 1652q3 26 -17 47t-48 21h-185q-29 0 -51.5 -20.5t-25.5 -47.5l-78 -729l-486 -2l78 731q3 29 -15 48.5t-46 19.5h-191q-25 0 -46.5 -21t-24.5 -47l-174 -1652q-3 -29 14.5 -49.5t42.5 -20.5h190z" />
    <glyph glyph-name="I" unicode="I" horiz-adv-x="792" 
d="M287 -190q-50 0 -88 28.5t-52 73.5q-43 18 -67.5 59.5t-18.5 91.5l175 1657q8 68 58.5 115t117.5 47h188q49 0 86 -28.5t51 -73.5q44 -18 68 -59t18 -93l-174 -1657q-6 -65 -58 -113t-116 -48h-188zM401 -6q26 0 48.5 20.5t25.5 48.5l174 1657q3 29 -14.5 49.5
t-44.5 20.5h-189q-29 0 -49.5 -20t-23.5 -50l-174 -1657q-3 -28 13.5 -48.5t45.5 -20.5h188z" />
    <glyph glyph-name="J" unicode="J" horiz-adv-x="1304" 
d="M610 -242q-147 0 -263 57t-185 158q-87 74 -128 182t-28 236q6 67 62 116.5t125 49.5h163q101 0 136 -100q69 -24 88 -119q40 1 56 15.5t19 49.5l142 1338q6 64 59 108.5t121 44.5h158q50 0 87.5 -29.5t49.5 -74.5q43 -18 67.5 -56t20.5 -85l-141 -1350
q-25 -239 -196 -390t-413 -151zM539 -57q89 0 172.5 28t154 81t118.5 141t60 198l142 1350q3 24 -16.5 42.5t-45.5 18.5h-157q-30 0 -52.5 -18t-25.5 -43l-141 -1338q-8 -84 -60.5 -120.5t-128.5 -36.5q-69 0 -106 39t-45 102q-3 39 -17 58.5t-45 19.5h-164q-28 0 -54.5 -21
t-29.5 -53q-9 -85 10.5 -158.5t61.5 -126t100.5 -90t127 -55.5t141.5 -18z" />
    <glyph glyph-name="K" unicode="K" horiz-adv-x="1404" 
d="M281 -184q-49 0 -86.5 28.5t-49.5 73.5q-42 15 -66 54.5t-20 84.5l177 1672q6 63 56.5 109t113.5 46h186q45 0 81 -28.5t48 -71.5q36 -13 59.5 -46.5t28.5 -74.5l74 127q28 44 72 69t94 25h194q60 0 101.5 -28.5t52.5 -75.5q45 -17 67.5 -55t16.5 -87q-3 -35 -25 -75
l-434 -676l350 -834q15 -41 12 -86q-7 -66 -59.5 -108.5t-126.5 -42.5h-207q-46 0 -86 29t-59 75l-2 2q-58 30 -80 90l-102 258l-29 -305q-7 -60 -57 -104.5t-109 -44.5h-186zM393 0q22 0 42.5 17.5t21.5 39.5l49 480l98 151l246 -635q9 -23 28 -38t40 -15h206q36 0 59.5 16
t24.5 43q4 29 -10 56l-362 864l452 707q16 21 19 45q3 27 -17.5 44t-56.5 17h-195q-55 0 -82 -53l-391 -664l68 654q3 23 -13 43t-38 20h-187q-24 0 -44 -19t-23 -44l-176 -1672q-2 -22 14.5 -39.5t40.5 -17.5h186z" />
    <glyph glyph-name="L" unicode="L" horiz-adv-x="1159" 
d="M281 -184q-49 0 -86 28.5t-48 71.5q-43 18 -67.5 57t-20.5 88l177 1676q7 64 58 110.5t114 46.5h188q50 0 87.5 -28.5t49.5 -73.5q44 -18 68 -57.5t20 -89.5l-129 -1239l205 2q53 0 88.5 -27.5t46.5 -73.5q45 -15 67.5 -53.5t16.5 -91.5l-18 -193q-8 -65 -56 -109
t-114 -44h-647zM854 0q29 0 47.5 18t20.5 43l20 193q6 61 -55 61l-389 -2l147 1424q3 27 -13.5 46t-43.5 19h-189q-25 0 -46.5 -19t-24.5 -46l-176 -1676q-2 -25 13.5 -43t41.5 -18h647z" />
    <glyph glyph-name="M" unicode="M" horiz-adv-x="1955" 
d="M295 -184q-51 0 -91 30t-54 76q-42 19 -67.5 60.5t-21.5 87.5l175 1654q6 66 60.5 112t123.5 46h319q23 0 35 -0.5t44.5 -6t53.5 -16.5t44 -34.5t34 -57.5q82 -36 92 -133l23 -286l113 381q10 28 24 51t30 38.5t32 27.5t35 18.5t33.5 11t32.5 5.5t27.5 1.5t23 0
t14.5 -0.5h327q55 0 94 -28t50 -74q45 -18 68.5 -57t17.5 -91l-175 -1655q-6 -69 -57.5 -115t-122.5 -46h-180q-55 0 -94 28t-51 76q-34 12 -58 39v-2q-22 -64 -72.5 -100t-123.5 -41h-185q-60 4 -101 33t-56 77q-37 18 -58 45q-6 -63 -57.5 -109t-114.5 -46h-186zM408 0
q26 0 47 20.5t24 45.5l107 1277l127 -1263q1 -36 25.5 -56.5t60.5 -23.5h176q81 6 104 70l400 1273l-168 -1265q-3 -34 13.5 -56t53.5 -22h181q32 0 54 19.5t25 50.5l174 1654q3 29 -15 47.5t-50 18.5h-328h-15h-20t-20 -1.5t-22.5 -5t-21 -9.5t-21.5 -14.5t-17.5 -21.5
t-15.5 -30l-318 -1069l-80 1069q-3 24 -15 40.5t-24.5 24.5t-34.5 12t-32.5 4.5t-32.5 0.5h-319q-30 0 -54.5 -19t-27.5 -47l-174 -1654q-3 -25 17.5 -47.5t49.5 -22.5h187z" />
    <glyph glyph-name="N" unicode="N" horiz-adv-x="1613" 
d="M1085 -184q-66 0 -120.5 33t-73.5 85q-66 37 -84 101l-109 414l-41 -467v-2q-8 -69 -58.5 -115.5t-119.5 -46.5h-188q-52 0 -91 29t-53 75q-43 18 -67.5 59t-18.5 91l175 1657q7 67 59.5 114t120.5 47h241q84 0 129.5 -25t71.5 -87q59 -25 90 -109l72 -305l31 362v3
q8 68 58.5 114.5t117.5 46.5h194q49 0 89.5 -30t52.5 -74q41 -18 64.5 -54t19.5 -77l-174 -1657q-8 -77 -58 -128.5t-119 -51.5zM1223 2q29 0 50 24t25 64l175 1657q2 16 -17 33.5t-43 17.5h-194q-29 0 -51 -20t-25 -49l-96 -1143l-271 1140q-19 47 -44.5 59.5t-82.5 12.5
h-241q-30 0 -53.5 -20t-26.5 -49l-174 -1657q-3 -29 15.5 -49.5t47.5 -20.5h189q30 0 52 20t25 50l103 1183l311 -1187q8 -32 44 -50t71 -18z" />
    <glyph glyph-name="O" unicode="O" 
d="M690 -203q-139 0 -252 58t-182 159q-96 80 -141.5 202t-30.5 267l88 844q13 121 70 229.5t142.5 186t198.5 123t234 45.5h84q139 0 252 -58t182 -159q93 -79 138 -198t32 -259l-88 -846q-16 -158 -109.5 -295.5t-235.5 -218t-296 -80.5h-86zM702 -18q127 0 247 67.5
t200 183.5t94 250l86 846q23 209 -103.5 349.5t-332.5 140.5h-84q-136 0 -255.5 -64.5t-197 -177.5t-92.5 -250l-88 -844q-15 -144 39.5 -259.5t160.5 -178.5t240 -63h86zM680 285q-84 0 -137.5 62t-44.5 147l86 837q9 84 75 140.5t152 56.5h8q85 0 137 -56.5t43 -140.5
l-86 -837q-9 -85 -74.5 -147t-148.5 -62h-10zM700 377q43 0 79 35t42 82l86 837q2 4 2 10q-6 2 -18 2h-8q-47 0 -83 -30t-40 -74l-88 -838q-3 -13 0 -22q6 -2 18 -2h10z" />
    <glyph glyph-name="P" unicode="P" horiz-adv-x="1402" 
d="M293 -182q-56 0 -96 28t-52 74q-44 18 -67 57t-17 91l175 1654q8 71 59 117.5t123 46.5h500q282 0 385 -174q170 -127 133 -442l-52 -484q-15 -139 -91 -251.5t-194.5 -176t-256.5 -63.5l-133 2l-35 -322q-7 -67 -61 -112t-124 -45h-196zM416 2q32 0 56.5 18.5t27.5 47.5
l43 413l227 -2q169 0 294 112.5t144 287.5l54 483q24 214 -58.5 323t-296.5 109h-499q-34 0 -55.5 -20t-24.5 -52l-174 -1654q-3 -30 14 -48t51 -18h197zM762 881q22 0 39 15t18 38l43 405l-59 2l-49 -460h8zM639 1526l190 -2q62 0 98.5 -40.5t30.5 -101.5l-47 -448
q-6 -60 -51.5 -103t-105.5 -43h-193z" />
    <glyph glyph-name="Q" unicode="Q" 
d="M895 -541q-75 0 -121 56l-49 63q-18 11 -33 29l-168 215q-20 0 -41 6q-134 50 -213 168q-95 80 -140 206t-30 275l90 844q17 162 108.5 296t233.5 211t304 77h84q138 0 251 -57.5t183 -159.5q92 -79 137.5 -198.5t30.5 -258.5l-86 -846q-15 -140 -92.5 -265.5
t-198.5 -211.5l49 -64q31 -56 25 -110q-3 -39 -24 -75t-54 -60l-135 -103q-53 -37 -111 -37zM823 -356q30 0 56 20l131 98q31 21 34 64q3 37 -20 63l-98 134q134 62 226.5 184.5t107.5 269.5l88 846q11 103 -18 194.5t-88 156t-145.5 101.5t-187.5 37h-84q-208 0 -364 -141
t-178 -350l-90 -844q-19 -191 70 -327.5t255 -161.5h-2l246 -314q21 -30 61 -30zM696 279q-84 0 -137.5 61.5t-44.5 146.5l88 838q9 84 74.5 140.5t150.5 56.5h9q85 0 138 -56.5t44 -140.5l-88 -838q-9 -85 -74.5 -146.5t-148.5 -61.5h-11zM717 371q43 0 80 34.5t41 81.5
l88 838q0 8 2 10q-6 2 -19 2h-8q-48 0 -84.5 -30t-40.5 -74l-88 -838v-22q6 -2 19 -2h10z" />
    <glyph glyph-name="R" unicode="R" horiz-adv-x="1425" 
d="M293 -184q-56 0 -96 28t-52 74q-44 18 -67 57t-17 91l175 1654q8 71 59 117.5t123 46.5h500q282 0 385 -174q170 -127 133 -442l-52 -484q-22 -206 -170 -342l105 -434q6 -22 2 -47q-6 -60 -52 -102.5t-106 -42.5h-215q-57 0 -100 29t-62 79q-68 38 -86 113l-12 67
l-14 -131q-7 -67 -61 -112t-124 -45h-196zM416 0q32 0 56.5 18.5t27.5 47.5l43 413l172 -2l73 -401q5 -34 28.5 -55t57.5 -21h216q22 0 39 15.5t18 37.5q0 13 -2 19l-117 489q75 54 122.5 135.5t57.5 180.5l54 483q24 214 -58.5 323t-296.5 109h-499q-34 0 -55.5 -20
t-24.5 -52l-174 -1654q-3 -30 14 -48t51 -18h197zM762 879q22 0 39 15t18 38l43 405l-59 2l-49 -460h8zM639 1524l190 -2q62 0 98.5 -40.5t30.5 -101.5l-47 -448q-6 -60 -51.5 -103t-105.5 -43h-193z" />
    <glyph glyph-name="S" unicode="S" horiz-adv-x="1423" 
d="M698 -217q-135 0 -259 53.5t-210.5 141.5t-131.5 206.5t-31 241.5l2 4q9 86 60.5 130.5t133.5 41.5q33 0 89.5 -1t58.5 -1q61 0 104.5 -29t60.5 -79q-2 -20 12 -39t32 -32.5t33 -34.5t14 -44q47 0 76.5 30t35.5 85q1 4 1 9.5t-0.5 14t-0.5 15.5q0 16 -2 24q-24 10 -86 23
q-250 58 -362 225q-54 46 -91 106.5t-53.5 112t-23.5 117t-6 102t4 86.5q20 280 207.5 449.5t474.5 169.5q139 0 250 -56.5t180 -156.5q90 -76 132.5 -191t29.5 -250v-4q-9 -68 -59 -115t-116 -48h-190q-44 1 -82 18.5t-63.5 45t-43 60t-25 63.5t-5.5 56l2 17
q-53 -2 -84 -37.5t-37 -102.5q-4 -25 -4 -45q4 -20 6 -28q43 -17 88 -27q288 -72 395 -233q85 -71 123 -175.5t33 -252.5q-3 -43 -6 -66q-29 -277 -208.5 -438.5t-457.5 -161.5zM627 -33q235 0 386 132.5t177 375.5q4 36 4 57q4 114 -19.5 196t-78.5 138t-128 91t-182 63
q-124 32 -173.5 78.5t-61.5 140.5q-2 24 2 64q12 107 73.5 169t155.5 62q17 0 49 -4q61 -13 89 -60t22 -108l-2 -19q-4 -29 12 -48t45 -21h179q29 -2 52 19t29 55v2q14 134 -38 242t-155 167.5t-235 59.5q-245 0 -402.5 -140t-176.5 -385q-2 -36 -3 -59t0.5 -65.5t7 -73.5
t17.5 -73.5t31 -74.5t49 -68.5t69.5 -63.5t95 -51.5t122.5 -39.5q121 -27 175 -72.5t58 -144.5q0 -35 -2 -51q-10 -100 -73 -153.5t-142 -53.5q-71 0 -120.5 44t-42.5 116q4 46 -21 72t-70 26q-3 0 -60 1t-89 1q-39 2 -62 -13.5t-30 -68.5l-2 -2q-12 -111 21 -200
t99.5 -144.5t155.5 -85t193 -29.5z" />
    <glyph glyph-name="T" unicode="T" horiz-adv-x="1222" 
d="M504 -184q-49 0 -86 28.5t-49 73.5q-44 18 -69 60t-19 92l131 1247h-64q-57 0 -96.5 28.5t-50.5 75.5q-43 15 -66.5 53.5t-17.5 88.5l16 163q8 68 60 114t122 46h805q58 0 98 -28t52 -74q45 -17 67.5 -57t16.5 -93l-17 -164q-7 -67 -59.5 -110t-124.5 -43h-143
l-142 -1340q-6 -66 -57 -113.5t-117 -47.5h-190zM621 0q28 0 49 20.5t24 49.5l150 1431h235q32 0 56 16t28 46l17 163q3 35 -17 51.5t-53 16.5h-805q-32 0 -54.5 -19.5t-25.5 -48.5l-16 -163q-3 -29 14.5 -45.5t50.5 -16.5h248l-149 -1431q-3 -29 14.5 -49.5t42.5 -20.5h191
z" />
    <glyph glyph-name="U" unicode="U" horiz-adv-x="1536" 
d="M705 -190q-136 0 -251.5 58t-189.5 163q-84 80 -125 168q-67 131 -51 299l123 1179q11 101 68.5 154t158.5 53h92q67 0 94 -7t52 -32q26 -18 39 -63q16 -4 45 -29q53 -42 41 -166l-119 -1167q0 -3 -0.5 -8t-0.5 -8.5t1 -6.5q4 -2 14 -2h41q46 0 81.5 34t41.5 83l125 1167
q11 100 68 152.5t157 52.5h101q155 0 184 -108q103 -40 88 -191l-129 -1179q-15 -158 -108.5 -295.5t-241.5 -219.5q-150 -81 -307 -81h-92zM723 -6q131 0 260 69q123 68 203.5 184t93.5 251l129 1179q6 68 -17.5 91.5t-88.5 23.5h-101q-59 0 -89 -24t-36 -89l-125 -1167
q-9 -86 -74.5 -147.5t-150.5 -61.5h-41q-82 0 -134.5 61.5t-43.5 147.5l119 1167q6 79 -15 95q-13 13 -25 15.5t-65 2.5h-92q-60 0 -90.5 -25t-36.5 -90l-123 -1179q-15 -136 43 -252q54 -117 162.5 -184.5t245.5 -67.5h92z" />
    <glyph glyph-name="V" unicode="V" horiz-adv-x="1492" 
d="M569 -184q-58 0 -103 30t-60 80q-38 19 -63 51.5t-28 71.5l-159 1659q-8 71 44 123.5t128 52.5h217q47 0 80.5 -26t48.5 -74q34 -10 57 -41.5t31 -75.5l47 -543l182 631q45 129 170 129h219q55 0 94 -28.5t48 -73.5q52 -19 74 -65t3 -101l-512 -1659q-19 -61 -74.5 -101
t-121.5 -40h-322zM817 0q33 0 62.5 19.5t38.5 48.5l512 1658q9 27 -9 46.5t-51 19.5h-219q-31 0 -46.5 -13t-23.5 -42l-376 -1305l-115 1274q0 42 -15 64t-40 22h-218q-32 0 -52 -19t-17 -47l160 -1658q3 -29 28.5 -48.5t59.5 -19.5h321z" />
    <glyph glyph-name="W" unicode="W" horiz-adv-x="1984" 
d="M520 -184q-52 0 -93.5 30t-55.5 76q-73 33 -86 111l-129 1687q-3 65 47.5 114.5t120.5 49.5h184q52 0 93 -29.5t56 -76.5q79 -39 88 -125l9 -160l53 225q20 78 76.5 122t138.5 44h156q134 0 168 -108q84 -36 90 -140l10 -163l63 264q17 64 70 105.5t115 41.5h184
q49 0 87.5 -29.5t49.5 -72.5q46 -19 70 -60t12 -86l-440 -1659q-19 -72 -71 -116.5t-118 -44.5h-256q-52 0 -93 29.5t-56 76.5q-31 14 -54 41t-30 60l-14 -48q-22 -71 -74.5 -115t-116.5 -44h-254zM700 0q31 0 57 23t38 61l223 852l49 -873q3 -26 23.5 -44.5t48.5 -18.5h256
q31 0 56.5 23t35.5 61l438 1657q3 16 -15 33.5t-42 17.5h-185q-29 0 -53 -20t-33 -50l-272 -1165l-63 1155q-6 80 -95 80h-155q-94 0 -115 -86l-268 -1149l-58 1172q-3 26 -24 44.5t-49 18.5h-185q-29 0 -48.5 -19t-16.5 -44l129 -1666q-1 -25 20 -44t49 -19h254z" />
    <glyph glyph-name="X" unicode="X" horiz-adv-x="1460" 
d="M287 -184q-2 0 -23 -1t-34 0t-36.5 3t-39.5 9t-33.5 17.5t-27.5 29t-13 42.5q-92 26 -82 133q3 31 27 78q18 63 411 803l-225 731q-11 41 -8 74q9 76 68.5 112.5t172.5 36.5h138q134 0 170 -108q68 -26 90 -113l2 -18l49 110q32 66 81 97.5t122 31.5h135q32 0 50.5 -0.5
t50.5 -6t51.5 -15.5t36.5 -31t20 -51q92 -29 82 -131q-7 -57 -49 -131l-375 -680q66 -199 118 -355.5t77 -231t42 -124t22.5 -66t8.5 -26.5q13 -44 10 -86q-2 -21 -9 -39t-14 -30.5t-22 -23t-24 -17t-30 -11.5t-29.5 -7t-33 -3.5t-30.5 -1.5h-32h-28h-125q-126 0 -170 110
q-66 34 -86 105l-30 94l-97 -197q-35 -53 -87.5 -82.5t-110.5 -29.5h-131zM344 0q35 0 64 17t45 42l231 465l147 -456q23 -68 95 -68h125h21q38 0 55 0.5t37 4t28 12.5t10 24q0 22 -8 53q-2 8 -17.5 52t-85 250t-176.5 534l396 717q34 63 37 94q1 13 -1.5 21.5t-12 14
t-17.5 9t-26.5 4.5t-31 1.5t-38.5 0.5h-136q-19 0 -30.5 -1.5t-26.5 -7.5t-27 -20.5t-22 -38.5l-205 -444l-106 444q-10 41 -34 54.5t-63 13.5h-137q-70 0 -102.5 -11.5t-36.5 -45.5q-3 -25 20 -88l222 -717q-372 -697 -431 -834q-12 -21 -16 -47q-1 -12 2 -21t11.5 -14.5
t16 -8.5t22 -4t23 -1.5t25.5 0t23 0.5h131z" />
    <glyph glyph-name="Y" unicode="Y" horiz-adv-x="1347" 
d="M565 -195q-54 0 -94.5 29.5t-54.5 77.5q-44 19 -68 59t-18 88l76 721q-1 9 -3.5 24.5t-3.5 20.5l-231 830q-13 53 -10 96q15 139 200 139h158q130 0 160 -106q67 -24 88 -105q1 -6 5.5 -24t8.5 -39t8 -43l86 199q25 57 71 87.5t106 30.5h161q75 0 118.5 -26.5t49.5 -77.5
q96 -30 84 -135q-3 -38 -24 -86v-2l-383 -779q-20 -35 -35 -92l-76 -725q-7 -67 -63 -114.5t-127 -47.5h-189zM680 -10q33 0 60 20t30 49l76 729q11 58 43 123l383 777q12 28 16 55q4 35 -18.5 45t-67.5 10h-162q-60 0 -82 -55l-239 -553l-129 553q-8 33 -28.5 44t-53.5 11
h-158q-50 0 -73.5 -9.5t-26.5 -37.5q0 -36 8 -63l215 -777q22 -65 25 -123l-76 -729q-3 -29 18 -49t52 -20h188z" />
    <glyph glyph-name="Z" unicode="Z" horiz-adv-x="1357" 
d="M274 -186q-72 0 -118 28.5t-60 81.5q-100 43 -88 160q5 47 39 123v2l563 1087l-186 2q-48 0 -87 30t-54 75q-42 19 -67 62.5t-21 93.5l18 170q9 65 61.5 110t118.5 45h795q51 0 88.5 -28t52.5 -76q48 -21 73.5 -71.5t18.5 -115.5q-3 -37 -24 -84l-547 -1099h221
q52 0 86 -26.5t45 -74.5q44 -14 67.5 -54.5t20.5 -100.5v-2l-12 -152q-8 -77 -60 -132.5t-118 -55.5zM1026 -4q26 0 50 28t28 66l12 152q6 75 -55 75h-486l15 29l641 1286q13 30 16 54q5 44 -14 75t-55 31h-795q-30 0 -53.5 -21t-24.5 -51l-18 -161q-2 -29 17.5 -52.5
t47.5 -23.5l449 -4l-10 -27l-662 -1278q-27 -62 -29 -90q-5 -49 24.5 -67.5t76.5 -18.5z" />
    <glyph glyph-name="backslash" unicode="\" horiz-adv-x="911" 
d="M485 -195q-50 0 -92 30.5t-57 76.5q-38 19 -62.5 53.5t-27.5 77.5l-123 1698q-3 69 47.5 120.5t122.5 51.5h192q54 0 95.5 -29.5t56.5 -77.5q38 -19 62 -53.5t28 -77.5l121 -1698q3 -69 -47.5 -120.5t-120.5 -51.5h-195zM606 -10q30 0 49.5 20t16.5 49l-119 1692
q-3 30 -25.5 50t-52.5 20h-192q-30 0 -49.5 -20.5t-16.5 -49.5l121 -1692q3 -29 24.5 -49t49.5 -20h194z" />
    <glyph glyph-name="underscore" unicode="_" horiz-adv-x="1167" 
d="M213 -184q-49 0 -84.5 28t-46.5 72q-42 15 -66 54.5t-20 86.5l20 199q8 63 56.5 107.5t109.5 44.5h860q46 0 81 -28.5t46 -72.5q42 -14 66 -54t20 -89l-22 -199q-6 -60 -53 -104.5t-107 -44.5h-860zM999 0q22 0 40.5 17t19.5 40l20 199q3 25 -11 42t-36 17h-860
q-23 0 -41.5 -17t-21.5 -42l-21 -199q-2 -23 13 -40t38 -17h860z" />
    <glyph glyph-name="a" unicode="a" horiz-adv-x="1492" 
d="M-14 74l512 1667q19 61 74.5 101t121.5 40h324q30 0 60.5 -6.5t63.5 -23.5t59 -42.5t45 -67t24 -93.5l162 -1661q6 -70 -46 -120t-129 -52q-89 1 -155 -0.5t-113.5 6.5t-78.5 19t-50 35t-28 54.5t-13 79.5l-18 152h-144l-63 -219q-21 -61 -61.5 -88.5t-108.5 -32.5
q-72 -6 -125.5 -8t-109 1t-92.5 13t-68.5 29t-45 48t-14 71.5t16.5 97.5zM350 -2q31 0 47 13t25 42l86 293h364l35 -293q0 -55 60 -55h217q33 0 54 18.5t19 46.5l-161 1659q-3 29 -28.5 48.5t-59.5 19.5h-324q-32 0 -60.5 -19.5t-37.5 -48.5l-512 -1659q-9 -28 8 -46.5
t51 -18.5h217zM580 627l231 841l57 -843z" />
    <glyph glyph-name="b" unicode="b" horiz-adv-x="1439" 
d="M342 -182q-72 1 -126 19.5t-82.5 49t-47 70.5t-19.5 82t1 84l161 1550q24 211 234 211l452 -2q79 0 152 -18t137.5 -53.5t113.5 -95t73 -136.5q58 -191 41 -362q-27 -257 -121 -392q125 -128 94 -450q-31 -290 -180 -425.5t-434 -133.5zM649 555q4 0 6 2q-2 -2 -6 -2z
M545 266q-32 0 -37 4t-2 27l31 332q1 13 3 36q2 27 3 37.5t4 21t7.5 12.5t12.5 3q39 4 105 4q123 0 179.5 -44.5t55.5 -161.5q0 -46 -2 -66q-5 -43 -16 -76t-23.5 -54.5t-35 -36.5t-38.5 -22.5t-46.5 -11t-47 -4t-50.5 -0.5h-13h-90zM694 358q72 1 91.5 21t27.5 92v57
q1 5 1 14t1 13q-40 4 -72 4h-30q0 -3 -1 -10.5t-1 -11.5zM717 0q85 -1 151 9.5t130.5 41t109 81.5t77 135.5t44.5 199.5q15 135 -3 229.5t-55 139.5t-90 59q75 49 116.5 150.5t59.5 263.5q18 204 -32 317q-21 47 -58.5 80.5t-83.5 51t-89.5 25t-88.5 7.5l-452 2
q-40 0 -66.5 -9.5t-39.5 -29t-17.5 -36.5t-7.5 -44l-162 -1550q-1 -24 -3.5 -51t15.5 -48.5t57 -21.5zM596 1010q-25 0 -28.5 3.5t-0.5 26.5l41 433q3 37 6.5 45t18.5 8h20h80q39 0 63 -1.5t50 -7t39.5 -16t26.5 -28.5t17 -45.5t4 -65.5t-5 -90q-8 -78 -20.5 -124t-39 -79.5
t-69.5 -46t-113 -12.5h-90zM756 1104q40 6 54.5 38t25.5 130q10 74 6 102.5t-31 28.5h-27z" />
    <glyph glyph-name="c" unicode="c" horiz-adv-x="1437" 
d="M670 -203q-133 0 -246.5 46t-196 130.5t-121.5 216.5t-22 293l88 848q17 157 106.5 291t227.5 209q133 80 291 80h82q174 0 331.5 -108t212.5 -273q55 -170 43 -291q-6 -69 -60.5 -121.5t-121.5 -52.5h-174q-54 0 -96.5 13t-67 34t-42.5 49t-23.5 57t-8.5 58t2 53l3 8v13
h-11h-10q-43 0 -77.5 -32t-37.5 -75v-2l-88 -835q0 -19 2 -27h9h10q43 0 75.5 34t38.5 85q6 69 62 118.5t125 49.5h174q35 0 76.5 -20t78.5 -52.5t59.5 -83t16.5 -104.5l-2 -15q-29 -276 -221.5 -435t-486.5 -159zM678 -18q125 0 248 69q115 68 190 183t88 249l2 15
q3 32 -15.5 53.5t-49.5 21.5h-174q-32 0 -57.5 -21.5t-28.5 -53.5q-9 -88 -71.5 -149.5t-145.5 -61.5h-11q-77 0 -130 63.5t-44 147.5l88 835q6 83 71.5 142t145.5 59h11q85 0 134 -55.5t40 -141.5l-2 -8q-3 -31 18 -55.5t51 -24.5h174q29 0 53.5 24.5t26.5 55.5v2
q15 134 -35 246q-51 113 -153 177.5t-232 64.5h-82q-132 0 -243 -66q-117 -64 -191.5 -176.5t-89.5 -245.5l-88 -848q-15 -136 37 -250q50 -116 151.5 -183.5t231.5 -67.5h82z" />
    <glyph glyph-name="d" unicode="d" 
d="M348 -184q-72 0 -131 27t-92.5 67.5t-50 82.5t-13.5 77l172 1636q8 71 63 122.5t124 51.5h514q143 0 250.5 -45t174.5 -128.5t106 -202t44.5 -265t-10.5 -317.5q-6 -57 -26 -223t-31 -277q-19 -174 -110.5 -322t-221.5 -211q-145 -71 -287 -71zM752 2q116 0 241 61
q76 37 137 112t95 162.5t43 176.5q11 112 31.5 279.5t25.5 220.5q24 205 22.5 336.5t-34.5 203.5q-53 108 -156.5 171t-232.5 63h-514q-31 0 -56 -25t-28 -57l-172 -1636q-3 -27 14.5 -48.5t44.5 -21.5zM506 301q-22 0 -19 21l119 1130q2 14 14 25.5t27 11.5h215
q79 0 129.5 -57t42.5 -136l-82 -780q-9 -87 -79.5 -151t-157.5 -64h-209zM725 393q50 0 90.5 37t44.5 86l82 780v9h-8h-160l-94 -912h45z" />
    <glyph glyph-name="e" unicode="e" horiz-adv-x="1302" 
d="M289 -178q-63 0 -119 44t-85 102.5t-24 105.5l175 1655q7 67 58 112t120 45h753q34 0 75.5 -21t77.5 -54.5t58 -80.5t17 -94l-19 -176q-8 -68 -59.5 -115t-118.5 -47h-424l-22 -219h206q35 0 74 -15t75.5 -44t57.5 -79t15 -112l-19 -178q-8 -68 -56.5 -111.5
t-115.5 -43.5h-299l-10 -86h332q37 0 77 -14t77.5 -41.5t58.5 -78.5t14 -116l-18 -178q-6 -66 -58.5 -113t-120.5 -47h-753zM969 6q29 0 52 20t26 48l18 178q3 28 -16 46.5t-48 18.5h-516l39 363h391q29 0 48 17t22 46l19 179q3 30 -12 47.5t-44 17.5h-391l51 496h516
q29 0 52 20t26 49l19 177q3 29 -15.5 47t-48.5 18h-754q-31 0 -51.5 -18t-23.5 -47l-174 -1655q-3 -28 14 -48t47 -20h754z" />
    <glyph glyph-name="f" unicode="f" horiz-adv-x="1333" 
d="M291 -176q-56 0 -103 26.5t-74.5 66t-41.5 81t-11 74.5l175 1650q6 64 58.5 109t121.5 45h758q52 0 94.5 -18t68 -45.5t42.5 -61.5t23 -65t3 -56l-19 -180q-7 -66 -60.5 -113t-121.5 -47h-428l-24 -221h213q57 0 103.5 -26.5t72.5 -65.5t39 -80.5t10 -75.5l-21 -180
q-6 -65 -55.5 -108.5t-116.5 -43.5h-305l-55 -509q-6 -64 -59 -110t-119 -46h-168zM387 8q29 0 51 19.5t25 44.5l63 602h398q30 0 49 16.5t22 42.5l19 180q3 28 -12.5 46t-45.5 18h-397l51 498h520q30 0 54.5 20t27.5 47l19 180q3 26 -16.5 44t-51.5 18h-757q-31 0 -53 -18
t-25 -44l-174 -1650q-3 -29 15.5 -46.5t49.5 -17.5h168z" />
    <glyph glyph-name="g" unicode="g" horiz-adv-x="1480" 
d="M1425 387q-17 -165 -100 -294.5t-200.5 -201t-260.5 -94t-277.5 9.5t-254 127t-187.5 242v2q-63 134 -47 299l90 850q15 158 105 292t235 214h2q140 76 297 76h80q164 1 299.5 -71t209 -201.5t57.5 -284.5q-6 -42 -26.5 -72.5t-53.5 -47t-70 -26t-84 -11t-87.5 -0.5
t-87.5 3q-23 1 -34 2q-42 3 -64 21t-26.5 41.5t-8.5 46t-20 38t-51 15.5q-55 0 -94.5 -32t-44.5 -79l-31 -311q1 4 3.5 25t5.5 42t15.5 47.5t30.5 46t53 34t81 14.5l338 -2q131 0 197 -72t63 -213zM870 647q-46 -4 -82.5 -1.5t-62.5 19.5t-39.5 49.5t-12.5 89t17 136.5
l-51 -506q-3 -9 0 -20q54 -22 100.5 -14t79 36.5t35.5 61.5zM1307 997q2 26 -14 45t-42 19h-399q-25 0 -47 -19.5t-23 -44.5l-20 -190q-2 -20 12.5 -36.5t34.5 -16.5h164l-27 -265q-11 -100 -84.5 -154t-165.5 -54h-8q-85 0 -139 61.5t-45 146.5l88 844q9 84 74.5 140.5
t150.5 56.5h10q93 0 142.5 -33t52.5 -123q0 -21 14.5 -33t38.5 -12h219q20 0 33.5 13t15.5 32q12 139 -49 242q-59 98 -164 150.5t-229 50.5h-82q-132 0 -254 -64q-120 -67 -195.5 -179t-88.5 -247l-91 -850q-15 -135 39 -254q56 -118 162 -186t238 -68h82q128 0 252 70
q120 70 197.5 187t90.5 253z" />
    <glyph glyph-name="h" unicode="h" horiz-adv-x="1607" 
d="M475 -184q66 0 118 47t58 114l56 517l208 2l-45 -426q-12 -116 48.5 -185t181.5 -69h184q66 0 120 47.5t60 113.5l174 1653q6 57 -16.5 107t-59.5 80.5t-77.5 47.5t-75.5 17h-184q-67 0 -121 -47.5t-60 -112.5l-67 -637l-209 -2l57 547q7 69 -14 121.5t-59.5 79t-77 39
t-74.5 12.5h-190q-63 0 -115.5 -48.5t-58.5 -111.5l-175 -1652q-4 -35 7 -77t36 -82.5t72.5 -67.5t108.5 -27h190zM211 0q-25 0 -42.5 20.5t-14.5 49.5l174 1652q3 26 24.5 47t46.5 21h191q28 0 46 -19.5t15 -48.5l-78 -731l486 2l78 729q3 27 25.5 47.5t51.5 20.5h185
q28 0 48 -21t17 -47l-174 -1652q-3 -29 -27.5 -49.5t-52.5 -20.5h-184q-29 0 -47.5 20.5t-15.5 49.5l63 610l-485 -2l-64 -608q-3 -29 -25.5 -49.5t-50.5 -20.5h-190z" />
    <glyph glyph-name="i" unicode="i" horiz-adv-x="792" 
d="M287 -190q-33 0 -74 19t-77.5 51t-58.5 81t-16 102l175 1657q8 68 58.5 115t117.5 47h188q25 0 56 -10.5t63 -32t57 -51t38.5 -71.5t8.5 -89l-174 -1657q-6 -65 -58 -113t-116 -48h-188zM401 -6q26 0 48.5 20.5t25.5 48.5l174 1657q3 29 -14.5 49.5t-44.5 20.5h-189
q-29 0 -49.5 -20t-23.5 -50l-174 -1657q-3 -28 13.5 -48.5t45.5 -20.5h188z" />
    <glyph glyph-name="j" unicode="j" horiz-adv-x="1304" 
d="M610 -242q-126 0 -244 55t-201 142.5t-127.5 203.5t-31.5 232q6 67 62 116.5t125 49.5h163q37 0 61.5 -6t51.5 -25.5t41.5 -64t15.5 -113.5q65 -19 95.5 -1.5t33.5 56.5l142 1338q6 64 59 108.5t121 44.5h158q27 0 57.5 -8t63 -27t57.5 -46.5t38.5 -70t8.5 -93.5
l-141 -1350q-25 -239 -196 -390t-413 -151zM539 -57q89 0 172.5 28t154 81t118.5 141t60 198l142 1350q3 24 -16.5 42.5t-45.5 18.5h-157q-30 0 -52.5 -18t-25.5 -43l-141 -1338q-8 -84 -60.5 -120.5t-128.5 -36.5q-69 0 -106 39t-45 102q-3 39 -17 58.5t-45 19.5h-164
q-28 0 -54.5 -21t-29.5 -53q-9 -85 10.5 -158.5t61.5 -126t100.5 -90t127 -55.5t141.5 -18z" />
    <glyph glyph-name="k" unicode="k" horiz-adv-x="1404" 
d="M281 -184q-56 0 -102 26.5t-72 65t-38.5 78.5t-9.5 71l177 1672q6 63 56.5 109t113.5 46h186q44 0 73 -9.5t47.5 -27.5t29 -54t14.5 -78t6 -111l121 186q28 44 72 69t94 25h194q35 0 65.5 -6t62.5 -23t55 -43.5t38.5 -71t16.5 -102.5q2 -27 -25 -75l-434 -676l350 -834
q15 -41 12 -86q-7 -66 -59.5 -108.5t-126.5 -42.5h-207q-41 0 -77.5 16t-59.5 37t-43 51.5t-29.5 50t-17.5 41.5l-102 258l-29 -305q-7 -60 -57 -104.5t-109 -44.5h-186zM393 0q22 0 42.5 17.5t21.5 39.5l49 480l98 151l246 -635q9 -23 28 -38t40 -15h206q36 0 59.5 16
t24.5 43q4 29 -10 56l-362 864l452 707q16 21 19 45q3 27 -17.5 44t-56.5 17h-195q-55 0 -82 -53l-391 -664l68 654q3 23 -13 43t-38 20h-187q-24 0 -44 -19t-23 -44l-176 -1672q-2 -22 14.5 -39.5t40.5 -17.5h186z" />
    <glyph glyph-name="l" unicode="l" horiz-adv-x="1159" 
d="M281 -184q-51 0 -92.5 17.5t-66 45t-40.5 61t-21 64.5t-2 57l177 1676q7 64 58 110.5t114 46.5h188q27 0 58 -8t63.5 -27.5t57 -47t38 -71t8.5 -95.5l-129 -1239l205 2q35 0 74 -14.5t75 -42.5t56 -77.5t14 -111.5l-18 -193q-8 -65 -56 -109t-114 -44h-647zM854 0
q29 0 47.5 18t20.5 43l20 193q6 61 -55 61l-389 -2l147 1424q3 27 -13.5 46t-43.5 19h-189q-25 0 -46.5 -19t-24.5 -46l-176 -1676q-2 -25 13.5 -43t41.5 -18h647z" />
    <glyph glyph-name="m" unicode="m" horiz-adv-x="1955" 
d="M295 -184q-52 0 -95 19t-69.5 47.5t-43.5 63.5t-23 66.5t-3 57.5l175 1654q6 66 60.5 112t123.5 46h319q69 0 134 -27.5t113 -85.5t56 -135l23 -286l113 381q10 28 24 51t30 38.5t32 27.5t35 18.5t33.5 11t32.5 5.5t27.5 1.5t23 0t14.5 -0.5h327q34 0 64.5 -5t65 -21.5
t58 -42.5t36.5 -72.5t6 -108.5l-175 -1655q-6 -69 -57.5 -115t-122.5 -46h-180q-62 0 -121 36t-82 107q-32 -96 -92 -117t-260 -25q-6 0 -9.5 -0.5t-9 -0.5h-10.5q-59 5 -120 47t-95 108q-6 -63 -57.5 -109t-114.5 -46h-186zM408 0q26 0 47 20.5t24 45.5l107 1277l127 -1263
q1 -36 25.5 -56.5t60.5 -23.5h176q81 6 104 70l400 1273l-168 -1265q-3 -34 13.5 -56t53.5 -22h181q32 0 54 19.5t25 50.5l174 1654q3 29 -15 47.5t-50 18.5h-328h-15h-20t-20 -1.5t-22.5 -5t-21 -9.5t-21.5 -14.5t-17.5 -21.5t-15.5 -30l-318 -1069l-80 1069
q-3 24 -15 40.5t-24.5 24.5t-34.5 12t-32.5 4.5t-32.5 0.5h-319q-30 0 -54.5 -19t-27.5 -47l-174 -1654q-3 -25 17.5 -47.5t49.5 -22.5h187z" />
    <glyph glyph-name="n" unicode="n" horiz-adv-x="1613" 
d="M1085 -184q-216 -2 -278 219l-109 414l-41 -467v-2q-8 -69 -58.5 -115.5t-119.5 -46.5h-188q-88 0 -164.5 75.5t-65.5 178.5l175 1657q7 67 59.5 114t120.5 47h241q43 0 75.5 -3.5t71 -17t65.5 -36.5t49 -65t30 -99l72 -305l31 362v3q8 68 58.5 114.5t117.5 46.5h194
q28 0 59.5 -8.5t63.5 -27.5t56.5 -45.5t38 -66.5t8.5 -87l-174 -1657q-8 -77 -58 -128.5t-119 -51.5zM1223 2q29 0 50 24t25 64l175 1657q2 16 -17 33.5t-43 17.5h-194q-29 0 -51 -20t-25 -49l-96 -1143l-271 1140q-19 47 -44.5 59.5t-82.5 12.5h-241q-30 0 -53.5 -20
t-26.5 -49l-174 -1657q-3 -29 15.5 -49.5t47.5 -20.5h189q30 0 52 20t25 50l103 1183l311 -1187q8 -32 44 -50t71 -18z" />
    <glyph glyph-name="o" unicode="o" 
d="M690 -203q-124 0 -242 59t-202 153.5t-130 220.5t-32 253l88 844q13 121 70 229.5t142.5 186t198.5 123t234 45.5h84q123 0 240.5 -58.5t201 -152t129.5 -217t33 -246.5l-88 -846q-16 -158 -109.5 -295.5t-235.5 -218t-296 -80.5h-86zM702 -18q127 0 247 67.5t200 183.5
t94 250l86 846q23 209 -103.5 349.5t-332.5 140.5h-84q-136 0 -255.5 -64.5t-197 -177.5t-92.5 -250l-88 -844q-15 -144 39.5 -259.5t160.5 -178.5t240 -63h86zM680 285q-84 0 -137.5 62t-44.5 147l86 837q9 84 75 140.5t152 56.5h8q85 0 137 -56.5t43 -140.5l-86 -837
q-9 -85 -74.5 -147t-148.5 -62h-10zM700 377q43 0 79 35t42 82l86 837q2 4 2 10q-6 2 -18 2h-8q-47 0 -83 -30t-40 -74l-88 -838q-3 -13 0 -22q6 -2 18 -2h10z" />
    <glyph glyph-name="p" unicode="p" horiz-adv-x="1402" 
d="M293 -182q-59 0 -107 26.5t-75.5 66.5t-40.5 81.5t-9 75.5l175 1654q8 71 59 117.5t123 46.5h500q167 0 293 -79.5t186 -221t39 -315.5l-52 -484q-15 -139 -91 -251.5t-194.5 -176t-256.5 -63.5l-133 2l-35 -322q-7 -67 -61 -112t-124 -45h-196zM416 2q32 0 56.5 18.5
t27.5 47.5l43 413l227 -2q169 0 294 112.5t144 287.5l54 483q24 214 -58.5 323t-296.5 109h-499q-34 0 -55.5 -20t-24.5 -52l-174 -1654q-3 -30 14 -48t51 -18h197zM762 881q22 0 39 15t18 38l43 405l-59 2l-49 -460h8zM639 1526l190 -2q62 0 98.5 -40.5t30.5 -101.5
l-47 -448q-6 -60 -51.5 -103t-105.5 -43h-193z" />
    <glyph glyph-name="q" unicode="q" 
d="M895 -541q-75 0 -121 56q-35 41 -82 97l-22 25q3 -4 22 -30l-207 278q-105 19 -185 76t-126.5 137.5t-65.5 177.5t-8 201l90 844q17 162 108.5 296t233.5 211t304 77h84q123 0 240 -58.5t200.5 -152t129 -217t32.5 -246.5l-86 -846q-15 -140 -92.5 -265.5t-198.5 -211.5
l49 -64q31 -56 25 -110q-3 -39 -24 -75t-54 -60l-135 -103q-53 -37 -111 -37zM823 -356q30 0 56 20l131 98q31 21 34 64q3 37 -20 63l-98 134q134 62 226.5 184.5t107.5 269.5l88 846q11 103 -18 194.5t-88 156t-145.5 101.5t-187.5 37h-84q-208 0 -364 -141t-178 -350
l-90 -844q-19 -191 70 -327.5t255 -161.5h-2l246 -314q21 -30 61 -30zM696 279q-84 0 -137.5 61.5t-44.5 146.5l88 838q9 84 74.5 140.5t150.5 56.5h9q85 0 138 -56.5t44 -140.5l-88 -838q-9 -85 -74.5 -146.5t-148.5 -61.5h-11zM717 371q43 0 80 34.5t41 81.5l88 838
q0 8 2 10q-6 2 -19 2h-8q-48 0 -84.5 -30t-40.5 -74l-88 -838v-22q6 -2 19 -2h10z" />
    <glyph glyph-name="r" unicode="r" horiz-adv-x="1425" 
d="M293 -184q-62 0 -111 26.5t-75 66.5t-38 81.5t-8 75.5l175 1654q8 71 59 117.5t123 46.5h500q167 0 293 -79.5t186 -221t39 -315.5l-52 -484q-22 -206 -170 -342l105 -434q6 -22 2 -47q-6 -60 -52 -102.5t-106 -42.5h-215q-56 0 -103 23t-75.5 59.5t-45.5 71.5t-24 67
l-12 67l-14 -131q-7 -67 -61 -112t-124 -45h-196zM416 0q32 0 56.5 18.5t27.5 47.5l43 413l172 -2l73 -401q5 -34 28.5 -55t57.5 -21h216q22 0 39 15.5t18 37.5q0 13 -2 19l-117 489q75 54 122.5 135.5t57.5 180.5l54 483q24 214 -58.5 323t-296.5 109h-499q-34 0 -55.5 -20
t-24.5 -52l-174 -1654q-3 -30 14 -48t51 -18h197zM762 879q22 0 39 15t18 38l43 405l-59 2l-49 -460h8zM639 1524l190 -2q62 0 98.5 -40.5t30.5 -101.5l-47 -448q-6 -60 -51.5 -103t-105.5 -43h-193z" />
    <glyph glyph-name="s" unicode="s" horiz-adv-x="1423" 
d="M698 -217q-194 0 -347.5 90.5t-228.5 238t-56 314.5l2 4q9 86 60.5 130.5t133.5 41.5q33 0 89.5 -1t58.5 -1q61 0 104.5 -29t60.5 -79q4 -17 8 -40.5t7.5 -36.5t11 -28.5t23.5 -26t41 -18.5q47 0 76.5 30t35.5 85q1 4 1 9.5t-0.5 14t-0.5 15.5q0 16 -2 24q-24 10 -86 23
q-260 60 -406 265t-126 484q20 280 207.5 449.5t474.5 169.5q123 0 239 -57t197.5 -148t125 -210.5t30.5 -238.5v-4q-9 -68 -59 -115t-116 -48h-190q-60 3 -104 22.5t-66.5 45t-34.5 59.5t-14 60.5t0 55.5l2 17q-53 -2 -84 -37.5t-37 -102.5q-4 -25 -4 -45q4 -20 6 -28
q43 -17 88 -27q262 -66 410 -237.5t141 -423.5q-3 -43 -6 -66q-29 -277 -208.5 -438.5t-457.5 -161.5zM627 -33q235 0 386 132.5t177 375.5q4 36 4 57q4 114 -19.5 196t-78.5 138t-128 91t-182 63q-124 32 -173.5 78.5t-61.5 140.5q-2 24 2 64q12 107 73.5 169t155.5 62
q17 0 49 -4q61 -13 89 -60t22 -108l-2 -19q-4 -29 12 -48t45 -21h179q29 -2 52 19t29 55v2q14 134 -38 242t-155 167.5t-235 59.5q-245 0 -402.5 -140t-176.5 -385q-2 -36 -3 -59t0.5 -65.5t7 -73.5t17.5 -73.5t31 -74.5t49 -68.5t69.5 -63.5t95 -51.5t122.5 -39.5
q121 -27 175 -72.5t58 -144.5q0 -35 -2 -51q-10 -100 -73 -153.5t-142 -53.5q-71 0 -120.5 44t-42.5 116q4 46 -21 72t-70 26q-3 0 -60 1t-89 1q-39 2 -62 -13.5t-30 -68.5l-2 -2q-12 -111 21 -200t99.5 -144.5t155.5 -85t193 -29.5z" />
    <glyph glyph-name="t" unicode="t" horiz-adv-x="1222" 
d="M504 -184q-73 0 -128.5 46t-77.5 103.5t-17 104.5l131 1247h-64q-61 0 -109.5 27t-74.5 66.5t-38.5 80t-8.5 72.5l16 163q8 68 60 114t122 46h805q32 0 65 -8.5t66 -28t58 -48t38 -72t7 -95.5l-17 -164q-7 -67 -59.5 -110t-124.5 -43h-143l-142 -1340q-6 -66 -57 -113.5
t-117 -47.5h-190zM621 0q28 0 49 20.5t24 49.5l150 1431h235q32 0 56 16t28 46l17 163q3 35 -17 51.5t-53 16.5h-805q-32 0 -54.5 -19.5t-25.5 -48.5l-16 -163q-3 -29 14.5 -45.5t50.5 -16.5h248l-149 -1431q-3 -29 14.5 -49.5t42.5 -20.5h191z" />
    <glyph glyph-name="u" unicode="u" horiz-adv-x="1536" 
d="M88 498l123 1179q11 101 68.5 154t158.5 53h92q140 0 211.5 -79t59.5 -218l-119 -1167q0 -3 -0.5 -8t-0.5 -8.5t1 -6.5q4 -2 14 -2h41q46 0 82.5 34t40.5 83l125 1167q11 100 68 152.5t157 52.5h101q55 0 106 -19.5t91 -55.5t61 -94.5t14 -129.5l-127 -1179
q-18 -161 -112.5 -302t-239.5 -213q-128 -63 -261 -81t-248 5.5t-215.5 84.5t-169 148.5t-102 204.5t-20.5 245zM723 -6q134 0 260 69q124 68 204 184t93 251l129 1179q7 68 -16.5 91.5t-89.5 23.5h-101q-58 0 -88 -24t-37 -89l-125 -1167q-9 -86 -74.5 -147.5t-150.5 -61.5
h-41q-82 0 -134.5 61.5t-43.5 147.5l119 1167q9 77 -15 95q-13 13 -25 15.5t-65 2.5h-92q-59 0 -89.5 -24.5t-37.5 -90.5l-123 -1179q-13 -141 43 -252q54 -117 162.5 -184.5t245.5 -67.5h92z" />
    <glyph glyph-name="v" unicode="v" horiz-adv-x="1492" 
d="M569 -184q-54 0 -98.5 17t-71.5 43t-46.5 58.5t-27.5 60.5t-10 54l-159 1659q-8 71 44 123.5t128 52.5h217q31 0 62 -10.5t63 -33t57 -67.5t35 -106l47 -543l182 631q45 129 170 129h219q48 0 92.5 -19.5t78 -56.5t44 -91.5t-9.5 -125.5l-498 -1634q-19 -61 -74.5 -101
t-121.5 -40h-322zM817 0q33 0 62.5 19.5t38.5 48.5l512 1658q9 27 -9 46.5t-51 19.5h-219q-31 0 -46.5 -13t-23.5 -42l-376 -1305l-115 1274q0 42 -15 64t-40 22h-218q-32 0 -52 -19t-17 -47l160 -1658q3 -29 28.5 -48.5t59.5 -19.5h321z" />
    <glyph glyph-name="w" unicode="w" horiz-adv-x="1984" 
d="M520 -184q-202 0 -235 217l-129 1687q-3 65 47.5 114.5t120.5 49.5h184q35 0 73 -14t74 -41t61 -73t29 -103l9 -160l53 225q20 78 76.5 122t138.5 44h156q92 0 172 -67.5t86 -180.5l10 -163l63 264q17 64 70 105.5t115 41.5h184q33 0 75 -17.5t80.5 -48t58 -79.5
t5.5 -103l-440 -1659q-19 -72 -71 -116.5t-118 -44.5h-256q-47 0 -86 15.5t-63 38t-43 52.5t-27.5 54t-13.5 47l-14 -48q-22 -71 -74.5 -115t-116.5 -44h-254zM700 0q31 0 57 23t38 61l223 852l49 -873q3 -26 23.5 -44.5t48.5 -18.5h256q31 0 56.5 23t35.5 61l438 1657
q3 16 -15 33.5t-42 17.5h-185q-29 0 -53 -20t-33 -50l-272 -1165l-63 1155q-6 80 -95 80h-155q-94 0 -115 -86l-268 -1149l-58 1172q-3 26 -24 44.5t-49 18.5h-185q-29 0 -48.5 -19t-16.5 -44l129 -1666q-1 -25 20 -44t49 -19h254z" />
    <glyph glyph-name="x" unicode="x" horiz-adv-x="1460" 
d="M287 -184q-118 -9 -198 29t-98 110t34 172q18 63 411 803l-225 731q-11 41 -8 74q9 76 68.5 112.5t172.5 36.5h138q29 0 50.5 -2.5t51 -11t51 -27.5t41.5 -48.5t32 -78.5t15 -114l70 153q60 129 203 129h135q111 0 197.5 -68t93.5 -167q2 -41 -49 -131l-375 -680
q66 -199 118 -355.5t77 -231t42 -124t22.5 -66t8.5 -26.5q13 -44 10 -86q-3 -26 -12.5 -47t-20 -34.5t-31.5 -23.5t-33.5 -15t-40 -8t-38.5 -3.5t-41 -1t-35 -0.5q-87 -2 -143 4.5t-104 29.5t-79 66.5t-55 114.5l-30 94l-97 -197q-16 -23 -30 -39.5t-34 -28t-32.5 -17.5
t-44 -10.5t-48 -6t-64.5 -5t-76 -5.5zM344 0q35 0 64 17t45 42l231 465l147 -456q23 -68 95 -68h125h21q38 0 55 0.5t37 4t28 12.5t10 24q0 22 -8 53q-2 8 -17.5 52t-85 250t-176.5 534l396 717q34 63 37 94q1 13 -1.5 21.5t-12 14t-17.5 9t-26.5 4.5t-31 1.5t-38.5 0.5
h-136q-19 0 -30.5 -1.5t-26.5 -7.5t-27 -20.5t-22 -38.5l-205 -444l-106 444q-10 41 -34 54.5t-63 13.5h-137q-70 0 -102.5 -11.5t-36.5 -45.5q-3 -25 20 -88l222 -717q-372 -697 -431 -834q-12 -21 -16 -47q-1 -12 2 -21t11.5 -14.5t16 -8.5t22 -4t23 -1.5t25.5 0t23 0.5
h131z" />
    <glyph glyph-name="y" unicode="y" horiz-adv-x="1347" 
d="M565 -195q-54 0 -96.5 13t-67.5 34.5t-42.5 48.5t-22.5 55.5t-8 55.5t2 47l76 721q-1 9 -3.5 24.5t-3.5 20.5l-231 830q-13 53 -10 96q15 139 200 139h158q222 0 248 -211q1 -9 9.5 -44.5t12.5 -61.5l86 199q25 57 71 87.5t106 30.5h161q49 0 93.5 -12t84.5 -37.5
t60.5 -74.5t13.5 -115q-3 -38 -24 -86v-2l-383 -779q-20 -35 -35 -92l-76 -725q-7 -67 -63 -114.5t-127 -47.5h-189zM680 -10q33 0 60 20t30 49l76 729q11 58 43 123l383 777q12 28 16 55q4 35 -18.5 45t-67.5 10h-162q-60 0 -82 -55l-239 -553l-129 553q-8 33 -28.5 44
t-53.5 11h-158q-50 0 -73.5 -9.5t-26.5 -37.5q0 -36 8 -63l215 -777q22 -65 25 -123l-76 -729q-3 -29 18 -49t52 -20h188z" />
    <glyph glyph-name="z" unicode="z" horiz-adv-x="1357" 
d="M326 -188q-75 0 -133 13t-91.5 34.5t-56.5 49.5t-29.5 58t-10 60.5t2.5 56.5q5 47 39 123v2l563 1087l-186 2q-56 1 -100 19.5t-68.5 46.5t-39.5 64t-19.5 68.5t-1.5 62.5l18 170q9 65 61.5 110t118.5 45h795q31 0 64 -9t66.5 -31t58.5 -54.5t38 -83.5t6 -113
q-3 -37 -24 -84l-547 -1099h221q31 0 59 -4.5t62 -20t57 -42t35.5 -75.5t5.5 -114v-2l-12 -152q-8 -77 -60 -132.5t-118 -55.5h-774zM1026 -4q26 0 50 28t28 66l12 152q6 75 -55 75h-486l15 29l641 1286q13 30 16 54q5 44 -14 75t-55 31h-795q-30 0 -53.5 -21t-24.5 -51
l-18 -161q-2 -29 17.5 -52.5t47.5 -23.5l449 -4l-10 -27l-662 -1278q-27 -62 -29 -90q-5 -49 24.5 -67.5t76.5 -18.5z" />
    <glyph glyph-name="braceleft" unicode="{" horiz-adv-x="1142" 
d="M623 -682q-89 0 -162 42t-117 114q-68 54 -103 136.5t-26 178.5q29 162 35 215q25 125 37 254q20 193 6 248q-4 16 -23 49q-97 84 -196 117q-30 12 -49.5 36t-22.5 54q-2 0 -6 1t-6 1q-36 13 -55.5 46t-14.5 73q3 43 31.5 75t71.5 43q115 34 217.5 118.5t130.5 166.5
q21 57 39 225q9 87 15.5 191.5t8.5 165.5l2 61l2 6l6 74q17 158 135.5 268.5t270.5 110.5h692q45 0 82 -28.5t49 -71.5q42 -17 66 -59t20 -91l-20 -203q-7 -69 -61.5 -116t-125.5 -47h-469q-5 -232 -24 -414q-20 -204 -62 -309q-25 -63 -79.5 -120t-129.5 -100
q35 -35 52 -63q93 -78 108 -176q18 -89 -6 -316q-9 -92 -45 -342h369q55 0 95 -29t52 -75q45 -19 69.5 -61.5t18.5 -96.5l-16 -157q-7 -83 -67 -139t-140 -56h-655zM1206 -498q40 0 70.5 29t34.5 74l16 157q3 33 -16.5 55.5t-55.5 22.5h-557q-9 0 -6 17q51 272 76 510
q22 216 8 290q-8 45 -34 81t-76 64t-75.5 39t-84.5 32q-7 3 -10 4q-20 7 -17 30q0 8 7 16t16 11q117 32 207 94.5t120 138.5q36 88 56 283q10 101 16.5 222t8.5 192l1 71v9q-3 12 11 12h559q33 0 56 21t26 51l22 202q2 25 -14 45.5t-39 20.5h-692q-115 0 -202 -83t-101 -204
l-7 -74q-8 -225 -28 -424q-17 -169 -43 -245q-34 -99 -151.5 -204.5t-270.5 -148.5q-25 -6 -25 -30q-4 -22 19 -31q116 -40 221.5 -133.5t130.5 -179.5q18 -66 -4 -281q-10 -94 -28 -210.5t-30.5 -185t-11.5 -69.5l-2 -4q-12 -118 59.5 -202.5t184.5 -84.5h655zM1085 1855
q2 4 2 9h-2v-9z" />
    <glyph glyph-name="braceright" unicode="}" horiz-adv-x="1142" 
d="M-274 -682q-57 0 -99 29.5t-57 79.5q-48 22 -73 69.5t-19 108.5l16 157q7 72 62 121t127 49h469q10 258 28 435q23 226 60 315q49 131 213 213q-17 20 -45 59q-101 82 -119 187q-20 96 2 309q12 131 45 322h-371q-53 0 -92 28.5t-53 75.5q-42 18 -66 59t-20 93l22 202
q6 63 56.5 110.5t111.5 47.5h690q91 0 165 -42t116 -114q68 -52 103 -135t26 -180l-8 -74l-2 -8q-42 -221 -62 -416q-16 -156 -6 -223q6 -53 39 -100q77 -67 168 -95q32 -9 51.5 -33t24.5 -57q4 0 6 -2q38 -11 60 -44t18 -74q-5 -39 -31 -71.5t-65 -45.5
q-105 -33 -215.5 -114t-143.5 -146q-30 -65 -47 -248q-2 -20 -5 -60.5t-5 -60.5q-6 -105 -12 -227t-3 -117v-4q-17 -157 -135.5 -268t-269.5 -111h-655zM309 -498q112 0 200.5 84t100.5 203l2 4q0 1 1 70t6.5 184.5t15.5 210.5q21 203 59 281q41 86 166.5 179.5t251.5 133.5
q24 10 27 31q0 24 -21 30q-145 43 -240 148.5t-108 204.5q-9 79 8 245q9 88 25 194t27 168l12 62l6 74q13 120 -57.5 203.5t-186.5 83.5h-690q-23 0 -43.5 -20.5t-22.5 -45.5l-22 -202q-3 -30 16.5 -51t51.5 -21h561q9 0 6 -12v-9q-55 -258 -78 -485q-20 -199 -4 -283
q15 -76 91 -138.5t185 -94.5q19 -5 19 -27q-3 -24 -25 -30q-37 -12 -50 -16.5t-51 -19t-56.5 -24.5t-50 -28.5t-49.5 -36t-37 -42.5t-29 -53q-33 -82 -54 -290q-11 -106 -18.5 -233.5t-9.5 -201.5l-2 -75q-3 -17 -11 -17h-559q-35 0 -59 -22.5t-27 -55.5l-16 -157
q-4 -45 20 -74t64 -29h655z" />
    <glyph glyph-name="asciitilde" unicode="~" horiz-adv-x="1423" 
d="M924 449q-54 0 -97 12q-95 27 -143 78q-17 15 -45 61q-27 17 -39 31q-23 26 -53 76h-72q2 -2 2 -13q45 0 62.5 -25.5t-9.5 -62.5q-29 -44 -77 -57l-62 -17q-57 -14 -86 -14q-51 8 -84 33q-36 29 -39 72q-21 5 -43 20q-41 35 -41 80q-14 45 -8 113q10 88 62 178l2 2
q88 148 239 194q82 21 158 21q74 0 188 -51q60 -40 95 -101q51 -36 88 -100q0 2 1 5.5t1 4.5q5 56 35.5 95.5t82.5 54.5l58 14q57 14 82 14q21 0 37 -2q7 -1 14 -3.5t11.5 -4.5t10 -6t8 -5.5t6.5 -6.5t5 -6t6 -7l4 -6q19 -18 25 -49q12 -4 22 -9.5t15 -10t12.5 -13
t9.5 -10.5q3 -3 8 -10t12.5 -29.5t4.5 -46.5q6 -58 10 -78q0 -10 -2 -16q-10 -98 -62 -182q-38 -64 -113 -115.5t-169 -79.5q-2 0 -54.5 -11t-78.5 -11zM483 834zM565 741zM850 633q12 0 31.5 3.5t44.5 9t37 7.5q65 20 125.5 57.5t91.5 88.5q41 68 47 141q5 39 -8 90v4
q1 7 -1.5 12.5t-7.5 12t-8 12.5q-10 4 -31 4h-14l-98 -24q-39 -12 -43 -62q-3 -6 0 -14l-4 -35q-2 -28 -15 -53q-10 -16 -29.5 -32t-37.5 -19q-14 -7 -33 -7q-28 0 -50.5 17t-33.5 43l-8 22q-47 138 -117 187q-87 41 -147 41q-62 0 -129 -17q-116 -37 -181 -147
q-44 -77 -49 -139q-7 -60 8 -88v-6v-5.5t0.5 -4.5t1 -3.5t2 -3t2 -2.5t2.5 -2.5t3.5 -2.5t4 -2.5t3.5 -2.5q11 -11 24 -11h17l102 27q14 5 27 21.5t14 35.5q2 11 0 13v2q-6 23 -2 37q2 21 21 51q21 35 65 51h31q35 0 63 -21.5t31 -52.5l6 -45q1 -1 7 -20t21 -49.5t36 -55.5
q37 -37 104 -53q38 -10 74 -10zM1321 956q2 -13 1 1q0 8 -1 30v-31zM1403 864v31l2 -38q0 1 -2 7zM1403 895v16v-16z" />
    <glyph glyph-name="exclamdown" unicode="&#xa1;" horiz-adv-x="849" 
d="M289 -193q-146 0 -164 103q-96 29 -84 160l154 1196q9 61 55 98q-56 56 -47 139l20 195q7 78 67 132t138 54h195q56 0 98 -29t59 -79q45 -22 70.5 -68t19.5 -102l-20 -195q-9 -86 -76 -137q46 -43 37 -109l-102 -1177q-6 -82 -56 -131t-129 -50h-235zM438 -8
q46 -1 69 19.5t28 66.5l102 1179q3 24 -13 40t-46 16h-224q-29 0 -47.5 -14.5t-21.5 -38.5l-152 -1192q-6 -49 13 -62.5t69 -13.5h223zM573 1411q39 0 69 26.5t34 65.5l20 195q3 40 -20.5 67t-61.5 27h-194q-40 0 -71 -27.5t-34 -66.5l-20 -195q-4 -40 20 -66t64 -26h194z
" />
    <glyph glyph-name="copyright" unicode="&#xa9;" horiz-adv-x="2088" 
d="M1008 -174q-217 0 -401 90t-308 248q-142 139 -211.5 331t-46.5 408q21 200 118.5 382.5t244 315t337.5 211t392 78.5q215 0 397 -89.5t305 -246.5q143 -140 213 -333t47 -410q-17 -160 -82.5 -310.5t-169 -271.5t-234 -212t-286 -141t-315.5 -50zM692 381l-12 12l-8 8
q-75 66 -111 161.5t-26 201.5l24 235q-40 -87 -49 -188q-24 -205 90 -367q45 -39 92 -63zM946 221q-139 0 -260 54t-202.5 145.5t-122.5 218t-27 264.5q20 185 128.5 342.5t275.5 248.5t352 91q140 0 260.5 -54t202.5 -145.5t122 -217.5t25 -265q-14 -138 -81 -264
t-168 -218t-233 -146t-272 -54zM967 401q42 0 112 17q150 46 230 166q55 88 63 184q3 22 -11 37.5t-36 15.5h-129q-20 0 -37 -17t-20 -40v-8q-6 -59 -53.5 -101.5t-108.5 -42.5h-4q-60 0 -96.5 43t-30.5 105l33 305q6 61 51.5 103t105.5 42h4q62 0 99.5 -41t31.5 -104l-2 -4
q-2 -24 11.5 -42t33.5 -18h129q22 0 40.5 16t19.5 38l2 8q8 86 -27 178q-52 106 -157 150h-2q-88 28 -164 28q-47 0 -89.5 -9.5t-61.5 -19.5l-19 -10v2q-5 -4 -10.5 -6t-9.5 -2.5t-5 -1.5q-84 -50 -138 -132.5t-63 -176.5l-32 -299q-9 -96 27.5 -177.5t109.5 -133.5
q6 -2 33.5 -14.5t40.5 -16.5q61 -21 129 -21zM934 10q181 0 353.5 71t304.5 190.5t220 285t107 346.5q20 181 -33.5 346.5t-160 286t-264.5 191.5t-339 71q-243 0 -461.5 -120.5t-360 -326.5t-167.5 -448q-19 -181 34.5 -346.5t161 -285t265.5 -190.5t340 -71zM1026 719
q18 14 21 37v8q6 49 40 89t80 54q0 2 -1 4.5t-1 3.5q-32 12 -55 40t-31 63q-23 -17 -26 -45zM1548 694q52 111 60 209q22 214 -90 369q-52 42 -78 57q68 -56 106 -137q42 -112 33 -221l-2 -8q-4 -48 -38 -87t-81 -53q4 -4 4 -10q38 -12 61 -44.5t25 -74.5z" />
    <glyph glyph-name="guillemotleft" unicode="&#xab;" horiz-adv-x="1296" 
d="M573 317q-71 0 -135 64l-299 319l-14 21l-68 72q-53 63 -41 151q9 67 70 131l389 357q62 49 125 49q73 0 139 -66l45 -47q14 -14 19 -27q4 -4 6 -4l102 95q53 41 111 41q71 0 137 -66l37 -41q14 -11 21 -29q4 -4 12 -11t12 -11l37 -41q46 -46 39 -119q-6 -67 -60 -121
l-206 -188l155 -174q43 -59 37 -123q-7 -63 -57 -117l-62 -55v-2q-55 -49 -127 -49q-69 0 -125 53l-75 84q-4 -5 -9 -11.5t-12 -14t-10 -11.5l-66 -55q-57 -54 -127 -54zM502 502q30 0 59 26l60 52q25 22 28 53q6 42 -35 80l-200 225l280 256q28 22 31 57q4 41 -18 60
l-35 37q-44 41 -82 41q-27 0 -58 -25l-385 -350q-33 -36 -38 -74q-7 -55 22 -84l295 -315q39 -39 76 -39zM924 510q35 0 59 22l57 54q26 29 29 55q3 40 -33 76l-196 221l274 252q26 26 29 57q3 29 -17 53l-36 39q-41 41 -76 41t-58 -26l-370 -342q-33 -26 -39 -72
q-7 -53 24 -84l281 -307q31 -39 72 -39z" />
    <glyph glyph-name="logicalnot" unicode="&#xac;" horiz-adv-x="1679" 
d="M1475 -182q-55 0 -96.5 30t-55.5 78q-47 21 -72.5 65t-19.5 99l8 86h-707q-53 0 -92.5 29.5t-54.5 77.5q-46 21 -71 63.5t-19 95.5l10 97q7 72 64 123t129 51h1067q55 0 95 -29.5t52 -77.5q40 -17 64.5 -52t27.5 -79q4 -25 2 -37l-47 -440q-8 -75 -66 -127.5t-134 -52.5
h-84zM1485 2q38 0 66.5 25.5t33.5 62.5l47 440q0 9 -4 13q2 33 -18.5 55.5t-55.5 22.5h-1067q-34 0 -60.5 -24t-29.5 -58l-10 -97q-3 -34 18.5 -58t55.5 -24h891l-29 -270q-4 -36 19 -62t59 -26h84z" />
    <glyph glyph-name="paragraph" unicode="&#xb6;" horiz-adv-x="1679" 
d="M815 -186q-53 0 -92 28.5t-53 75.5q-45 19 -68.5 60.5t-19.5 95.5l61 573q-163 64 -262 203q-94 83 -139.5 197t-32.5 241q16 158 117 293.5t258 216t331 84.5q8 2 25 2h86q79 0 123 -63q57 63 137 63h84q52 0 91.5 -29t54.5 -75q43 -21 67.5 -63t20.5 -93l-174 -1642
q-6 -68 -61.5 -118t-123.5 -50h-84q-81 0 -125 63q-57 -63 -135 -63h-86zM827 -2q29 0 54 22.5t28 53.5l174 1642q3 31 -17.5 53.5t-49.5 22.5h-86q-6 0 -12 -2q-232 -2 -413.5 -149.5t-203.5 -352.5q-13 -124 42.5 -233.5t163 -180t243.5 -86.5l-76 -714q-3 -32 16 -54
t51 -22h86zM1171 -2q30 0 55.5 22t28.5 54l175 1642q3 31 -18.5 53.5t-51.5 22.5h-84q-32 0 -55.5 -22t-26.5 -54l-174 -1642q-3 -32 16 -54t51 -22h84z" />
    <glyph glyph-name="periodcentered" unicode="&#xb7;" horiz-adv-x="655" 
d="M389 471q-81 0 -146.5 38.5t-101.5 104.5q-61 42 -92 112t-24 151q14 128 115.5 219.5t230.5 91.5q80 0 144.5 -39t100.5 -105q61 -42 92.5 -111t24.5 -149q-13 -129 -114.5 -221t-229.5 -92zM315 655q89 0 161 65.5t81 156.5q10 89 -48 154t-147 65q-90 0 -162 -64.5
t-83 -154.5q-9 -91 49 -156.5t149 -65.5z" />
    <glyph glyph-name="guillemotright" unicode="&#xbb;" horiz-adv-x="1296" 
d="M748 317q-59 0 -99 37l-65 66q-17 21 -21 31l-10 10l-92 -82q-63 -53 -133 -53q-76 0 -119 49v2l-49 55l-6 12q-18 11 -27 23v2l-49 55q-39 55 -33 117q6 67 70 131l184 166l-166 188q-42 51 -35 121q7 71 64 119l45 41q78 66 149 66q62 0 103 -41l73 -84q2 -1 5.5 -4.5
t5.5 -4.5l2 -6q24 32 37 43l45 39q84 66 157 66q62 0 111 -49l80 -89l4 -4l313 -354q50 -56 43 -133q-6 -91 -71 -152l-369 -319q-80 -64 -147 -64zM254 510q41 0 80 39l346 307q41 35 41 84q6 43 -23 72l-301 342q-17 26 -49 26q-36 0 -84 -41l-45 -39q-26 -22 -29 -53
q-3 -30 17 -57l223 -252l-244 -221q-46 -36 -49 -76q-3 -25 17 -55l45 -54q20 -22 55 -22zM676 502q31 0 84 39l360 315q39 31 39 84q5 40 -22 74l-312 350q-25 25 -51 25q-41 0 -92 -41l-43 -37q-27 -24 -31 -60q-3 -28 19 -57l227 -256l-250 -225q-45 -36 -51 -80
q-3 -30 20 -53l50 -52q20 -26 53 -26z" />
    <glyph glyph-name="questiondown" unicode="&#xbf;" horiz-adv-x="1218" 
d="M565 -213q-243 -3 -385 154q-8 8 -22 25.5t-19 23.5q-27 27 -41 43q-114 123 -108 307q4 129 10 192q19 179 78 305.5t153 182.5q59 40 168 70q18 3 27 6q3 12 14 78q10 116 60 182q-38 25 -57 66t-13 89l19 191q9 78 67.5 133t134.5 55h193q53 0 93 -29t58 -77
q47 -22 72.5 -69t19.5 -105l-20 -191q-9 -82 -72 -135q58 -55 52 -137q-2 -29 -4 -68t-3 -49q-19 -167 -114 -269.5t-299 -172.5q-28 -17 -40.5 -34.5t-15.5 -43.5q-3 -15 -6 -43l-12 -113h8q17 0 25 2q28 11 46 32.5t19 47.5l2 17q8 66 58.5 113t119.5 50h177
q52 0 89.5 -28.5t51.5 -75.5q45 -19 69.5 -61t18.5 -95v-2q-10 -109 -61.5 -213t-133.5 -184q-82 -82 -186.5 -126t-216.5 -44h-74zM565 -29q92 0 179 36t155 104q143 143 164 335v3q3 32 -16 53.5t-50 21.5h-174q-30 -2 -52.5 -22t-25.5 -49l-2 -17q-6 -57 -44 -103
t-95 -65q-24 -6 -53 -6h-19q0 2 -10 2q-73 7 -112 56t-33 116l14 123q0 13 6 47q8 96 115 158q190 63 265 144t89 214q1 9 1.5 24t1 41.5t1.5 47.5q3 38 -19.5 65t-59.5 27l-181 -4q-21 0 -35.5 -13t-23 -39t-12 -47t-7.5 -55q-13 -72 -20 -102q-11 -32 -32.5 -45t-67.5 -23
q-91 -25 -138 -55q-64 -38 -113.5 -140t-68.5 -272q-8 -81 -8 -184q-6 -155 86 -250q112 -130 319 -127h76zM795 1419q38 0 65.5 26.5t32.5 65.5l18 191q4 41 -18.5 68.5t-58.5 27.5h-193q-37 0 -66.5 -27.5t-33.5 -68.5l-19 -191q-4 -38 19.5 -65t60.5 -27h193z" />
    <glyph glyph-name="multiply" unicode="&#xd7;" horiz-adv-x="784" 
d="M248 498q-67 0 -117 47l-18 16q-12 16 -27 47q-24 16 -37 29l-18 16q-43 56 -37 127q10 75 63 125l84 76l-65 72q-42 62 -33 123q7 68 61 122l17 15q54 51 131 51q70 0 115 -45l67 -74l74 68q55 49 129 49q81 0 123 -55l10 -11q20 -20 29 -47q24 -11 45 -35l8 -10
q47 -50 41 -123q-9 -67 -57 -118l-82 -74l65 -74q43 -50 37 -123q-10 -74 -57 -121l-19 -20q-67 -51 -133 -51q-69 0 -121 49l-65 74l-84 -76q-55 -49 -129 -49zM174 682q35 0 64 25l155 139l123 -137q25 -25 57 -25q30 0 66 25l12 14q26 26 29 61q7 35 -16 58l-123 139
l143 131q30 24 33 62q7 35 -21 57l-10 14q-22 25 -59 25q-33 0 -64 -25l-141 -129l-121 131q-19 25 -59 25q-36 0 -64 -25l-12 -12q-28 -28 -31 -59q-5 -29 17 -62l120 -133l-157 -141q-26 -26 -29 -60q-3 -33 16 -61l13 -12q29 -25 59 -25z" />
    <glyph glyph-name="divide" unicode="&#xf7;" horiz-adv-x="1423" 
d="M709 145q-71 0 -127 35t-86 94q-56 36 -84 96.5t-21 131.5q3 31 15 61h-60q-57 0 -103 31.5t-67 81.5q-48 27 -74 76.5t-20 109.5l10 99q9 85 75.5 145.5t149.5 60.5h199q-40 66 -31 146q12 109 97 186.5t192 77.5q72 0 128.5 -35t84.5 -94q56 -34 84 -94t21 -133
q-4 -35 -11 -54h64q59 0 104.5 -30t65.5 -82q49 -27 75 -77t19 -110l-10 -98q-9 -87 -74 -147t-151 -60h-207q41 -66 32 -153q-12 -109 -97 -187t-193 -78zM637 330q70 0 125 50.5t63 121.5q6 70 -38.5 120t-114.5 50q-72 0 -127.5 -50.5t-61.5 -119.5q-8 -71 37 -121.5
t117 -50.5zM1100 748q47 0 84 33.5t41 80.5l10 99q5 48 -24 81t-76 33h-828q-45 0 -82 -33.5t-41 -80.5l-10 -99q-4 -47 25 -80.5t73 -33.5h828zM729 1145q72 0 126.5 48.5t62.5 119.5q8 72 -37 122t-117 50q-69 0 -124 -50t-62 -122q-7 -70 37.5 -119t113.5 -49z" />
    <glyph glyph-name="bullet" unicode="&#x2022;" horiz-adv-x="1013" 
d="M553 371q-102 0 -188 47.5t-138 128.5q-75 61 -113 153t-28 197q13 117 81.5 216t173.5 156.5t222 57.5q104 0 190 -47.5t140 -128.5q74 -62 111.5 -152.5t27.5 -193.5q-19 -177 -160.5 -305.5t-318.5 -128.5zM481 555q138 0 249.5 102t125.5 240q15 139 -75 238.5
t-228 99.5q-140 0 -250 -99.5t-125 -238.5q-14 -139 75 -240.5t228 -101.5z" />
    <glyph glyph-name="ellipsis" unicode="&#x2026;" horiz-adv-x="1474" 
d="M270 -190q-54 0 -95.5 30t-59.5 78q-47 22 -72.5 68.5t-19.5 103.5l20 195q9 77 69 130.5t136 53.5h194q66 0 109 -37q50 41 121 41h194q67 0 115 -39q51 39 119 39h194q59 0 102 -29.5t56 -78.5q48 -22 73 -67t19 -101l-20 -195q-9 -78 -69 -132t-138 -54h-195
q-66 0 -110 41q-53 -41 -123 -41h-195q-59 0 -106 37q-56 -43 -123 -43h-195zM391 -6q40 0 71 28t34 68l20 195q4 40 -20 66t-64 26h-194q-39 0 -69 -26.5t-34 -65.5l-20 -195q-3 -40 20.5 -68t61.5 -28h194zM817 0q41 0 71.5 27t35.5 67l20 195q3 41 -21.5 66.5t-66.5 25.5
h-194q-39 0 -68.5 -26t-32.5 -66l-20 -195q-4 -40 20 -67t62 -27h194zM1245 0q40 0 70.5 27t34.5 67l20 195q3 41 -21.5 66.5t-64.5 25.5h-194q-39 0 -68.5 -26t-32.5 -66l-20 -195q-4 -40 20 -67t62 -27h194z" />
    <glyph glyph-name="perthousand" unicode="&#x2030;" horiz-adv-x="2037" 
d="M1642 -211q-122 0 -204 92q-12 18 -19 39q-36 24 -51 39q-47 -74 -129 -121q-77 -41 -152 -41h-30q-61 0 -115.5 25t-89.5 69q-14 14 -18 37q-37 19 -66 56q-40 52 2 116q1 1 4 5t8.5 11t10.5 13v4q-44 -46 -70 -39q-10 3 -12 17q-6 30 -6 63l-164 -285l-4 -2
q-44 -73 -115 -73h-238q-41 0 -69.5 26t-36.5 68q-43 9 -66.5 48t-17.5 91q0 31 18 66l488 837h-31q-60 0 -114 24.5t-91 67.5q-15 18 -18 39q-41 25 -64 54q-42 48 -2 114q1 1 4.5 5.5t9.5 12t11 13.5v4q-44 -46 -70 -39q-10 3 -12 17q-7 34 -4 81l33 312q7 76 54.5 146
t121.5 114q70 39 155 39h31q76 0 140.5 -38t99.5 -104q57 -38 86 -98q28 -65 22 -137l133 229l2 2q47 76 115 82h246q42 0 72.5 -27t39.5 -69q42 -11 66 -49.5t18 -87.5q-4 -32 -18 -55l-467 -801h31q77 0 142 -37.5t97 -101.5q14 -8 35 -29q48 76 125 123q76 39 158 39h31
q75 0 138.5 -37.5t98.5 -102.5q55 -37 86 -98q35 -62 25 -151l-31 -314q-7 -78 -56.5 -150t-121.5 -112q-84 -41 -154 -41h-31zM854 8q0 4 4 8zM770 100q0 1 1 2q3 4 5 7q-1 -1 -3 -4.5t-3 -4.5zM180 1249h1l7 11q-3 -6 -8 -11zM264 1157q2 2 6 10l-6 -10v0zM1014 -18
q48 0 106 28q52 29 85.5 78.5t39.5 104.5l29 311q7 67 -14 102q-23 49 -68 76t-100 27h-31q-60 0 -109 -25q-51 -31 -83 -79.5t-38 -102.5l-32 -309q-6 -60 20 -105h-2q20 -49 65 -77.5t101 -28.5h31zM1016 143q-22 0 -35.5 15.5t-11.5 38.5l32 307q3 21 19 34t39 13h2
q22 0 34 -13.5t9 -33.5l-33 -307q-1 -23 -17.5 -38.5t-35.5 -15.5h-2zM1436 -8q3 9 10 14q-1 -1 -10 -14zM1354 84q3 9 8 14q-14 -18 -11 -17zM348 -2q18 0 29 22l995 1706q8 12 8 23q2 19 -6.5 34t-23.5 15h-226q-27 5 -49 -31l-983 -1693q-6 -9 -6 -27q-3 -20 4.5 -34.5
t20.5 -14.5h237zM428 1135q52 0 104 28q51 28 85 77t38 103l31 314q6 59 -12 102q-25 47 -70.5 75t-99.5 28h-31q-55 0 -108 -27q-51 -31 -83 -78.5t-38 -101.5l-33 -312q-6 -59 20 -104h-2q22 -47 67.5 -75.5t100.5 -28.5h31zM426 1296q-21 0 -34.5 15.5t-10.5 38.5l31 307
q3 19 18.5 32t38.5 13h4q20 0 32 -13t9 -32l-31 -307q-3 -23 -18.5 -38.5t-34.5 -15.5h-4zM1602 -27q41 0 104 29q51 29 85 78.5t40 103.5l31 314q6 60 -17 102q-25 47 -69.5 74.5t-98.5 27.5h-30q-56 0 -109 -26q-51 -31 -84 -79.5t-37 -102.5l-33 -310q-6 -56 19 -104h-2
q24 -48 69 -77.5t101 -29.5h31zM1599 135q-22 0 -35 16t-10 39l33 308q2 19 17 32t38 13h3q21 0 34 -13t11 -32l-33 -308q-3 -23 -19 -39t-36 -16h-3z" />
    <glyph glyph-name="guilsinglleft" unicode="&#x2039;" horiz-adv-x="835" 
d="M573 317q-71 0 -135 64l-299 319l-14 21l-68 72q-53 63 -41 151q9 67 70 131l389 357q62 49 125 49q73 0 139 -66l45 -47q14 -14 19 -27q2 -2 9.5 -7.5t10.5 -10.5l43 -47q43 -46 33 -117q-6 -66 -55 -115l-217 -198l159 -180q45 -57 39 -125q-10 -69 -59 -115l-66 -55
q-57 -54 -127 -54zM502 502q30 0 59 26l60 52q25 22 28 53q6 42 -35 80l-200 225l280 256q28 22 31 57q4 41 -18 60l-35 37q-44 41 -82 41q-27 0 -58 -25l-385 -350q-33 -36 -38 -74q-7 -55 22 -84l295 -315q39 -39 76 -39z" />
    <glyph glyph-name="guilsinglright" unicode="&#x203a;" horiz-adv-x="808" 
d="M313 317q-69 0 -114 54l-54 55q-2 2 -16 23q-8 5 -12 14l-56 55q-42 52 -36 115q9 67 65 123l199 182l-168 190q-48 51 -41 123q7 70 63 123l47 41q81 66 158 66q68 0 113 -51l76 -84q1 -2 3.5 -5t2.5 -4l313 -352q46 -55 43 -131q0 -85 -65 -147l-373 -326
q-77 -64 -148 -64zM242 502q33 0 82 39l360 315q42 31 39 84q5 39 -23 74l-311 350q-22 25 -51 25q-42 0 -90 -41l-43 -37q-29 -23 -33 -60q-3 -30 21 -57l227 -256l-250 -225q-47 -38 -53 -80q-3 -30 22 -53l47 -52q23 -26 56 -26z" />
    <glyph glyph-name="fraction" unicode="&#x2044;" horiz-adv-x="1167" 
d="M246 -186q-63 0 -111 31t-69 83q-48 27 -74.5 75.5t-20.5 107.5q6 43 23 75l797 1579h2q28 55 76.5 86t107.5 31h82q63 0 111 -31.5t69 -83.5q48 -27 74 -75t20 -107q-6 -42 -24 -84l-799 -1577q-29 -51 -78 -80.5t-104 -29.5h-82zM254 -2q29 0 54 15.5t38 43.5l797 1569
q14 31 16 51q5 47 -26 80t-84 33h-82q-65 0 -95 -59l-792 -1569q-14 -26 -17 -51q-5 -47 25.5 -80t83.5 -33h82z" />
    <glyph glyph-name="partialdiff" unicode="&#x2202;" horiz-adv-x="1296" 
d="M571 -197q-84 0 -157 29q-127 46 -203 160q-91 75 -134 197t-28 268q12 124 70 250q93 197 260 318.5t348 121.5q55 0 107 -12q-6 73 -41 139q-104 79 -285 123q-41 10 -71 37.5t-44 64.5q-46 24 -71 69.5t-19 100.5q3 47 31 90l47 68q30 34 73 55t85 21q27 0 51 -7
q39 -12 56.5 -17t65.5 -22.5t78.5 -32t79.5 -41t85.5 -54.5t78.5 -67.5t76 -84.5q277 -261 227 -746q-23 -226 -125 -507q-17 -53 -32 -84q-94 -195 -262 -316t-347 -121zM528 213q-84 0 -127.5 77t-31.5 189q2 35 16 84q35 115 112.5 190.5t157.5 75.5q21 0 31 -2
q38 -8 65.5 -18.5t54 -31t38 -56t6.5 -84.5q-7 -77 -47 -158q-49 -117 -123.5 -191.5t-151.5 -74.5zM545 305q39 5 87.5 61t86.5 144q33 65 39 127v4q-3 1 -9.5 2t-9.5 2h-12q-45 0 -95.5 -55.5t-76.5 -136.5q-9 -31 -12 -66q-3 -50 2 -82zM657 737zM739 645zM500 -12
q148 0 290.5 104t223.5 277q14 23 28 67q95 259 121 488q15 140 -3 260t-49.5 201.5t-95.5 152.5t-110.5 109.5t-127.5 76.5t-113 49t-99 31q-8 3 -12 4q-6 2 -25 2q-25 0 -49.5 -14t-36.5 -37l-32 -43q-13 -30 -15 -47q-3 -31 13.5 -57t46.5 -33q126 -29 218 -77.5
t142 -100.5t77.5 -115.5t33 -115t0.5 -107.5q-1 -10 -2.5 -22t-3 -24.5t-2.5 -17.5q-54 28 -70 33q-67 23 -131 23q-149 0 -291 -103.5t-223 -275.5q-53 -112 -62 -219q-18 -156 44 -279t186 -168q56 -22 129 -22z" />
    <glyph glyph-name="emptyset" unicode="&#x2205;" horiz-adv-x="1679" 
d="M854 8q-236 0 -412 131l-118 -92q-51 -35 -103 -35q-31 0 -60 14.5t-46 39.5l-43 57q-27 13 -39 35l-53 69h-3q-28 47 -22 99q9 73 61 112l119 92q-57 155 -41 322q17 154 91.5 293.5t186.5 240.5t258 160.5t300 59.5q233 0 407 -129l117 90q46 32 102 32q71 0 109 -47
l43 -61q20 -10 41 -31l55 -82q24 -38 21 -88q-6 -57 -51 -102l-132 -101q59 -151 41 -327q-17 -153 -91 -292.5t-185 -240t-255.5 -160t-297.5 -59.5zM934 526q126 46 199 158zM799 412q-139 0 -248 82l713 561q34 -91 22 -203q-19 -181 -161 -310.5t-326 -129.5zM780 193
q178 0 339 88t265.5 240t122.5 331q21 196 -61 348l176 139q25 14 29 43q0 25 -11 39l-51 70q-13 16 -43 16q-24 0 -41 -12l-176 -137q-168 155 -409 155q-181 0 -343 -88t-267 -240.5t-124 -332.5q-16 -174 62 -344l-178 -139q-20 -14 -23 -43q0 -27 8 -39l54 -70
q13 -20 41 -20q20 0 38 14l179 137q171 -155 413 -155zM434 653q-40 96 -31 199q10 90 54 172.5t110 142t151 94.5t173 35q151 0 254 -86zM856 1096q-68 -22 -125 -66.5t-94 -105.5z" />
    <glyph glyph-name="minus" unicode="&#x2212;" horiz-adv-x="866" 
d="M238 627q-52 0 -91 29t-53 75q-46 21 -71 64t-19 96l14 131q8 71 63.5 121.5t125.5 50.5h512q53 0 92.5 -28.5t54.5 -75.5q45 -21 69.5 -64t18.5 -96l-14 -131q-6 -69 -63.5 -120.5t-126.5 -51.5h-512zM678 811q31 0 58 24t30 56l14 131q3 33 -17.5 56.5t-53.5 23.5h-512
q-32 0 -57.5 -24t-28.5 -56l-15 -131q-3 -32 17.5 -56t52.5 -24h512z" />
    <glyph glyph-name="infinity" unicode="&#x221e;" horiz-adv-x="1679" 
d="M385 350q-96 0 -176.5 45t-132.5 125q-81 65 -121.5 171t-28.5 229l2 8q10 96 52.5 183.5t106 151.5t146.5 102t170 38h236q136 0 244 -94q127 94 264 94h235q97 0 177.5 -45.5t130.5 -124.5q81 -65 121 -169.5t28 -227.5l-2 -9q-20 -198 -158 -337.5t-315 -139.5h-236
q-141 0 -243 94q-120 -94 -264 -94h-236zM473 870q23 0 44.5 0.5t34 1.5t11.5 2q14 4 41 17h-37h-116q-3 0 -9.5 -6.5t-9.5 -14.5h41zM463 778l-117 2q-46 0 -75 40t-23 98l2 20q6 57 43 97t84 40h117h65q62 -6 111 -50.5t49 -92.5q0 -5 -1.5 -12.5t-9.5 -29t-21 -39.5
t-40.5 -37t-64.5 -28q-24 -8 -119 -8zM547 535q75 0 145.5 36t122.5 99q40 -64 102.5 -99.5t137.5 -35.5h235q138 0 247 112.5t126 272.5l2 8q15 158 -70.5 270.5t-222.5 112.5h-235q-150 0 -269 -135q-39 63 -101.5 99t-137.5 36h-236q-138 0 -248 -113t-125 -270l-2 -8
q-17 -160 69 -272.5t224 -112.5h236zM1190 778q-93 0 -117 8q-37 10 -61 30.5t-31 41t-10.5 41t0.5 29.5q5 48 63.5 94.5t122.5 52.5h66h116q47 0 76 -40t23 -97l-2 -20q-6 -58 -43 -98t-84 -40q-60 -2 -119 -2zM1200 870h51q30 1 42.5 2t25.5 5.5t18 13.5h-41h-59
q-22 -3 -51 -21h14z" />
    <glyph glyph-name="integral" unicode="&#x222b;" horiz-adv-x="1679" 
d="M197 -190q-59 0 -107 31t-72 83q-48 28 -74 79t-20 110l6 51q9 86 78.5 148.5t155.5 62.5h203l557 1341q33 76 103 125t147 49h397q59 0 105.5 -31t70.5 -83q48 -27 74 -77.5t20 -111.5l-6 -51q-9 -86 -77 -147.5t-154 -61.5h-205l-553 -1343q-32 -74 -98.5 -121
t-145.5 -53h-405zM524 -6q51 4 93 34t61 74l582 1409h272q47 0 86 35t43 82l6 51q5 48 -26 83.5t-78 35.5h-398q-47 0 -91.5 -31t-63.5 -77l-586 -1407h-270q-47 0 -87 -36t-44 -83l-7 -51q-5 -47 27.5 -83t79.5 -36h401z" />
    <glyph glyph-name="notequal" unicode="&#x2260;" horiz-adv-x="962" 
d="M291 324q-34 0 -66 16l-61 39l-2 2q-36 23 -49 72l-31 18l-2 2q-29 20 -43.5 54t-11.5 73q6 40 28 76q13 13 56 16q-5 5 -5 8q-42 18 -66 58.5t-20 89.5l5 33q6 63 53 110q-35 47 -29 103l2 34q8 65 58 111.5t114 46.5h297l135 176q50 66 125 66h8q12 -1 22 -3t20 -7
t16.5 -8.5t18.5 -11t18 -11.5l24 -14q38 -24 51 -74q1 -1 3.5 -2t3.5 -2l24 -15q30 -20 45 -55t12 -74q-3 -31 -18 -57h-59q1 -1 1 -4.5t1 -5.5q43 -15 67.5 -56t20.5 -92l-4 -35q-6 -64 -58 -106q37 -44 31 -107l-4 -32q-6 -63 -56.5 -109.5t-113.5 -46.5h-274l-156 -207
q-25 -32 -60 -50.5t-71 -18.5zM219 508q27 0 47 27l191 249h323q26 0 45.5 19.5t22.5 44.5l4 33q3 28 -13 45.5t-42 17.5h-219l69 90h164q25 0 45 17.5t23 42.5l2 34q3 26 -13 46t-41 20h-59l88 117q12 20 12 32q4 34 -18 50l-49 30q-16 13 -33 13q-24 0 -45 -25l-164 -217
h-346q-26 0 -47.5 -20t-24.5 -46l-2 -34q-3 -25 14.5 -42.5t43.5 -17.5h239l-67 -90h-187q-26 0 -45 -17.5t-22 -45.5l-4 -33q-3 -25 13 -44.5t42 -19.5h80l-115 -151q-9 -9 -14 -33q-4 -34 20 -49l47 -31q15 -12 35 -12z" />
    <glyph glyph-name="lessequal" unicode="&#x2264;" horiz-adv-x="962" 
d="M250 -102q-58 0 -101.5 29.5t-62.5 80.5q-47 22 -72.5 69.5t-19.5 106.5l6 52q9 80 71.5 137t141.5 57h209l-242 266q-4 4 -4 6l-80 86q-39 54 -30 140q7 88 71 149l402 369q75 59 157 59q77 0 131 -51l31 -31q20 -24 27 -43q4 -2 8 -5t8.5 -7t7.5 -6l31 -31
q55 -65 49 -151q-4 -38 -26.5 -79t-53.5 -71l-211 -190l84 -92q9 -9 11 -13l73 -80q23 -28 35 -70t8 -83q-5 -38 -26 -80t-49 -68l-3 -2q14 -17 19 -33q47 -25 72.5 -72.5t19.5 -103.5l-4 -51q-9 -83 -70.5 -138.5t-144.5 -55.5h-473zM649 82q44 0 76.5 29t36.5 73l6 52
q5 40 -23 71t-69 31h-473q-42 0 -74 -30.5t-37 -71.5l-6 -52q-4 -44 21.5 -73t68.5 -29h473zM578 457q50 0 88 35l28 22q35 35 39 80q7 56 -22 88l-226 248l283 258q42 38 45 84q5 41 -27 86l-20 20q-30 35 -78 35t-92 -35l-397 -364q-37 -37 -41 -86q-7 -64 26 -90
l316 -349q32 -32 78 -32z" />
    <glyph glyph-name="greaterequal" unicode="&#x2265;" horiz-adv-x="962" 
d="M231 -86q-59 0 -102.5 30t-62.5 81q-47 24 -73 71t-20 105l7 51q7 68 57 122t117 68l-23 23q-22 26 -34 67t-9 78q5 42 25.5 83.5t50.5 68.5l207 184l-178 203q-47 57 -41 139q9 90 84 152l34 30q69 52 140 52q82 0 143 -64l76 -84q3 -1 6 -8l323 -365q56 -62 46 -151
q-9 -83 -62 -139l-297 -265h23q56 0 99 -30t62 -80q48 -24 73.5 -71t19.5 -105l-4 -51q-9 -83 -70 -139t-143 -56h-474zM631 98q43 0 74.5 29.5t35.5 73.5l7 51q5 40 -22 71t-69 31h-473q-42 0 -74.5 -30.5t-37.5 -71.5l-6 -51q-5 -44 21.5 -73.5t70.5 -29.5h473zM307 471
q41 0 86 33l389 348q40 27 47 90q4 53 -26 88l-320 363q-37 37 -82 37q-46 0 -86 -37l-24 -21q-40 -32 -47 -84q-4 -52 28 -84l230 -260l-279 -248q-36 -31 -43 -86q-3 -47 23 -80l22 -22q34 -37 82 -37z" />
    </font>
</defs>
</svg>
