<svg xmlns="http://www.w3.org/2000/svg">
<defs>
<font id="Vintages" horiz-adv-x="307" >
  <font-face 
    font-family="Vintages"
    font-weight="400"
    font-stretch="normal"
    units-per-em="1000"
    panose-1="0 0 0 0 0 0 0 0 0 0"
    ascent="800"
    descent="-200"
    x-height="695"
    cap-height="698"
    bbox="-0.571429 -260 2958.25 950.333"
    underline-thickness="50"
    underline-position="-150"
    unicode-range="U+000D-E000"
  />
<missing-glyph horiz-adv-x="502" 
d="M159 606q5 2 10 5t12 5h2q5 -2 12.5 -3.5t12.5 -6.5l1 -1q2 -2 4 -3q2 -4 2 -6t2 -4q6 -4 3 -9v-12q0 -4 -0.5 -3.5t-4.5 -1.5q-7 0 -14 1t-15 -1q-4 0 -8.5 1t-8.5 -1h-15q-5 -2 -5 5v16q-3 14 10 19zM188 46q6 0 11.5 -1t13.5 -1q5 0 12 1t12 1q8 0 15 -1t12 -1h12
q6 2 10.5 1.5t9.5 -4.5h27h5q2 -2 4 -2q4 0 9 -1.5t9 -3.5t6 -4t6 -5q3 -4 0 -7q-4 -6 -8 -11.5t-11 -8.5q-5 0 -8.5 -1.5t-6.5 -1.5h-10t-10 -2q-9 -2 -16.5 -2h-17.5q-7 0 -10 2h-4h-37v-2q-8 2 -15 2t-14 2h-6q-7 -2 -14 1t-15 6q-5 2 -8.5 8.5t-5.5 11.5q-2 4 3.5 10.5
t10.5 8.5h10q8 5 19 5zM30 -232v1164h442v-1164h-442zM362 -65q-5 1 -27.5 2.5t-48.5 2t-47.5 0.5t-23.5 -1h-19q-8 0 -15 -2t-14 -2q-10 3 -18.5 1.5t-16.5 -1.5q-12 -3 -12 -12q0 -16 9 -16q2 0 4.5 -1t4.5 -1h31h12t15 2q-5 -4 -6.5 -7t-3.5 -5t-5 -3.5t-5 -3.5
q-3 -4 -6 -7t-9 -5q-4 -2 -7 -4t-5 -9l-4 -6t-7 -3t-8.5 -2.5t-7.5 -4.5q-2 -2 -2 -7q-2 -8 5 -13.5t15 -5.5q4 0 7 1t5 -1q5 -2 10 -1t10 1h11h3q6 2 11.5 1t10.5 -1q7 0 15 1t17 -1h27q7 -2 14.5 -2h14.5q4 2 10 1t10 -1h5q3 0 8 -1.5t12 -1.5q7 2 12.5 2.5t12.5 0.5h20
q1 0 2 1q1 0 1.5 0.5t1.5 0.5q4 5 3 10.5t-3 10.5q-7 7 -16 7h-13q-4 0 -8.5 1t-8.5 -1q-11 -2 -21.5 -1.5t-20.5 4.5h-7q-4 0 -9 -1t-11 1q-9 0 -16.5 1t-17.5 -1h-9q-4 0 -7.5 1t-8.5 1h-13.5t-13.5 -2q-2 0 -2 4l2 3q7 5 13.5 12t11.5 12q4 7 11 10t9 9q3 8 12 5h10h25
h10t9 -2h2q6 0 10.5 1t9.5 1q11 -2 20.5 -1t20.5 -1q5 -2 7 -1t6 1q7 0 14 7q7 13 -2 19q-5 3 -12 3.5t-15 0.5zM201 78q-4 -3 -8 -3.5t-7 -0.5q-9 0 -16.5 -0.5t-17.5 -4.5q-5 -2 -10.5 -5t-12.5 -6q-2 0 -2 -1.5t-2 -1.5q-5 -11 -12 -21v-2v-17q0 -8 5 -20l7 -7q3 -2 7 -4

<glyph glyph-name=".notdef" horiz-adv-x="502" 
d="M159 606q5 2 10 5t12 5h2q5 -2 12.5 -3.5t12.5 -6.5l1 -1q2 -2 4 -3q2 -4 2 -6t2 -4q6 -4 3 -9v-12q0 -4 -0.5 -3.5t-4.5 -1.5q-7 0 -14 1t-15 -1q-4 0 -8.5 1t-8.5 -1h-15q-5 -2 -5 5v16q-3 14 10 19zM188 46q6 0 11.5 -1t13.5 -1q5 0 12 1t12 1q8 0 15 -1t12 -1h12
q6 2 10.5 1.5t9.5 -4.5h27h5q2 -2 4 -2q4 0 9 -1.5t9 -3.5t6 -4t6 -5q3 -4 0 -7q-4 -6 -8 -11.5t-11 -8.5q-5 0 -8.5 -1.5t-6.5 -1.5h-10t-10 -2q-9 -2 -16.5 -2h-17.5q-7 0 -10 2h-4h-37v-2q-8 2 -15 2t-14 2h-6q-7 -2 -14 1t-15 6q-5 2 -8.5 8.5t-5.5 11.5q-2 4 3.5 10.5
t10.5 8.5h10q8 5 19 5zM30 -232v1164h442v-1164h-442zM362 -65q-5 1 -27.5 2.5t-48.5 2t-47.5 0.5t-23.5 -1h-19q-8 0 -15 -2t-14 -2q-10 3 -18.5 1.5t-16.5 -1.5q-12 -3 -12 -12q0 -16 9 -16q2 0 4.5 -1t4.5 -1h31h12t15 2q-5 -4 -6.5 -7t-3.5 -5t-5 -3.5t-5 -3.5
q-3 -4 -6 -7t-9 -5q-4 -2 -7 -4t-5 -9l-4 -6t-7 -3t-8.5 -2.5t-7.5 -4.5q-2 -2 -2 -7q-2 -8 5 -13.5t15 -5.5q4 0 7 1t5 -1q5 -2 10 -1t10 1h11h3q6 2 11.5 1t10.5 -1q7 0 15 1t17 -1h27q7 -2 14.5 -2h14.5q4 2 10 1t10 -1h5q3 0 8 -1.5t12 -1.5q7 2 12.5 2.5t12.5 0.5h20
q1 0 2 1q1 0 1.5 0.5t1.5 0.5q4 5 3 10.5t-3 10.5q-7 7 -16 7h-13q-4 0 -8.5 1t-8.5 -1q-11 -2 -21.5 -1.5t-20.5 4.5h-7q-4 0 -9 -1t-11 1q-9 0 -16.5 1t-17.5 -1h-9q-4 0 -7.5 1t-8.5 1h-13.5t-13.5 -2q-2 0 -2 4l2 3q7 5 13.5 12t11.5 12q4 7 11 10t9 9q3 8 12 5h10h25
h10t9 -2h2q6 0 10.5 1t9.5 1q11 -2 20.5 -1t20.5 -1q5 -2 7 -1t6 1q7 0 14 7q7 13 -2 19q-5 3 -12 3.5t-15 0.5zM201 78q-4 -3 -8 -3.5t-7 -0.5q-9 0 -16.5 -0.5t-17.5 -4.5q-5 -2 -10.5 -5t-12.5 -6q-2 0 -2 -1.5t-2 -1.5q-5 -11 -12 -21v-2v-17q0 -8 5 -20l7 -7q3 -2 7 -4
t8 -5q14 -11 34 -14q5 0 9.5 -0.5t10.5 -2.5h10.5t10.5 -2h2h19t19 2v-1q0 -1 2 -1h17h29q6 0 10.5 1t9.5 1q5 2 9.5 3.5t10.5 1.5q5 0 7.5 1.5t6.5 3.5q2 0 3.5 1t3.5 1q10 3 13 9q5 4 8 10.5t8 11.5v3q5 9 2 17.5t-6 15.5q-5 12 -17 17q-12 3 -17 7q-5 3 -13 4.5t-17 -0.5
h-7q-12 5 -24 5t-22.5 0.5t-18.5 3.5q-3 0 -3.5 -2t-2.5 -2q-9 0 -16.5 0.5t-17.5 3.5h-12zM267 295q-8 2 -15 1t-15 -3q-6 0 -9 -5q-2 -8 -4.5 -13.5t-0.5 -13.5v-9q0 -5 2 -8t5 -6q5 -4 11.5 -2.5t11.5 6.5q2 4 2 8t2 9q0 5 5 5t10 -0.5t10 -2.5h7h7h29q7 0 12 -2
q14 0 20 -9q4 -2 4 -7.5t-4 -7.5q-5 -7 -12 -9.5t-15 -4.5h-2q-4 2 -7.5 1t-6.5 -3q-5 -2 -8.5 -2h-7.5h-20h-16q-5 0 -10.5 1t-9.5 -1q-15 -5 -32 0q-5 0 -9 1t-11 1q-7 -2 -15 0.5t-16 4.5q-3 2 -5 4q-4 5 -4 12t2 12q2 2 2 3.5t2 1.5q7 0 11 2t9 2q13 -3 18 7
q2 6 0.5 9.5t-4.5 8.5l-2 2q-7 2 -14 3.5t-15 -0.5q-2 0 -4 -0.5t-6 -2.5h-2q-23 -12 -29 -34v-4v-11.5t2 -10.5v-6t2 -5q5 -7 11.5 -12t11.5 -8q5 -4 12 -4.5t15 -2.5q5 -2 10.5 -2.5t13.5 -0.5q4 0 7.5 -1t6.5 -1h34q8 2 15 1t15 -1h15q9 2 19.5 2.5t19.5 2.5q3 0 6.5 1
t8.5 1q6 0 14 5q5 0 13 4q5 5 9 11t7 9q4 4 4.5 7.5t0.5 6.5q0 4 -0.5 8.5t2.5 8.5l-2 2q-8 16 -19 24q-2 2 -5 4t-5 2q-9 7 -14 7h-7q-7 2 -13.5 2h-11.5h-15h-12q-5 2 -11 1t-11 1zM377 407q-4 0 -9.5 -3t-5.5 -8t-1.5 -9t-3.5 -8v-7q0 -5 1 -9.5t1 -9.5v-2h-22
q-5 0 -10 0.5t-9 -4.5h-4q-5 3 -9 3.5t-9 0.5q-2 0 -5 -1.5t-7 1.5h-15q0 -3 -2.5 -3t-2.5 3q-8 2 -17 -4h-7q-9 7 -20 0h-5q-5 0 -10.5 0.5t-10.5 3.5q-6 0 -11.5 -0.5t-10.5 -3.5h-3q-3 3 -7 1.5t-8 -1.5q-2 0 -3.5 -1t-1.5 1q-5 3 -9 1.5t-11 -1.5h-1q-1 0 -1 -2l-12 -12
q-3 -6 3 -12q5 -3 9 -5t11 -2q7 2 14 2.5t15 0.5h27q4 -2 9 -1t10 1q0 4 4 0q5 -2 7.5 -1t5.5 1q0 2 1.5 1t3.5 -1h7q10 0 20.5 1.5t21.5 -1.5h3h7.5t8.5 2v-2h5q10 2 17.5 1t15.5 1h11q5 -2 10.5 -1t12.5 3q10 4 14 15q2 4 2 15q3 6 0 14q-2 2 -2 4.5v4.5q0 4 1 7.5t1 7.5
q0 5 -3.5 10.5t-10.5 7.5zM135 516q-12 0 -15 -7q-4 -4 -4 -9.5t2 -7.5q5 -6 10.5 -8.5t13.5 -6.5q5 -4 12 -7.5l13 -6.5q7 -4 0 -7q-2 -2 -5.5 -2.5t-7.5 -2.5q-4 -4 -12 -7q-2 -2 -5 -4.5t-8 -2.5q-5 -4 -8 -8t-3 -12q0 -4 1 -6l3 -6q10 -10 25 2h2q5 4 11.5 9t11.5 9
q3 2 7 4.5t9 4.5q6 2 10 4t8 6q2 2 7 2q3 5 13 0h23q0 2 2 1t4 -1q7 -3 14 0h5h22h36q5 0 9 -2q5 -2 10.5 -1t12.5 1h2q3 0 6 1t5 1q10 0 14 10q0 14 -12 19h-9.5t-10.5 2h-56h-5q-5 0 -11.5 1t-12.5 1q-15 -3 -32 0h-5h-7q-4 0 -4 -2h-12.5t-10.5 2q-2 2 -3.5 2.5t-5.5 2.5
q-8 2 -15 10q-4 2 -6 3.5t-6 1.5q-3 0 -4 1q-1 0 -2 1q-9 10 -26 15zM215 640l-18 4t-14 4q-12 0 -22 -3.5t-19 -8.5q-2 -4 -5 -5t-5 -5q-5 -5 -7 -8l-4.5 -4.5t-0.5 -4.5q0 -8 -2.5 -12t-2.5 -12v-7q0 -5 0.5 -10t2.5 -9q2 -6 5 -10.5t6 -9.5q0 -2 3.5 -3t7.5 1q4 0 8.5 -1
t7.5 -1q8 2 14 2h13h7q7 0 11 -1t9 -1q10 3 20 0h5q2 0 3.5 1t3.5 1q5 0 11 -1t11 1q15 2 28.5 0t28.5 0h4h7h16q5 0 10.5 -1t11.5 1q2 2 2 0q5 0 9 2.5t8 4.5q3 4 3 10t-3 8q-4 3 -8.5 4t-8.5 3h-6h-7h-18h-16h-20h-7h-10.5t-11.5 2q-2 0 -2.5 -1t-2.5 -1h-9h-4.5t-2.5 2
q-2 5 -2 14q-3 4 -2 6t-2 4q-2 7 -5 13.5t-7 12.5q-6 16 -22 19zM269 765q0 -2 -2 -2q-8 2 -16.5 3t-15.5 -1h-2q-10 2 -20 0t-19 0q-6 0 -13 -1t-12 -1q-13 3 -24 0h-3q-8 2 -12 -0.5t-8 -10.5q-3 -3 -0.5 -8.5t7.5 -7.5t7.5 -2h5.5h37q4 0 4 -5t3 -7q3 -5 6 -9.5t7 -9.5
q2 -3 -3 -3h-8h-12q-7 -2 -14.5 -1t-14.5 -1h-9q-10 0 -13 -5q-2 -4 -2.5 -6.5t-2.5 -5.5q0 -10 5 -12q3 0 7 -1.5t8 -1.5t7.5 1.5t8.5 1.5q7 0 12.5 -0.5t10.5 -2.5q2 0 2 1.5t2 1.5h11h23.5h41.5t46.5 -0.5t39.5 -2.5h17q8 0 14.5 0.5t9.5 4.5q4 4 6.5 7.5t0.5 6.5
q0 6 -2.5 8.5t-6.5 4.5q-5 2 -12 2q-5 0 -8 -1t-7 -1q-5 0 -10.5 1t-11.5 1q-5 0 -10 -1t-9 1q-8 2 -14 1t-11 -1h-4q-7 4 -11 5.5t-9 -0.5q-5 0 -10.5 1.5t-12.5 3.5q-8 4 -14 7.5t-13 11.5v5h3q8 2 15 0t14 0q3 0 4.5 -1.5t3.5 -1.5q4 2 6 2.5t6 0.5t7 -1t8 1h32h29h3
q3 -4 5.5 -3.5t5.5 0.5q4 4 13 0q10 -4 14 5q0 4 1.5 6t1.5 6q2 8 -7 11q-2 0 -2.5 2t-2.5 2q-4 0 -9.5 1t-10.5 1q-5 -2 -13.5 -2t-13.5 2h-5q-11 -2 -20.5 -1t-20.5 1h-15zM316 884h-15.5t-16.5 -2q0 -3 -6 0q-11 0 -29 -5q-13 -7 -29 -12q-13 -3 -21 -11t-16 -17
q-3 -5 -5.5 -8t-5.5 -7q-4 -4 -11 -1t-7 9v9q0 7 5 7q6 2 10 7t7 10q2 4 0 8t-7 6h-10q-9 0 -15.5 -4.5t-14.5 -9.5q-7 -9 -7 -19q-2 -5 -1 -10.5t1 -11.5q0 -2 1.5 -3.5t1.5 -3.5q3 -4 7 -7.5t6 -6.5q5 -9 21 -12q6 0 11.5 0.5t12.5 4.5q2 2 5 3.5t6 3.5q4 5 8.5 9t7.5 10
q2 5 5.5 8t10.5 7h1q1 0 3 2q8 4 15 7t15 5h7.5t8.5 2q5 0 9 0.5t9 2.5h17q4 0 8.5 -1t8.5 1q13 0 24 -8q5 0 5 -4q2 -4 -2 -11t-7 -9q-17 0 -32 -5q-10 0 -20 -1t-20 1h-7h-20h-14l-2 -2q-5 0 -10 -4.5t-3 -9.5q0 -4 3.5 -7t6.5 -5q12 -5 23 -3h2h21h13q4 -2 7 -1t5 1h13h9
q7 4 15.5 4t13.5 4q5 2 9 2t9 5l8 6t6 8q0 5 2 5q9 12 5 19q-2 11 -6 19.5t-15 13.5q-5 2 -8.5 2.5t-6.5 2.5q-11 8 -23 5h-7t-9 2z" />
    <glyph glyph-name=".null" horiz-adv-x="0" 
 />
    <glyph glyph-name="nonmarkingreturn" unicode="&#xd;" horiz-adv-x="230" 
 />
    <glyph glyph-name="NULL" horiz-adv-x="0" 
 />
    <glyph glyph-name="NULL" horiz-adv-x="0" 
 />
    <glyph glyph-name="space" unicode=" " horiz-adv-x="230" 
 />
    <glyph glyph-name="exclam" unicode="!" horiz-adv-x="143" 
d="M92 656q0 -23 0.5 -46t-0.5 -46q-1 -28 -2.5 -55.5t-3.5 -54.5v-34v-72q0 -11 0.5 -21t0.5 -21q-1 -23 -1.5 -45.5t-1.5 -45.5q0 -11 -0.5 -21t-1.5 -21q0 -20 -6.5 -30.5t-22.5 -15.5q-15 -5 -27 6q-22 17 -25 43q-2 8 0 14q2 11 3 21t3 20q2 12 1.5 23t-4.5 22
q-2 7 -0.5 14.5t2.5 15.5q1 6 1.5 12t0.5 13q1 2 0 3t-1 2q6 24 1.5 48t-1.5 49q6 37 2 73q-3 29 -2.5 57.5t1.5 57.5q2 29 7 52q3 18 20 21q11 2 21 3t21 -5t12 -16t3 -20zM39 -2q-21 1 -29 21q-2 5 -3.5 10.5t-3.5 10.5q-5 11 1.5 25.5t17.5 18.5q14 4 26.5 2t23.5 -11
q8 -7 10.5 -17t1 -20t-7.5 -18.5t-15 -12.5q-5 -2 -11 -4.5t-11 -4.5z" />
    <glyph glyph-name="quotedbl" unicode="&#x22;" horiz-adv-x="233" 
d="M80 646q0 -18 -0.5 -34t0.5 -32q0 -19 -10 -28t-24 -11q-17 -2 -29.5 6.5t-14.5 25.5q-2 11 -1.5 20.5t0.5 19.5q0 13 0.5 25t0.5 24q1 10 6 17t13 12q16 11 31 6.5t22 -23.5q2 -8 3 -15t3 -13zM183 646q0 -18 -0.5 -34t0.5 -32q0 -19 -10 -28t-24 -11q-17 -2 -29.5 6.5
t-14.5 25.5q-2 11 -1.5 20.5t0.5 19.5q0 13 0.5 25t0.5 24q1 10 6 17t13 12q16 11 31 6.5t22 -23.5q2 -8 3 -15t3 -13z" />
    <glyph glyph-name="numbersign" unicode="#" horiz-adv-x="396" 
d="M71 570q0 19 -0.5 40.5t0.5 42.5q1 23 8 31.5t26 11.5q11 2 19.5 -4t15.5 -14q11 -17 10.5 -33.5t1.5 -32.5q1 -6 1 -12.5t1 -11.5q2 -10 2.5 -19t-4.5 -19q-6 -11 9 -11q8 1 15.5 0t15.5 -2q12 -3 12 11q-2 14 -3 29l-2 30v56q0 9 3 16t12 10q11 4 22 7t22 -5
q8 -6 14 -13.5t7 -19.5q0 -9 3 -15q5 -13 1.5 -25t-1.5 -25q2 -11 2.5 -21.5t2.5 -21.5q2 -7 11 -9q9 -3 21 -3q14 -2 19 -10t7 -19t-0.5 -21t-13.5 -16q-7 -4 -15.5 -6t-16.5 -4q-5 -1 -8.5 -3t-4.5 -8q-1 -9 -1 -18.5v-19.5q0 -6 1.5 -12.5t0.5 -13.5q-6 -30 0 -59
q2 -2 0 -4q-8 -18 -5.5 -36.5t0.5 -36.5q0 -7 1 -13t3 -12t6.5 -7t9.5 0q21 2 29 -8.5t13 -24.5q5 -17 -7 -31.5t-29 -14.5h-4q-19 0 -22.5 -4t-0.5 -23v-10q0 -14 -0.5 -28.5t-0.5 -29.5q0 -16 -13 -29.5t-29 -15.5q-14 -1 -28 7.5t-14 31.5q0 11 0.5 21t0.5 20
q0 6 -1 11.5t-1 11.5q-1 13 0 25q3 12 -9 13q-3 0 -6 0.5t-6 0.5q-18 -1 -22.5 -6t-3.5 -23q1 -22 0.5 -43.5t-11.5 -43.5q-7 -15 -26 -18t-31 9q-8 8 -11 18.5t-4 21.5q-2 18 -1.5 37t0.5 38q0 9 -8 9h-9q-5 1 -11.5 0.5t-10.5 3.5q-8 7 -13.5 15.5t-10.5 17.5q-2 4 0 9.5
t6.5 11.5t10.5 10.5t11 5.5q6 2 12.5 2.5t12.5 1.5q14 3 13 17q-2 14 -0.5 27t-2.5 27q-2 7 0.5 15t2.5 17q1 18 1 36t1 37v16t1 16q0 8 -1 12q-2 7 -3 11.5t-2.5 6.5t-5.5 1t-11 -4q-7 -2 -15 0.5t-14.5 8t-10.5 13t-3 15.5q2 16 16.5 31t30.5 17q13 1 15 3t3 16
q0 2 0.5 4.5zM151 250q-1 -11 -1 -17.5t2.5 -9t8.5 -2.5t17 1q3 0 6 1t6 0q8 0 9.5 3.5t0.5 9.5t-1 13t-1 14q-2 15 2 30t1 32q-2 11 0 23t-2 24q0 2 0.5 4.5t0.5 4.5q1 16 1 31v31q0 13 -14 10q-7 -1 -16 2q-11 3 -13.5 1t-3.5 -13q-1 -27 -1.5 -54.5t-1.5 -54.5
q-1 -22 -0.5 -42.5t0.5 -41.5z" />
    <glyph glyph-name="dollar" unicode="$" horiz-adv-x="306" 
d="M81 447q2 -11 3.5 -21t3.5 -20q2 -14 10.5 -19.5t19.5 -9.5q5 -2 10 -3.5t10 -1.5q20 1 34 -8t28 -20q29 -22 44 -53q18 -36 7 -74q-5 -15 -12.5 -29.5t-26.5 -19.5q-3 -1 -5.5 -3.5t-5.5 -4.5q-8 -5 -15 -9.5t-15 -7.5q-11 -5 -13 -8.5t-3 -16.5l-2 -20t-1 -20
q-1 -12 2 -26q5 -14 -3 -30t-22 -18q-23 -5 -40 9.5t-18 38.5v77q0 8 -3 12t-12 4q-8 0 -16 6q-14 9 -24 21t-13 29q-6 41 31 53q9 2 16.5 0.5t13.5 -10.5q7 -14 19 -18.5t23 -13.5q2 -2 9 -1t15.5 3t15.5 5t9 6q4 5 8 8.5t8 8.5q2 7 1 11q-9 15 -21 30q-1 2 -4 2t-5 1l-8 2
t-8 1q-9 1 -17 5t-15.5 9t-15.5 9t-17 4q-9 9 -18.5 18t-17.5 20q-5 6 -8 13t-6 15q-7 14 -9.5 28t0.5 29q2 8 1 17.5t1 17.5q3 26 11.5 48.5t30.5 38.5q15 12 27 25q2 1 2 4v5v39q0 19 10 39q10 18 24.5 21.5t29.5 -10.5q9 -9 15.5 -20t1.5 -27q-2 -6 -1.5 -12.5t1.5 -13.5
q1 -8 3.5 -13.5t13.5 -7.5q7 0 15 -8q12 -13 25 -23.5t15 -29.5q0 -4 2.5 -7.5t4.5 -6.5q6 -14 1 -27t-19 -18q-20 -7 -31.5 -2.5t-22.5 22.5q-4 5 -8.5 10t-9.5 10q-2 2 -4.5 2.5t-4.5 1.5q-14 3 -29.5 -7.5t-18.5 -24.5q-1 -5 -2 -9l-2 -8q-1 -5 -0.5 -9t0.5 -9h-3z" />
    <glyph glyph-name="percent" unicode="%" horiz-adv-x="417" 
d="M367 662q0 -17 -8 -31.5t-16 -28.5q-1 -2 -2 -3t-2 -3q-10 -20 -19.5 -41t-20.5 -41q-5 -11 -10.5 -20.5t-8.5 -20.5q-5 -18 -13 -35t-17 -34l-6 -14t-8 -13q-7 -10 -11 -21t-9 -22q-7 -15 -14 -29.5t-14 -29.5q-5 -11 -10 -23t-10 -23q-3 -8 -6.5 -14.5t-7.5 -13.5
q-5 -11 -9.5 -20t-9.5 -20q-5 -8 -8 -17.5t-8 -17.5q-6 -12 -12.5 -24t-13.5 -24q-2 -4 -3.5 -8.5t-3.5 -9.5q-4 -17 -14 -28t-22 -22q-8 -8 -15.5 -7.5t-16.5 7.5q-22 17 -15 47q4 14 10 27t14 27q8 15 17.5 29t10.5 33q0 2 2 6q8 15 15.5 29.5t14.5 28.5q4 8 7 16t7 16
q3 7 6 13t6 13q5 11 10.5 21.5t10.5 21.5q8 15 15 30t15 31q3 6 6.5 12.5t6.5 12.5q5 12 11 24t11 24q2 6 4 12.5t4 12.5t3 8q9 9 13 20t9 22q2 6 5.5 11t6.5 11q4 8 8 15.5t8 15.5q7 14 13 28l12 28q4 8 7 15t8 15q8 12 16.5 15t22.5 -4q11 -5 19.5 -13t8.5 -22zM154 599
q-3 -15 -5.5 -30t-5.5 -29q-1 -5 -4 -9t-6 -7l-13.5 -13.5t-13.5 -12.5q-9 -8 -27.5 -8.5t-29.5 6.5q-17 11 -27.5 26t-15.5 33q-14 54 10 103q8 16 20 27t33 14q13 2 22.5 0t19.5 -9q11 -8 20.5 -17.5t12.5 -24.5q2 -13 4.5 -25t5.5 -24zM59 596q2 -10 4 -18.5t5 -16.5
q4 -7 10 -8q2 0 4.5 3t3.5 6q2 10 4 19.5t2 19.5q0 8 -2 15.5t-4 15.5q0 2 -3.5 4.5t-6.5 2.5q-2 0 -4.5 -2t-3.5 -4q-6 -20 -9 -37zM367 112q-2 -14 -4.5 -29t-6.5 -30q-1 -5 -4 -8.5t-6 -7.5q-7 -7 -13 -13.5t-14 -12.5q-9 -8 -27.5 -8t-29.5 7q-17 10 -27 25t-15 33
q-7 26 -5 52.5t14 50.5q8 17 20.5 28t32.5 13q23 4 42 -9q12 -8 21.5 -17.5t11.5 -24.5q2 -12 4.5 -24t5.5 -25zM272 109q2 -9 4.5 -18t5.5 -17q2 -6 10 -8q2 0 4 3.5t3 5.5q2 10 4 19.5t2 20.5q1 8 -1 15.5t-4 15.5q-1 2 -4.5 4t-5.5 2q-7 0 -9 -6q-3 -9 -5 -18.5t-4 -18.5
z" />
    <glyph glyph-name="ampersand" unicode="&#x26;" horiz-adv-x="310" 
d="M125 359q13 -3 26 -5.5t26 -5.5q6 -3 14 -12q11 -16 5.5 -30t-24.5 -19q-14 -4 -28 -6.5t-29 2.5q-14 4 -18 0.5t-8 -16.5q-4 -8 -5 -12q-2 -7 -4.5 -13.5t-1.5 -13.5q2 -9 2.5 -18t-5.5 -18q-2 -2 0 -5q6 -16 5 -31.5t-1 -32.5q-1 -13 1.5 -25.5t15.5 -21.5
q6 -4 14.5 -5.5t17.5 0t16.5 5.5t10.5 10q6 12 6 27q1 12 -3.5 15.5t-16.5 2.5q-26 -3 -37 17q-6 13 -4.5 22.5t11.5 21.5q5 5 9 11t9 11t9.5 8t8.5 8q10 9 19.5 18t18.5 18q3 3 7 9q11 13 23 13.5t27 -8.5q28 -16 11 -47q-4 -5 -8 -10.5t-8 -10.5l-20 -20q-5 -7 -1 -14
q6 -11 11 -22.5t10 -22.5q1 -3 1 -9q-2 -26 -7 -50.5t-28 -44.5q-28 -25 -63 -31q-12 -2 -23.5 -4t-23.5 3q-21 8 -42 17t-31 32q-8 18 -14 37t-2 39q2 9 1 18.5t-2 18.5q-2 12 -3 23.5t4 23.5q2 5 0.5 10.5t-1.5 10.5q-2 19 3.5 35.5t11.5 33.5q7 16 -1 33q-7 14 -12.5 28
t-3.5 31q2 9 0.5 19t0.5 19q3 14 7 28t11 28q6 12 15 23l18 22q2 3 6.5 4.5t9.5 2.5q14 2 27 5t26 1q20 -2 36 -13t27 -28q8 -12 13.5 -25t3.5 -30q-2 -10 -4 -19.5t-11 -13.5q-11 -5 -23.5 -3.5t-22.5 9.5q-6 5 -10 12.5t-9 14.5q-2 4 -4.5 8t-5.5 7q-12 11 -19 -4
q-6 -14 -11.5 -27t-7.5 -29q-2 -23 8.5 -35t33.5 -8h9v3z" />
    <glyph glyph-name="quotesingle" unicode="'" horiz-adv-x="130" 
d="M80 646q0 -18 -0.5 -34t0.5 -32q0 -19 -10 -28t-24 -11q-17 -2 -29.5 6.5t-14.5 25.5q-2 11 -1.5 20.5t0.5 19.5q0 13 0.5 25t0.5 24q1 10 6 17t13 12q16 11 31 6.5t22 -23.5q2 -8 3 -15t3 -13z" />
    <glyph glyph-name="parenleft" unicode="(" horiz-adv-x="257" 
d="M13 186q-2 6 -5 12.5t-5 12.5l-2 8t-1 9q0 12 0.5 24.5t0.5 24.5q0 26 -0.5 50.5t0.5 50.5v45t4 45q3 16 4 32t6 31q5 16 8.5 31t8.5 31q0 1 2 5q21 29 38 60t44 56q11 9 22.5 14.5t24.5 8.5q9 2 18 -2t15 -11.5t9 -17t0 -18.5q-6 -21 -24 -32q-11 -6 -20 -15t-17 -18
q-10 -12 -18 -25t-17 -26q-1 -1 -1 -3q-7 -23 -15 -45.5t-10 -47.5v-17q0 -4 0.5 -8t-1.5 -6q-8 -12 -6.5 -24.5t1.5 -25.5q0 -15 -0.5 -30t-0.5 -29v-31.5t2 -30.5q2 -17 0.5 -34.5t7.5 -33.5q-3 -15 1.5 -28.5t9.5 -26.5q28 -73 85 -121q5 -5 9 -12l8 -14q2 -2 1.5 -5.5
t-1.5 -6.5q-2 -8 -8.5 -13.5t-15.5 -8.5t-18 -3t-15 5q-8 7 -16.5 12t-13.5 16q0 1 -1.5 1.5t-2.5 1.5q-20 8 -32.5 22.5t-20.5 34.5q-6 14 -13 26.5t-13 25.5q-2 4 -2.5 7t-2.5 7q-2 8 -4 15t-4 15t-4 14.5t-4 13.5q1 1 2 1t3 1z" />
    <glyph glyph-name="parenright" unicode=")" horiz-adv-x="257" 
d="M194 186q2 -1 3 -1t2 -1q-2 -7 -4 -13.5t-4 -14.5t-4 -15t-4 -15q-2 -4 -2.5 -7t-2.5 -7q-6 -13 -13 -25.5t-13 -26.5q-8 -20 -20.5 -34.5t-32.5 -22.5q-1 -1 -2.5 -1.5t-1.5 -1.5q-5 -11 -13.5 -16t-16.5 -12q-6 -5 -15 -5t-18 3t-16 8.5t-8 13.5q-1 3 -1.5 6.5t1.5 5.5
l8 14t9 12q57 48 85 121q5 13 9.5 26.5t1.5 28.5q9 16 7.5 33.5t0.5 34.5q2 15 2 30.5v31.5q0 14 -0.5 29t-0.5 30q0 13 1.5 25.5t-6.5 24.5q-2 2 -1.5 6t0.5 8v17q-2 25 -10 47.5t-15 45.5q0 2 -1 3q-9 13 -17 26t-18 25q-8 9 -17 18t-20 15q-18 11 -24 32q-3 9 0 18.5
t9 17t15 11.5t18 2q13 -3 24.5 -8.5t22.5 -14.5q27 -25 44 -56t38 -60q2 -4 2 -5q5 -16 8.5 -31t8.5 -31q5 -15 6 -31t4 -32q4 -23 4 -45v-45q1 -26 0.5 -50.5t-0.5 -50.5q0 -12 0.5 -24.5t0.5 -24.5q0 -5 -1 -9l-2 -8q-2 -6 -5 -12.5t-5 -12.5z" />
    <glyph glyph-name="asterisk" unicode="*" horiz-adv-x="219" 
d="M156 644q1 -15 -12 -21l-3 -3l-3 -3q4 -2 6 -4q5 -3 11 -5.5t9 -7.5q13 -18 -10 -27q-9 -3 -10 -5t5 -10q5 -8 4 -15t-4 -13q-4 -8 -10.5 -8.5t-13.5 1.5q-1 0 -2 0.5t-3 0.5q-12 6 -13 -7q-1 -8 -4 -14t-14 -7q-11 0 -16.5 3t-10.5 14q-2 6 -4 7.5t-8 -1.5
q-7 -4 -14.5 -5t-13.5 7q-5 7 -6 15t4 16q4 8 3 11t-8 8q-16 11 -14.5 22.5t19.5 19.5q5 3 7 5.5t0 8.5q-7 15 0 24t24 11q5 0 7 7q2 4 2.5 9t2.5 7q5 4 10.5 8t10.5 2q7 -2 14 -6.5t9 -13.5q0 -2 0.5 -4.5t0.5 -4.5q0 -7 2.5 -7t7.5 2q1 1 1.5 1t1.5 1q11 14 25 4
q7 -3 9 -9t1 -14z" />
    <glyph glyph-name="plus" unicode="+" horiz-adv-x="256" 
d="M65 257q0 1 -0.5 3.5t-0.5 5.5v16.5t1 16.5q2 14 -11 13q-8 -1 -17.5 -1t-18 2.5t-13.5 8.5t-4 17q0 16 0.5 24t3 12t7.5 5t13 3t16.5 3t16.5 3q5 1 8 3t1 8q-3 20 -2 39.5t3 39.5q1 11 3.5 18.5t13.5 11.5q19 5 36 -9q1 0 1 -1t1 -1q14 -9 18.5 -20.5t-0.5 -28.5
q-4 -13 -1 -26.5t4 -27.5q1 -2 3 -4t4 -2q5 -1 9.5 -0.5t9.5 -0.5q24 -3 33 -24q4 -11 1 -22t-9 -20q-2 -4 -8 -5.5t-11 -3.5q-2 -1 -5 -0.5t-5 0.5q-36 0 -26 -35q3 -12 3 -24q2 -14 -4.5 -24t-17 -15.5t-22.5 -6t-21 5.5q-6 4 -8.5 14t-5.5 19q-1 1 1 10z" />
    <glyph glyph-name="comma" unicode="," horiz-adv-x="135" 
d="M85 48q-3 -29 -14 -49t-35 -31q-16 -8 -29 5q-5 7 -6.5 16t3.5 15t5 10.5t-1 11.5q-3 18 3 36q5 13 16.5 18t23.5 2q16 -4 25 -14t9 -20z" />
    <glyph glyph-name="hyphen" unicode="-" horiz-adv-x="285" 
d="M182 309q-8 2 -15 3t-14 1q-13 0 -25.5 -1.5t-25.5 -0.5q-16 0 -31 -0.5t-30 -2.5q-10 -1 -21 8q-11 8 -13.5 18.5t-5.5 21.5q-2 8 7 18t20 13q8 2 15.5 4t15.5 1q19 -2 38 -2h39q8 0 16.5 1.5t16.5 0.5q11 0 21.5 -1t20.5 -4q17 -5 21.5 -19.5t-4.5 -31.5
q-8 -14 -20.5 -19t-25.5 -8z" />
    <glyph glyph-name="period" unicode="." horiz-adv-x="135" 
d="M41 90q15 0 25 -6.5t13 -17.5q5 -13 5 -27q0 -8 -4.5 -15.5t-11.5 -13.5t-15.5 -9t-16.5 -2q-14 2 -23.5 9t-10.5 18q0 7 -1 14t0 13.5t4.5 12.5t11.5 11q7 4 13.5 7.5t10.5 5.5z" />
    <glyph glyph-name="slash" unicode="/" horiz-adv-x="417" 
d="M367 662q0 -17 -8 -31.5t-16 -28.5q-1 -2 -2 -3t-2 -3q-10 -20 -19.5 -41t-20.5 -41q-5 -11 -10.5 -20.5t-8.5 -20.5q-5 -18 -13 -35t-17 -34l-6 -14t-8 -13q-7 -10 -11 -21t-9 -22q-7 -15 -14 -29.5t-14 -29.5q-5 -11 -10 -23t-10 -23q-3 -8 -6.5 -14.5t-7.5 -13.5
q-5 -11 -9.5 -20t-9.5 -20q-5 -8 -8 -17.5t-8 -17.5q-6 -12 -12.5 -24t-13.5 -24q-2 -4 -3.5 -8.5t-3.5 -9.5q-4 -17 -14 -28t-22 -22q-8 -8 -15.5 -7.5t-16.5 7.5q-22 17 -15 47q4 14 10 27t14 27q8 15 17.5 29t10.5 33q0 2 2 6q8 15 15.5 29.5t14.5 28.5q4 8 7 16t7 16
q3 7 6 13t6 13q5 11 10.5 21.5t10.5 21.5q8 15 15 30t15 31q3 6 6.5 12.5t6.5 12.5q5 12 11 24t11 24q2 6 4 12.5t4 12.5t3 8q9 9 13 20t9 22q2 6 5.5 11t6.5 11q4 8 8 15.5t8 15.5q7 14 13 28l12 28q4 8 7 15t8 15q8 12 16.5 15t22.5 -4q11 -5 19.5 -13t8.5 -22z" />
    <glyph glyph-name="colon" unicode=":" horiz-adv-x="136" 
d="M1 259q0 43 47 43q12 0 23.5 -12.5t11.5 -26.5q-1 -22 -13.5 -34.5t-32.5 -13.5q-15 0 -26 13.5t-10 30.5zM85 406q3 -29 -14 -40q-19 -13 -40 -2q-15 8 -22 25.5t0 30.5q10 17 29.5 23.5t34.5 -4.5q4 -3 6 -8l4 -10t1.5 -9t0.5 -6z" />
    <glyph glyph-name="semicolon" unicode=";" horiz-adv-x="140" 
d="M86 247q-2 -11 -4.5 -22.5t-7.5 -22.5q-6 -13 -16 -21.5t-27 -9.5q-8 -1 -13 2.5t-10 9.5q-9 17 3 26q7 6 6 10t-6 9q-11 13 -10.5 30t10.5 31q7 9 14.5 15.5t20.5 4.5t23 -9t13 -20q2 -8 2.5 -16t1.5 -17zM4 403q0 19 11.5 31t28.5 11q20 0 32 -12.5t14 -34.5
q0 -6 -4 -13t-10 -13t-13 -10t-13 -4q-20 1 -33.5 13t-12.5 32z" />
    <glyph glyph-name="less" unicode="&#x3c;" horiz-adv-x="220" 
d="M123 531q15 0 25 -3t15 -12q9 -16 -2 -37q-16 -25 -30 -50t-30 -50q-11 -17 -9.5 -31.5t14.5 -29.5q6 -8 11.5 -17.5t10.5 -18.5q1 -1 1 -2.5t1 -2.5q14 -9 19.5 -23t13.5 -26q18 -31 -18 -49q-13 -6 -21.5 -4t-19.5 10q-9 8 -15.5 16t-11.5 18q-5 9 -11 17t-12 17
q-7 11 -13.5 22.5t-13.5 22.5q-7 12 -18 25q-10 12 -8.5 23.5t8.5 22.5q10 17 19.5 34t19.5 34q11 19 21.5 37t21.5 36q15 23 32 21z" />
    <glyph glyph-name="equal" unicode="=" horiz-adv-x="303" 
d="M196 352q-8 1 -15.5 2t-15.5 1q-14 0 -27.5 -1.5t-27.5 -0.5h-33t-33 -2q-5 -1 -11 1t-11 5q-11 5 -14 13t-7 16q-2 6 8 13t21 9q8 2 16.5 3.5t17.5 0.5q20 -2 41 -1.5t42 0.5q9 0 18 1t18 0q11 0 22.5 -0.5t22.5 -3.5q18 -4 23 -14t-5 -23q-8 -10 -22 -13.5t-28 -5.5z
M196 273q-8 1 -15.5 2t-15.5 1q-14 0 -27.5 -1.5t-27.5 -0.5h-33t-33 -2q-5 -1 -11 1t-11 5q-11 5 -14 13t-7 16q-2 6 8 13t21 9q8 2 16.5 3.5t17.5 0.5q20 -2 41 -1.5t42 0.5q9 0 18 1t18 0q11 0 22.5 -0.5t22.5 -3.5q18 -4 23 -14t-5 -23q-8 -10 -22 -13.5t-28 -5.5z" />
    <glyph glyph-name="greater" unicode="&#x3e;" horiz-adv-x="220" 
d="M47 531q17 2 32 -21q11 -18 21.5 -36t21.5 -37q10 -17 19.5 -34t19.5 -34q7 -11 8.5 -22.5t-8.5 -23.5q-11 -13 -18 -25q-7 -11 -13.5 -22.5t-13.5 -22.5q-6 -9 -12 -17t-11 -17q-5 -10 -11.5 -18t-15.5 -16q-11 -8 -19.5 -10t-21.5 4q-36 18 -18 49q8 12 13.5 26
t19.5 23q1 1 1 2.5t1 2.5q5 9 10.5 18.5t11.5 17.5q13 15 14.5 29.5t-9.5 31.5q-16 25 -30 50t-30 50q-11 21 -2 37q5 9 15 12t25 3z" />
    <glyph glyph-name="question" unicode="?" horiz-adv-x="259" 
d="M208 610v-29q0 -3 -2 -7q-14 -34 -28 -65q-2 -5 -3 -10t-3 -10q-8 -23 -17 -44t-17 -44q-2 -7 -2.5 -14t-1.5 -14q-1 -15 1 -29.5t-3 -28.5q-7 -20 -6.5 -40t-4.5 -39q-2 -4 -1 -8t1 -9q-1 -20 -6.5 -38.5t-21.5 -32.5q-10 -9 -20.5 -6.5t-21.5 7.5q-18 8 -15 30
q1 11 0.5 22.5t0.5 23.5q1 6 3 11.5t3 10.5q2 26 4 50t5 50q2 23 5.5 46t8.5 46q2 14 8.5 27t11.5 27t10.5 28t11.5 28q4 10 7.5 19.5t8.5 18.5q0 2 0.5 3t0.5 2q8 27 -20 21q-5 -2 -9.5 -2.5t-8.5 -2.5q-8 -4 -17 -13q-8 -11 -16.5 -14t-21.5 3q-22 10 -29 27.5t2 33.5
q4 5 9.5 9.5t11.5 9.5q17 18 38.5 23.5t44.5 6.5q14 1 31 -2q8 -2 14.5 -5t14.5 -7q4 -2 8 -5.5t9 -6.5q11 -5 15 -13.5t6 -18.5q2 -6 1.5 -12.5t-0.5 -13.5zM66 0q-17 -1 -23 5t-8 25q-2 23 9 38t32 17q23 3 28 -19q2 -9 4 -19t0 -19q-2 -16 -12 -21.5t-30 -6.5z" />
    <glyph glyph-name="at" unicode="@" horiz-adv-x="424" 
d="M370 492q1 -11 2.5 -22.5t1.5 -22.5q-1 -14 -2 -28.5t-5 -27.5q-8 -23 -16.5 -45.5t-31.5 -36.5q-2 -1 -2.5 -2t-1.5 -2q-8 -14 -20.5 -18.5t-26.5 -2.5q-14 1 -23 -4.5t-18 -13.5q-19 -18 -43 -22.5t-47 10.5q-17 11 -26.5 27t-12.5 36q-2 15 -4.5 30.5t-3.5 31.5
q-1 21 0 42.5t1 42.5q0 1 0.5 1.5t0.5 1.5q11 13 18.5 28t20.5 26q13 12 26 13q22 1 42.5 -1t40.5 -16q15 -11 23 -25.5t12 -31.5q4 -18 3.5 -37t-8.5 -37q-1 -2 -1 -7q0 -3 2 -5q4 0 5 1l12 16t7 19q2 28 1 55.5t-6 56.5q-2 19 -6 36.5t-14 33.5q-1 1 -1 4q0 10 -5.5 15.5
t-13.5 10.5t-16 5.5t-17 2.5q-16 2 -30 -2t-29 -7q-22 -5 -38.5 -17t-20.5 -38q-3 -15 -11 -33q-6 -13 -3 -29q2 -8 1 -16t-6 -16q-2 -4 -2 -7q0 -11 1 -23t1 -23q0 -8 -0.5 -17t-1.5 -17q0 -5 -0.5 -9t0.5 -9l2 -14t1 -14q1 -14 1.5 -28t0.5 -28q0 -3 1 -6t0 -6
q-6 -20 -2.5 -39.5t8.5 -38.5l12 -57q5 -21 25 -38t41 -19q8 0 16.5 -2t16.5 -3q10 0 20 1t18 9q13 13 21 27t10 34q1 11 1 23.5t8 23.5q2 6 1 9q-2 14 4.5 23t14.5 19q7 9 15 10.5t17 -0.5q8 -2 15 -7t9 -16q9 -43 -4 -84q-2 -5 -2.5 -10.5t-1.5 -10.5q-1 -14 -5 -26.5
t-14 -23.5q-8 -11 -16.5 -21.5t-17.5 -21.5q-8 -11 -18 -17.5t-24 -8.5t-27 -5.5t-28 1.5q-9 4 -20 1t-21 -2q-14 2 -29 4t-28 8q-11 5 -19.5 14t-17.5 18q-16 16 -25.5 35.5t-15.5 39.5q-5 17 -7 34t-5 34v5q-7 29 -5.5 57t-0.5 57q0 11 -0.5 22t1.5 22q2 10 -1 20t-2 21
q1 23 0.5 46t4.5 46q4 20 5.5 39t4.5 39q5 25 14 47t25 41q9 11 22 20l26 18q5 3 10.5 4t11.5 1q8 0 15 2.5t15 7.5q18 13 38 7q4 -1 8 -1h8q23 2 44 -3t40 -21q6 -5 13 -9.5t14 -9.5q8 -5 11.5 -11.5t5.5 -14.5q3 -8 7 -14t6 -14q4 -10 7 -20t5 -21q4 -20 6.5 -39t4.5 -39
q-1 0 -1.5 -0.5t-1.5 -0.5zM200 414q-1 10 -2 18.5t-3 16.5q-2 7 -10 9q-2 1 -5.5 -1.5t-5.5 -4.5q-5 -8 -7 -16t0 -17q3 -10 1 -21q-4 -17 0.5 -33t5.5 -33q0 -2 1 -3t2 -1q5 3 6 4q2 5 3 10.5t3 11.5q2 11 4.5 23t4.5 23q2 10 2 14z" />
    <glyph glyph-name="A" unicode="A" horiz-adv-x="377" 
d="M88 321q0 -2 -0.5 -4t-0.5 -4q0 -32 0.5 -63.5t-4.5 -63.5q-3 -21 -1 -37.5t3 -37.5q0 -11 2 -20.5t4 -19.5q6 -30 -15 -59q-10 -14 -26 -13t-27 15q-9 12 -13 25t-5 27q0 8 -2.5 15t-2.5 15v29t1 29t0.5 34.5t-0.5 34.5q0 5 0.5 9.5t0.5 9.5q1 4 2 7.5t1 7.5
q-4 28 -1.5 55.5t4.5 54.5q2 34 4.5 68t8 67t16 66t29.5 66q5 8 12 14t14 13q6 6 12.5 11.5t12.5 12.5q9 11 23.5 15t28.5 -1q5 -2 11 -2h11q12 -3 27 -10t29.5 -16.5t26 -19.5t15.5 -18q11 -24 16 -49.5t11 -51.5q3 -14 4 -27.5t3 -27.5q3 -15 3.5 -30t-0.5 -30
q-2 -25 0 -49.5t-3 -50.5q-2 -11 0 -22t1 -22q-2 -17 1 -34t-2 -33q-2 -5 -0.5 -11t1.5 -11t-1 -11t-1 -13q2 -15 0 -30t-5 -30q-2 -8 -1 -10q6 -12 2.5 -24t-6.5 -23q-3 -30 -29 -38q-24 -8 -36.5 6t-13.5 34q-2 19 0 37.5t4 38.5q2 23 1.5 47t-2.5 47q0 3 0.5 6t0.5 7
q0 10 -0.5 19.5t-0.5 20.5q1 11 2 21.5t2 21.5q0 9 1 18.5t-1 17.5q-1 12 -2 23.5t1 24.5q3 12 -10 10q-22 -2 -43.5 -3t-43.5 -3q-10 -2 -19.5 -5t-20.5 -7q-3 -1 -5 -5t-3 -8zM195 482v-2q7 2 14.5 2.5t14.5 2.5q12 3 9 16q-2 9 -2 19t-1 19q-1 2 -2 5t-2 5q-1 3 -2.5 6
t-0.5 6q1 8 -2.5 13t-5.5 10q-5 11 -13 16l-16 10q-9 6 -16 5.5t-13 -5.5q-20 -12 -27 -37q-2 -5 -3.5 -9.5t-4.5 -9.5q-11 -15 -13 -32l-4 -34q-1 -11 12 -9z" />
    <glyph glyph-name="B" unicode="B" horiz-adv-x="383" 
d="M84 700q11 0 21.5 0.5t21.5 -1.5q10 -2 19.5 -2.5t17.5 -10.5q2 -3 5 -4t6 -3q8 -4 14.5 -8.5t9.5 -15.5q2 -6 7 -11.5t11 -9.5q8 -5 10.5 -11t4.5 -14q2 -11 2.5 -21.5t4.5 -19.5q6 -16 4 -31.5t-6 -29.5q-3 -11 -6 -23t-14 -20q-4 -4 -2.5 -7.5t3.5 -6.5l8.5 -8.5
t8.5 -7.5q25 -17 41.5 -41t27.5 -52q2 -3 3 -6t3 -5q10 -12 12.5 -27.5t6.5 -29.5q3 -13 2.5 -27t0.5 -27q0 -7 0.5 -13.5t-0.5 -13.5q0 -6 -1 -12t-4 -11q-18 -38 -40 -77q-3 -6 -8 -10.5t-10 -8.5q-6 -7 -11.5 -13.5t-11.5 -12.5q-6 -5 -12.5 -8t-13.5 -6q-3 -2 -6.5 -3
t-5.5 -3q-12 -10 -24.5 -13.5t-29.5 -1.5q-7 2 -14.5 -1t-15.5 -6q-23 -9 -44 -1q-9 4 -19 6.5t-20 4.5q-17 3 -26 11t-10 26q0 24 0.5 49t1.5 50q0 5 -0.5 9.5t-1.5 9.5q-1 18 -1 36t-2 36q-2 23 -1.5 45.5t5.5 44.5q2 9 0 18t-2 18q0 26 0.5 51.5t-1.5 52.5q-2 36 3 72
q0 4 -1 8t-1 9q-2 40 0 80q1 11 5.5 20.5t16.5 14.5q6 1 12 7q10 11 21.5 14.5t24.5 2.5zM255 220q-6 26 -10 52.5t-18 50.5l-10 16t-11 15q-8 8 -16 15.5t-17 12.5q-5 3 -10.5 3.5t-11.5 1.5t-12.5 0.5t-12.5 1.5q-16 4 -29.5 -5t-13.5 -25v-45q-1 -10 -2.5 -19.5
t-0.5 -19.5q2 -21 3.5 -42t3.5 -44q1 -15 0 -30.5t-2 -31.5q0 -8 -1 -15.5t-1 -15.5q0 -11 12 -12q4 0 7.5 -0.5t8.5 0.5l22 4t22 5q10 3 20 6.5t19 9.5q18 10 27 26q8 13 14 26.5t12 26.5l4 16zM160 534q-2 12 -2.5 23.5t-4.5 21.5t-11 18t-13 16q-3 3 -8 3q-7 2 -13 2.5
t-12 1.5q-9 1 -11.5 -2.5t-1.5 -12.5q0 -8 1 -15.5t1 -14.5q-1 -26 -1 -50t-1 -49q0 -2 2 -4t4 -2q26 2 47.5 18.5t23.5 45.5z" />
    <glyph glyph-name="C" unicode="C" horiz-adv-x="337" 
d="M194 539q0 12 0.5 24t-1.5 25q-1 13 -6 17t-17 6q-5 0 -9 2q-8 6 -18 5.5t-18.5 -5.5t-15 -13.5t-7.5 -18.5q-3 -17 -4.5 -34.5t-3.5 -35.5q-2 -11 -4.5 -20t-3.5 -19q-2 -11 -1.5 -21.5t0.5 -21.5q0 -3 1 -6t0 -6q-5 -20 -2 -40t1 -40q-2 -18 -0.5 -36t4.5 -37
q2 -12 0 -25t-2 -26t3 -26q5 -16 8.5 -32t9.5 -32q4 -9 10 -17.5t13 -16.5q7 -7 16 -5t14 10q6 11 11.5 22.5t10.5 23.5q8 18 12.5 37t6.5 39q1 14 1 27.5t2 26.5q2 12 9.5 21.5t17.5 17.5q1 1 2.5 1.5t3.5 1.5q6 1 14.5 -2.5t16 -10t13 -14t5.5 -13.5q0 -19 -1.5 -38
t-5.5 -38q-3 -17 -7 -33t-12 -31q-3 -5 -1 -8q3 -10 -1 -18l-8 -16q-3 -6 -6 -12.5t-7 -13.5q-3 -5 -6 -10.5t-8 -10.5q-10 -10 -20 -18l-20 -16q-4 -4 -7 -5q-8 -1 -17.5 -2.5t-17.5 0.5q-14 5 -28 8.5t-25 15.5q-4 3 -9 5t-10 5q-19 12 -26.5 30t-14.5 37q-3 8 -5.5 16.5
t-4.5 17.5q-6 19 -9 42q-6 37 -9 78q-1 8 -0.5 17.5t1.5 19.5q2 15 3 29.5t2 29.5q1 6 0 12t-1 12q0 35 -1.5 69.5t6.5 69.5q2 5 2 9.5t1 9.5q2 18 4 37t7 37q5 14 11 27.5t17 24.5q6 6 12 11t13 11q17 14 36.5 15.5t37.5 1.5q20 0 41 -6.5t35 -24.5q2 -3 6 -5t7 -5l10 -10
t8 -11q5 -9 7.5 -18.5t6.5 -18.5q2 -6 3 -11t-3 -11q-2 -2 -1.5 -4.5t0.5 -5.5q1 -17 1.5 -35t0.5 -36q0 -4 -3 -5q-8 -5 -15.5 -11t-15.5 -8q-17 -5 -30 5t-14 27q-1 8 -1.5 16.5t-0.5 16.5z" />
    <glyph glyph-name="D" unicode="D" horiz-adv-x="330" 
d="M128 696q4 -3 8.5 -4t9.5 -3q4 -2 8 -2.5t8 -2.5q11 -5 20 -9t17 -12q9 -9 16.5 -20t15.5 -22q2 -2 2 -5q12 -28 22 -54q6 -13 8 -28q2 -17 2.5 -35t2.5 -35t4.5 -35.5t2.5 -36.5q1 -21 4 -42t-2 -42q-4 -24 -2.5 -48t1.5 -47q0 -2 1 -3.5t0 -3.5q-8 -35 -16.5 -69.5
t-36.5 -60.5q-12 -11 -22.5 -24.5t-24.5 -22.5q-20 -14 -40.5 -21t-43.5 -10q-8 -2 -14 0l-20 4t-19 6q-38 15 -35 60q0 14 -0.5 27.5t-0.5 27.5q1 23 2 45t1 45q1 8 -0.5 14.5t-1.5 13.5q0 36 0.5 72t-0.5 72q0 8 -0.5 17t-2.5 18q-2 7 -1 13.5t2 13.5q2 12 3 25.5t1 27.5
q1 12 1.5 24t-0.5 25q0 16 -1 31t-2 29l-2 28t0 28q0 5 3 9.5t7 8.5q5 4 11.5 7.5t11.5 6.5zM88 103h-2q0 -3 -0.5 -6t0.5 -6q0 -5 5 -5q20 -3 35 6t26 24q11 14 19.5 29.5t10.5 34.5q0 1 2 5q8 19 12 37.5t-1 38.5q-1 3 -0.5 6.5t0.5 7.5q1 6 1.5 11.5t0.5 12.5
q1 7 0.5 14.5t-0.5 13.5q0 5 0.5 9.5t-0.5 9.5q-2 14 -1 27t-4 25q-1 2 0 4.5t1 4.5q0 3 0.5 7t-0.5 7q-1 18 -6.5 34t0.5 34q0 1 -0.5 1.5t-0.5 1.5q-2 10 -3.5 19t-3.5 17q-10 32 -24 61q-3 7 -11 11q-12 5 -24.5 11t-23.5 12q-6 3 -9 -4q-5 -14 -4 -27t3 -27q2 -10 2 -17
q-1 -6 -1.5 -12t-0.5 -12q1 -8 2 -17t1 -18q-1 -17 -1.5 -34.5t-1.5 -35.5q-1 -5 -1.5 -8t-0.5 -7q0 -23 -0.5 -45t-0.5 -45q0 -3 -0.5 -6t0.5 -6q7 -24 5.5 -47.5t-4.5 -46.5q-2 -15 1.5 -29.5t-1.5 -30.5q-2 -11 0.5 -22.5t3.5 -22.5z" />
    <glyph glyph-name="E" unicode="E" horiz-adv-x="325" 
d="M4 561q0 19 -0.5 37t0.5 37q0 25 19 41q11 11 23.5 14.5t27.5 5.5q14 1 29 3t29 2q15 0 30 -3t30 -5q7 -1 14 -1.5t15 -2.5q8 -1 15 -2t15 -4q12 -4 17.5 -14t6.5 -22q0 -5 -2 -10t-6 -8q-10 -8 -20.5 -13t-24.5 -3q-10 2 -20 1t-21 -2q-5 0 -9.5 -1t-9.5 0
q-10 2 -19 1.5t-18 -2.5q-5 -1 -15 1q-14 4 -19 0t-4 -18q2 -11 -2 -19q-5 -11 -3.5 -21t3.5 -21q2 -14 13 -7q15 11 32 10.5t34 1.5q9 2 18.5 2t18.5 1q18 3 35 -7.5t22 -26.5q4 -16 -6.5 -31.5t-31.5 -15.5q-23 -1 -42.5 -6.5t-39.5 -13.5q-14 -6 -27.5 -14t-23.5 -20
q-6 -6 -6 -14q2 -24 0 -48t5 -47q2 -8 1 -16l-2 -16q-1 -17 0 -34t-1 -34q-2 -13 0 -25.5t3 -25.5q1 -24 0 -46q0 -10 9 -9q17 4 32.5 1.5t32.5 -4.5q3 -1 6 0t6 0h27t26 -3q11 -2 18.5 -10.5t11 -19.5t1.5 -22.5t-9 -19.5q-12 -14 -32 -11q-11 1 -23 2t-23 1
q-19 0 -37 -0.5t-37 -0.5q-4 0 -12 -2q-26 -8 -44 5t-24 33q-5 11 -6 23.5t-2 25.5q-1 10 1 19.5t1 20.5q0 11 -1.5 21t-2.5 21q0 10 0.5 19.5t0.5 18.5v64q-1 13 -1 26t-1 27q-1 17 -2 33.5t-2 33.5q0 2 -0.5 5t0.5 5q4 13 2.5 25t-3.5 24q0 6 0.5 12t0.5 11q1 10 1 19v18
q1 13 1 25t1 25z" />
    <glyph glyph-name="F" unicode="F" horiz-adv-x="326" 
d="M83 689q22 1 43.5 2t44.5 2q15 1 30.5 1.5t31.5 -0.5q14 0 23.5 -6t14 -15.5t5 -20.5t-2.5 -20q-3 -10 -16 -15q-11 -5 -21.5 -8.5t-22.5 -2.5q-16 2 -31 2.5t-31 0.5h-2q-14 -7 -28.5 -7t-28.5 2q-15 2 -9 -11q4 -8 3 -15t-3 -15t-0.5 -17.5t2.5 -18.5q1 -5 4 -5.5
t7 1.5q19 11 39 11h40q24 0 47 3q18 4 30.5 -4t16.5 -25q4 -20 -0.5 -30.5t-19.5 -16.5q-11 -5 -24 -3q-27 2 -49 -8q-16 -8 -32 -14t-31 -17q-34 -23 -33 -58v-24q1 -7 1.5 -13.5t0.5 -12.5q1 -5 2 -9.5t-1 -8.5q-5 -8 -4 -16.5t3 -17.5q2 -11 1.5 -21t-1.5 -21
q-1 -18 0.5 -28.5t4.5 -28.5q2 -15 1 -30t1 -30t0.5 -29.5t-3.5 -28.5q-1 -9 -4 -17.5t-7 -16.5q-3 -8 -9 -10.5t-14 -2.5q-13 0 -26.5 9t-17.5 22q-2 8 -2.5 15.5t-0.5 15.5q0 17 1.5 34.5t0.5 34.5q0 12 -0.5 24t-1.5 23q-1 20 -1 32.5t-1 32.5q0 21 -0.5 42t-0.5 43
q-1 8 -0.5 15t0.5 15q-1 18 1 36t2 36v23.5t-1 23.5q-1 18 0.5 36t-3.5 35q-2 6 0 12.5t3 13.5q0 1 0.5 2t0.5 3v67q1 5 0.5 11t1.5 12q3 17 21 20q14 2 27 4.5t27 5.5q0 -3 1 -5z" />
    <glyph glyph-name="G" unicode="G" horiz-adv-x="338" 
d="M202 432q17 2 32.5 -3t30.5 -12q7 -3 12 -8t6 -13q1 -19 4 -37.5t-2 -38.5q-3 -14 -2 -28t0 -28q0 -8 -1 -14.5t-1 -14.5q-1 -10 -1 -19v-19q2 -17 0.5 -33t-7.5 -32q-1 -4 -1 -7.5v-6.5q2 -13 -2 -23t-12 -20q-3 -5 -6 -10.5t-7 -10.5q-27 -35 -62 -52l-7 -2
q-11 6 -22 3.5t-22 -2.5q-9 0 -18 3t-17 11q-12 11 -25.5 20.5t-24.5 21.5q-7 6 -10 15.5t-6 18.5q-3 8 -6 16.5t-5 17.5t-4.5 18.5t-3.5 19.5l-4 50l-4 50q-1 10 -1 19v19q-1 18 0 36.5t-1 36.5q-2 23 -1 45t1 45q0 9 1.5 18t2.5 18q2 16 3 31.5t4 31.5q3 17 7 34t12 32
q8 16 20.5 29.5t26.5 25.5q6 5 16.5 6t20.5 3q14 2 27.5 2.5t27.5 2.5q8 0 12 -1q59 -19 85 -71q2 -6 2 -12q1 -5 1 -11t2 -11q6 -20 3 -37.5t-9 -35.5q-2 -2 -3 -4.5t-3 -3.5q-10 -5 -20 -7t-21 1q-29 10 -23 42q4 15 -2.5 27t-8.5 26q0 2 -3.5 4.5t-6.5 3.5q-17 5 -32.5 5
t-30.5 -10q-7 -3 -10 -12q-8 -20 -13 -40t-3 -42q1 -12 -2 -23.5t-5 -23.5q-6 -41 4 -79q3 -11 1.5 -24t-1.5 -25t0.5 -24t0.5 -24t-0.5 -24.5t-1.5 -24.5q0 -8 -0.5 -16.5t4.5 -17.5t8 -18.5t-2 -20.5q-2 -3 0 -6q8 -18 14.5 -36.5t21.5 -32.5q8 -8 21 -8t21 8
q11 11 18 23.5t7 29.5q1 7 1 13.5t1 13.5q1 19 1.5 37.5t1.5 38.5q0 5 -1 10t-1 10q-1 4 -1.5 8.5t1.5 7.5q6 12 5 25t0 26q1 12 -12 15q-11 2 -21 4.5t-20 7.5q-14 7 -17.5 23.5t6.5 28.5q7 9 15 15t21 4q7 -1 13.5 0t12.5 2z" />
    <glyph glyph-name="H" unicode="H" 
d="M104 320q1 -13 -2 -25.5t-12 -23.5q-2 -2 -2 -5.5v-6.5q2 -16 2.5 -31t-3.5 -32q-3 -11 -1.5 -23t1.5 -24l-2 -28t-1 -28q0 -10 1.5 -19.5t1.5 -19.5q0 -15 -3 -30q-4 -11 -11.5 -19.5t-20.5 -9.5q-11 -1 -19.5 4.5t-15.5 13.5q-11 14 -14.5 29.5t-1.5 32.5q1 11 1.5 22
t1.5 22q2 26 3.5 62.5t2 76.5t0 80t-1 74.5t-1.5 59t-1 34.5v12t-1 11q0 4 -0.5 7.5t-0.5 6.5q1 15 2 29.5t1 28.5q0 11 -2 21t-2 20q1 16 8 36q7 19 28 12q8 -2 14.5 -4.5t13.5 -5.5q8 -5 12.5 -15t2.5 -19q0 -6 -0.5 -13t1.5 -12q6 -18 4 -35.5t-1 -35.5v-31
q0 -5 0.5 -10.5t0.5 -10.5q2 -11 10 -5l45 30q5 4 10.5 6.5t12.5 0.5q5 0 8 1.5t3 9.5q-1 46 0 92q0 9 1 18t4 18q3 14 18.5 18.5t28.5 -3.5q27 -16 23 -49v-3q3 -17 2.5 -33.5t-1.5 -33.5q-1 -14 2.5 -29t0.5 -29q-3 -13 -2.5 -25.5t1.5 -25.5t2 -25.5t-2 -25.5q-2 -2 0 -3
q5 -21 2 -41.5t-4 -41.5q0 -6 1 -8l2 -18t1 -17q0 -26 -2.5 -52t2.5 -52q1 -4 -1 -11q-5 -18 -4 -36.5t3 -36.5q1 -12 -1.5 -24.5t-4.5 -24.5l-2 -4t-1 -4q-5 -17 -11.5 -21.5t-23.5 -1.5q-15 3 -27 10q-10 5 -14 16t1 21q6 14 1 30q-2 7 -3 14t5 15q1 2 1 8q0 20 0.5 38.5
t0.5 37.5q0 20 -1 39.5t-1 39.5q-1 10 0.5 19.5t1.5 19.5q0 8 -1 14.5t-2 14.5q0 4 1.5 8t0.5 8q-3 20 2 38.5t0 38.5q0 2 -2 8q-6 -2 -8 -3q-38 -24 -52 -66q-5 -14 -8.5 -28t-1.5 -29z" />
    <glyph glyph-name="I" unicode="I" horiz-adv-x="228" 
d="M75 698h56q4 0 8.5 -1.5t7.5 -3.5q6 -5 12.5 -9t11.5 -9q9 -10 5.5 -25.5t-14.5 -20.5q-17 -6 -32 -13q-2 -2 -3.5 -6t-1.5 -8q0 -14 1 -27t1 -26q0 -11 -0.5 -21t-1.5 -21v-49t-3 -49q-2 -17 0 -35t3 -35q0 -4 0.5 -7.5t-0.5 -7.5q-5 -20 -2 -40t4 -40v-11t-1 -10
q-4 -14 -2.5 -27.5t3.5 -27.5q2 -17 2 -34.5v-35.5q0 -10 1.5 -13t12.5 -5q23 -6 29.5 -25.5t-6.5 -40.5q-10 -14 -22.5 -15t-25.5 -2h-13.5t-12.5 -1q-15 0 -30 -1t-31 1q-15 2 -21.5 13t-4.5 27q2 14 10 23t19 15q10 5 14.5 11t2.5 18q-2 14 -3 29t-3 30q0 2 -1 5t0 5
q7 18 3 35.5t-6 35.5q-2 6 0 11q5 13 3.5 26t-2.5 27q0 13 1 25l2 24q0 2 1 3t1 2q-9 14 -8 28.5t3 28.5q2 19 -1 38.5t9 36.5q2 4 1 7q-10 18 -8 36t1 35q0 9 1.5 18.5t1.5 17.5q0 3 -3 5.5t-5 4.5q-8 7 -20 12q-12 7 -15.5 18t-2.5 24q0 19 22 22q9 2 18.5 2.5t19.5 1.5
h14v1z" />
    <glyph glyph-name="J" unicode="J" horiz-adv-x="277" 
d="M134 162q2 5 4 13t3 17q2 14 3 29t2 29t0.5 27.5t-0.5 27.5v1q-1 26 -2 52.5t-2 52.5q-1 15 -2 29.5t1 30.5t1.5 33t-0.5 34q0 3 -1 6.5t1 7.5q4 13 0.5 25.5t-5.5 24.5q-2 7 -5.5 7.5t-8.5 -0.5l-26 -2t-26 0q-32 1 -48 35q-3 6 -0.5 14t7.5 15.5t12.5 12.5t14.5 5
q23 0 45 2t45 4q31 1 49 -17.5t20 -49.5q1 -10 0.5 -20t5.5 -19q2 -2 1.5 -6t-0.5 -8q-1 -8 -2 -15t-1 -15v-24.5t2 -24.5q2 -16 1.5 -31t0.5 -30q1 -18 0 -37q-2 -14 -2.5 -28.5t-2.5 -28.5q0 -9 1 -13q5 -11 6 -22t0 -23q-1 -8 -1.5 -17t-1.5 -18q-1 -8 -0.5 -16.5
t-0.5 -16.5q-2 -12 0.5 -25t-6.5 -25q-2 -1 0 -4t2 -6q0 -4 1 -8t-1 -7q-3 -11 -7 -22.5t-8 -22.5q-4 -8 -4 -12q-2 -23 -16 -37t-29 -28q-8 -8 -17 -10t-19 -2q-7 1 -14 1h-14q-31 -2 -48 22q-5 8 -11.5 15.5t-11.5 15.5q-4 7 -7 14t-4 14q-3 29 -5.5 57t-2.5 56
q0 26 3.5 52t5.5 52q1 9 0.5 18t5.5 17q5 6 10.5 10.5t14.5 2.5q1 0 2 0.5t3 0.5q7 2 13.5 3t13.5 -6t11.5 -14t4.5 -18q0 -4 0.5 -7.5t1.5 -8.5q1 -2 2 -5t-1 -5q-4 -9 -4.5 -18.5t0 -18.5t1 -18.5t-2.5 -18.5q-6 -17 -2.5 -34.5t1.5 -35.5q-1 -5 1 -10l4 -10
q2 -6 3.5 -12.5t3.5 -12.5q2 -5 4 -9.5t6 -6.5q5 -2 8.5 1.5t5.5 8.5q8 14 12.5 28.5t1.5 35.5z" />
    <glyph glyph-name="K" unicode="K" horiz-adv-x="347" 
d="M8 282v16t-1 16q-1 20 -2 39t-1 39q-1 18 -3 36t1 37q2 14 1 27.5t4 26.5q-5 22 -3 43.5t1 43.5q-1 12 0 24.5t2 24.5q2 23 20 29q23 6 39 -11q8 -9 13.5 -19t5.5 -24q0 -15 0.5 -29.5t-1.5 -29.5q-1 -9 -0.5 -18t1.5 -17q0 -2 2.5 -3.5t4.5 -1.5q7 2 11 6q9 12 18 24.5
t18 24.5l4 8t5 7q11 12 23 24t23 24q4 5 6 9.5t4 9.5q6 9 13 16t20 7q7 -1 16 4t17 3t16 -7q7 -4 9.5 -19t-1.5 -22q-9 -16 -19.5 -30.5t-25.5 -25.5q-6 -4 -10.5 -10t-9.5 -12q-6 -8 -11.5 -16.5t-11.5 -16.5q-7 -9 2 -15q17 -14 26 -32t20 -35q8 -12 9.5 -27.5t5.5 -29.5
q1 -5 2.5 -9t3.5 -9q2 -8 4.5 -17t3.5 -17q1 -23 0.5 -46t1.5 -46q1 -13 3 -25t4 -25q0 -2 1 -3t0 -2q-6 -25 -3 -50q1 -8 0 -15t-1 -15q0 -2 0.5 -2.5t0.5 -2.5q-2 -23 -3.5 -47t-4.5 -47q-1 -9 -7 -15t-14 -9t-17 -2t-16 6q-12 9 -16 21.5t-2 26.5v51v31.5t-2 31.5
q-2 15 2 30.5t-3 30.5q-2 4 0 8q5 8 3.5 14.5t-3.5 14.5q-2 11 -2 23t-1 24q0 5 1 10t-1 9q-8 14 -9.5 28.5t-3.5 29.5q-2 12 -8 23.5t-11 22.5q-2 6 -5 11.5t-5 10.5q-9 25 -25 5q-11 -12 -21.5 -25t-21.5 -25q-10 -11 -11.5 -23t0.5 -25q2 -11 3.5 -22t-1.5 -23
q-2 -8 0.5 -17.5t2.5 -19.5q1 -18 0.5 -36.5t-0.5 -36.5q0 -19 1 -37.5t1 -36.5q1 -11 1 -22.5v-22.5q0 -7 3 -13q5 -11 4.5 -22t-2.5 -22q0 -7 -3 -8q-9 -5 -17.5 -11t-18.5 -10q-8 -3 -16.5 -2t-16.5 5.5t-13.5 11t-5.5 14.5z" />
    <glyph glyph-name="L" unicode="L" horiz-adv-x="289" 
d="M9 226q-2 11 -2.5 22.5t-1.5 23.5q0 2 -0.5 3.5t0.5 3.5q4 13 4.5 26t-1 25.5t-3 25.5t-0.5 26q1 5 1 9v9q1 3 1.5 7t-1.5 6q-3 8 -3.5 15.5t4.5 15.5q2 2 1.5 6t-1.5 8q-1 12 -3.5 24.5t-0.5 24.5q3 17 1.5 33t-1.5 33q1 19 0.5 37.5t-2.5 36.5q-2 14 3 25.5t12 22.5
q5 7 13 9t16 -3q9 -6 18 -13t18 -15q5 -3 5 -6q-3 -12 -0.5 -24t-2.5 -23q-2 -4 -1.5 -8.5t1.5 -8.5q3 -8 5 -16.5t-3 -17.5q-2 -4 0 -9q4 -13 4.5 -25.5t-1.5 -26.5q-1 -15 -1.5 -29.5t-1.5 -28.5q0 -6 2 -12q4 -12 5.5 -24t-6.5 -24q-2 -4 -1 -10.5t2 -11.5q2 -11 4.5 -20
t-3.5 -20q-2 -3 -1.5 -8t1.5 -9q2 -9 2.5 -17.5t-1.5 -17.5q-2 -8 0.5 -16.5t1.5 -16.5q0 -11 -1.5 -20.5t-3.5 -20.5q0 -3 -0.5 -6.5t1.5 -5.5q6 -12 5.5 -24t-1.5 -25q0 -14 -1 -27t-1 -27q0 -1 4 -3t7 -2q12 2 23.5 4t23.5 4q9 2 19 0q11 -2 20.5 -5.5t20.5 -5.5
q17 -2 25.5 -15t5.5 -26q-3 -15 -17.5 -25.5t-29.5 -8.5q-9 2 -17.5 3t-17.5 3q-8 2 -14.5 1.5t-14.5 -5.5q-16 -11 -36 -5q-10 2 -19.5 3.5t-19.5 5.5q-29 9 -38 39q-4 14 -5.5 27.5t1.5 28.5q1 6 1.5 13t-1.5 13q-6 20 -4 40.5t1 40.5v14h2z" />
    <glyph glyph-name="M" unicode="M" horiz-adv-x="416" 
d="M268 560q-2 -7 -5 -13.5t-5 -14.5q-5 -14 -10.5 -28t-14.5 -28q-5 -7 -9 -15.5t-9 -16.5q-7 -9 -15 -17t-20 -12q-27 -9 -43 15q-5 8 -8.5 17t-7.5 18q-7 16 -12.5 32t-12.5 32q-1 2 -2.5 4t-3.5 4q-1 -2 -2 -4.5t-1 -4.5q-3 -17 -4 -34.5t1 -35.5q2 -13 1 -26.5
t-2 -27.5v-16q0 -8 0.5 -17t-3.5 -18q-3 -6 -1 -15q5 -17 3.5 -34t3.5 -34q4 -11 3.5 -23.5t0.5 -24.5q1 -14 1 -29t3 -29t0 -26.5t-1 -25.5q1 -8 0.5 -15t0.5 -15q2 -10 3 -19t-7 -18q-2 -2 -2 -5.5t-1 -6.5q-4 -23 -24 -31t-37 6q-5 5 -11 12.5t-7 14.5q-2 19 -3 37l-2 36
q-1 23 0 45t-1 45v28q-2 25 0 49.5t1 49.5q-1 17 0.5 34.5t-0.5 34.5q-2 14 0 27.5t2 27.5q-1 8 -2.5 15.5t-1.5 15.5q-1 5 -0.5 11t0.5 11q1 9 1.5 18t0.5 17q0 3 -1.5 6.5t-0.5 5.5q8 22 5.5 44t0.5 44q3 29 17.5 42.5t34.5 21.5q8 2 16 -1t13 -9q26 -31 45 -71
q8 -17 18.5 -31t21.5 -29q3 -5 4.5 -3.5t3.5 4.5q11 23 21.5 46.5t19.5 47.5q7 17 19 28t26.5 15t29.5 -1t29 -19q7 -8 11.5 -18t7.5 -21q7 -23 7.5 -45.5t-0.5 -45.5q-2 -17 -1.5 -33t1.5 -33q1 -20 2 -39.5t2 -39.5q1 -11 0 -22.5t-1 -22.5q0 -17 1 -34l2 -34q1 -11 1 -21
t1 -21q0 -11 1 -16q0 -3 1 -5.5t1 -5.5q-2 -16 1 -32.5t1 -32.5q-2 -20 -1.5 -40.5t-2.5 -41.5q-1 -2 -0.5 -4t0.5 -4q3 -19 -5.5 -33t-19.5 -25q-6 -7 -16.5 -5t-18.5 5q-11 5 -17 17t-4 23q1 5 1 14q-2 14 -1.5 28.5t2.5 29.5q3 13 1.5 26.5t-2.5 27.5q0 7 0.5 13.5
t0.5 12.5q1 7 1 14t-2 13q-5 16 -3.5 32t0.5 32q-1 26 -1.5 51.5t-1.5 51.5v30q-1 10 0 19.5t-1 19.5q-2 20 -2 40t2 40q0 4 -2 8t-4 9z" />
    <glyph glyph-name="N" unicode="N" horiz-adv-x="367" 
d="M230 500q-1 17 -2.5 34.5t-0.5 35.5q2 20 0.5 39.5t0.5 39.5q0 4 1.5 8t2.5 9q2 16 13.5 21.5t27.5 4.5q27 -2 32 -29q3 -23 4.5 -45t-0.5 -45q-2 -18 0 -36l4 -36q1 -13 2 -25.5t1 -25.5v-30.5t-1 -65t-1.5 -83.5t-1.5 -85.5t-2 -71t-1 -39.5q-2 -17 -3 -33t-11 -30
q-11 -15 -21 -15.5t-26 9.5q-19 12 -19 36q0 8 -3 15t-1 15q6 30 4.5 53.5t1.5 53.5q2 11 0 22.5t-3 23.5q0 1 -0.5 2t0.5 3q4 12 4 24.5t-1 25.5q-1 17 0 33t2 33q1 5 0.5 11t0.5 12q3 19 -15 29q-17 10 -26 28q-5 7 -11 13t-12 11q-15 16 -30.5 31t-31.5 30q-4 4 -7 6
q-8 6 -8 -4q1 -17 1.5 -35t0.5 -35q0 -10 -1.5 -19.5t-2.5 -19.5l-2 -12t0 -12q4 -22 2.5 -43t-3.5 -42q-1 -13 -0.5 -26t0.5 -26q1 -9 0 -16q-12 -51 -3 -104q2 -11 1 -23.5t-2 -24.5q-1 -8 -2 -15.5t0 -15.5q3 -24 -19 -38q-13 -8 -26 -9t-26 9q-2 2 -3.5 5.5t-2.5 6.5v24
t-1 23q-1 18 -2 35.5t-2 34.5q0 13 1 25.5t2 25.5q2 4 2 7q-2 14 0 27.5t0 26.5q-2 20 -1 38t3 37q2 17 1.5 33.5t1.5 33.5q3 20 0.5 39.5t-1.5 39.5q1 14 2.5 27t-3.5 27q-1 2 0 4.5t1 4.5q1 8 1 15v15q0 12 -2 24t3 24q3 7 2 14.5t-2 15.5q-2 22 14 38.5t37 14.5
q4 -1 8 -2.5t6 -3.5l12 -18t6 -18q1 -15 8.5 -22.5t18.5 -11.5q12 -5 19 -13.5t12 -18.5q5 -11 13 -19l16 -16q6 -5 11 -11.5t10 -11.5q14 -14 29 -26v-1l1 -1z" />
    <glyph glyph-name="O" unicode="O" horiz-adv-x="353" 
d="M300 523l3 -36v-34q-1 -21 -2.5 -41.5t1.5 -42.5q0 -3 0.5 -6t0.5 -6q-2 -26 -3.5 -52t-0.5 -52q0 -17 -3 -33t-7 -32q-1 -5 -1 -10v-10q2 -20 0.5 -38t-12.5 -35q-6 -9 -10 -18.5t-8 -20.5q-14 -33 -45 -48q-21 -9 -42 -13.5t-44 2.5q-2 1 -4.5 1t-3.5 2
q-12 13 -28.5 19.5t-29.5 18.5q-8 7 -12.5 16.5t-9.5 18.5q-2 4 -3.5 7.5t-3.5 7.5q-5 9 -8.5 18.5t-3.5 20.5q-1 12 -4.5 24.5t-5.5 26.5q-4 24 -6 50q-2 19 -3 37t-1 36q0 12 1.5 23t3.5 22q0 2 1 3.5t0 3.5q-1 22 -1.5 44.5t-1.5 44.5q0 2 -0.5 3t-0.5 3q6 15 6.5 30
t1.5 30q2 11 3 22.5t3 22.5q3 24 12 46.5t25 42.5q7 8 12.5 17.5t11.5 19.5q4 7 8.5 11.5t12.5 6.5q11 3 22.5 7t22.5 6t21 2h21q3 0 9 -2q13 -8 26 -16.5t27 -17.5q2 -2 4.5 -3.5t4.5 -4.5q8 -14 17.5 -27.5t14.5 -30.5q13 -43 12 -87zM85 431h2q1 -24 1.5 -48t0.5 -47
q0 -2 -1 -5t-1 -5q-2 -7 -3.5 -13.5t-1.5 -13.5q0 -20 1 -40.5t6 -41.5q2 -12 2.5 -24.5t2.5 -25.5q2 -11 4.5 -21t5.5 -20q5 -18 18.5 -28t26.5 -21q5 -4 11.5 -3.5t11.5 5.5q7 7 13 13.5t10 17.5q5 11 8.5 21t2.5 22q0 2 1.5 5l2.5 5q1 3 1 7v8q2 17 2.5 33.5t1.5 33.5v2
q5 12 6 24t-1 25q-1 6 -0.5 12.5t0.5 14.5l2 34t1 34t-1 33.5t-1 33.5q0 16 1.5 31t0.5 30q-1 13 -4 25t-5 24q-1 6 -2.5 12t-1.5 12t-5.5 13.5t-13 13.5t-15 10t-13.5 3q-1 0 -1 -1q-15 -7 -28.5 -15.5t-21.5 -25.5t-14.5 -35t-4.5 -39q0 -3 -0.5 -5.5t-0.5 -5.5
q-2 -18 -3.5 -37t-3.5 -37z" />
    <glyph glyph-name="P" unicode="P" horiz-adv-x="340" 
d="M290 530q-3 -16 -6 -37t-11 -42q-12 -37 -48 -57q-16 -9 -33 -16.5t-34 -15.5q-6 -2 -12.5 -2t-13.5 -2q-10 -2 -20 -3t-20 -5q-3 -1 -5 -7t-2 -11q0 -7 1.5 -13.5t3.5 -13.5q0 -2 1 -4.5t0 -4.5q-4 -14 -4 -28.5t1 -29.5q1 -5 1 -9.5v-9.5q0 -11 -0.5 -22.5t-0.5 -23.5
q0 -10 0.5 -20t0.5 -20v-24.5t-1 -24.5q0 -5 0.5 -9t0.5 -8t0.5 -7t-0.5 -6l-8 -22t-9 -21q-5 -11 -20 -11.5t-24 9.5q-8 9 -14.5 19.5t-3.5 24.5q2 2 0 4q-6 15 -3.5 30t3.5 31q0 8 -0.5 16t-1.5 16q-1 5 -1 11v11q0 4 0.5 7t0.5 6q-5 35 -1.5 70t-0.5 70q-2 14 -1 29t0 30
q0 4 -1 7t-2 7q0 3 -1 7t0 6q7 14 5.5 26.5t-2.5 25.5q-2 12 -0.5 24t1.5 23q1 5 1.5 11t0.5 11q-2 17 -1 33.5t-4 33.5q-2 10 1 21t2 22q-2 19 9 27t22.5 15t24.5 11q13 5 26.5 5.5t27.5 2.5q5 1 9.5 1h9.5q14 -2 28 -6t29 -4q7 1 14 -5t14 -11q5 -4 10 -7.5t9 -8.5
q6 -7 11 -13.5t10 -14.5q14 -22 22.5 -46.5t8.5 -57.5zM210 531q0 2 -0.5 3.5t-0.5 3.5q-2 17 -9 30t-15 27q-10 17 -20 21.5t-30 2.5q-22 -3 -40 -2q-11 1 -14 -1t-1 -13q1 -9 2.5 -18t1.5 -17q1 -11 -1 -23t1 -23q5 -18 1 -35.5t-2 -35.5q2 -11 2.5 -13.5t11.5 -2.5
q7 0 14.5 2t13.5 0q8 -3 13.5 -1t10.5 6l24 15q4 3 8 6.5t8 7.5q11 13 13.5 29t7.5 31z" />
    <glyph glyph-name="Q" unicode="Q" horiz-adv-x="355" 
d="M169 695q8 -1 21.5 -2t27.5 -3q5 -1 8.5 -4t7.5 -6q22 -19 36 -42.5t22 -50.5q8 -28 10.5 -56.5t2.5 -57.5q0 -19 -0.5 -37.5t-0.5 -38.5v-56q0 -7 -2 -10q-6 -9 -5.5 -18t2.5 -18q1 -5 1 -10.5v-10.5q-1 -23 -1.5 -45t-2.5 -44q-2 -15 -5 -30t-7 -29q-3 -13 -6 -25
t-7 -24q-2 -5 -3.5 -9t-4.5 -7q-5 -5 -4.5 -9t4.5 -9q6 -9 11.5 -18.5t9.5 -19.5q10 -29 -15 -43q-11 -6 -25 -4.5t-23 10.5q-7 7 -13.5 14t-12.5 15q-13 15 -33 9t-37.5 -3t-32.5 20q-3 4 -7.5 7t-8.5 6q-14 14 -24.5 28.5t-13.5 34.5q0 2 -1 4l-2 4q-10 14 -13.5 30
t-4.5 33q-1 14 -3.5 27t-4.5 27q-2 6 -1 9q2 18 -1 36t-6 35q-1 5 -0.5 10.5t0.5 10.5q1 13 1.5 25t1.5 24q1 14 1.5 27.5t1.5 27.5q0 2 0.5 4t-0.5 4q-4 14 -1.5 26.5t3.5 26.5q2 19 2.5 37.5t9.5 35.5q1 2 0.5 5t-0.5 5v9t2 7q7 13 14 26.5t15.5 25.5t19.5 22.5t27 17.5
q15 7 31 11.5t39 2.5zM207 154q2 8 4 16.5t3 16.5q2 27 2.5 54.5t1.5 55.5q0 6 -1.5 12.5t-1.5 13.5q1 11 2 22.5t3 22.5q1 8 2 15t1 15v25t-1 25l-2 18t-1 18q-2 14 0 26q2 11 3 20.5t-4 19.5q-4 10 -8 19t-8 19q-5 14 -16.5 20t-23.5 12q-4 2 -7 0q-14 -8 -27 -16.5
t-20 -24.5q-10 -20 -14 -41.5t-5 -43.5v-12t-2 -11q-4 -9 -3 -17.5t3 -17.5q3 -16 1 -37q0 -6 -2 -11.5t-2 -11.5q0 -16 2 -32t-3 -32q-1 -4 1 -10q2 -16 3 -31.5t3 -32.5q2 -9 2.5 -18t1.5 -18q1 -4 2 -7.5t1 -6.5q-1 -17 5 -33t11 -32q3 -10 9 -17q2 -3 5.5 -4.5t6.5 -3.5
q0 4 0.5 7t0.5 6t-1 5.5t-2 4.5q-8 14 -3 26.5t10 24.5q1 4 9 8q10 5 18 2t16 -9q14 -9 25 -19z" />
    <glyph glyph-name="R" unicode="R" horiz-adv-x="339" 
d="M93 382q0 -25 0.5 -49t-0.5 -48q0 -16 -1 -31t0 -30q0 -15 1.5 -30.5t2.5 -30.5q2 -6 1 -9q-5 -16 -4.5 -32.5t-4.5 -33.5q-2 -5 0 -10q5 -17 1.5 -33t-8.5 -31q-3 -10 -12.5 -15.5t-20.5 -7.5q-21 -4 -34 17q-7 10 -8.5 21.5t-0.5 22.5q2 14 4.5 28t4.5 28v19
q-1 20 -1.5 40t-0.5 40v72v13q-3 22 -1.5 43t2.5 43q1 10 -1 19.5t-3 19.5l-2 6t0 6q7 20 2.5 39.5t-4.5 39.5q0 4 0.5 8t0.5 9t1 9.5t-1 7.5q-5 8 -5 14.5t1 14.5v37.5t-1 38.5q-1 13 8 26.5t21 18.5q14 5 27 8t27 0q4 -1 8.5 -0.5t9.5 0.5q17 1 33.5 1.5t33.5 1.5
q5 0 15 -4q6 -2 12.5 -4.5t11.5 -5.5q4 -2 7.5 -4t5.5 -5q8 -17 20.5 -29t23.5 -26q6 -9 9 -21t5 -24q2 -11 2 -23.5t1 -24.5q0 -8 -3 -15q-26 -55 -74 -91q-18 -15 -8 -33q8 -14 6 -33q-2 -17 3 -32t12 -30q5 -10 7 -20t5 -21l6 -20l6 -20q2 -11 4.5 -21t4.5 -20
q3 -11 6.5 -22t6.5 -22q3 -9 7.5 -17.5t2.5 -19.5q-1 -3 1.5 -6.5t5.5 -6.5q11 -12 6 -30q-2 -6 -3.5 -12t-3.5 -12q-5 -21 -22 -24q-12 -2 -23.5 2t-15.5 13q-7 17 -14 32.5t-9 34.5q-2 11 -5 22t-7 22q-5 14 -10.5 28t-9.5 28q-2 10 -4.5 19.5t-5.5 19.5q-4 14 -6.5 29
t-5.5 30v2q-13 17 -14.5 37.5t-8.5 39.5q-2 4 -1.5 8t-0.5 8q-3 15 -9 30q-1 2 -4.5 3t-5.5 1q-1 0 -2.5 -3t-1.5 -5q0 -6 0.5 -11.5t0.5 -11.5h-2zM105 623q-4 -1 -10.5 0.5t-7.5 -10.5q0 -9 -0.5 -18.5t-1.5 -18.5q-2 -17 -0.5 -33.5t2.5 -33.5q1 -7 3.5 -10.5t10.5 -3.5
q11 0 21 -1.5t21 -2.5q2 0 3.5 0.5t3.5 0.5q35 8 45.5 31t2.5 52q-5 16 -16 27t-24 19q-4 2 -7 2h-46z" />
    <glyph glyph-name="S" unicode="S" 
d="M83 363q0 -13 0.5 -25.5t1.5 -25.5v-15q-3 -26 -1 -51t4 -51q2 -20 5 -39.5t6 -39.5q1 -5 6.5 -10.5t13 -10t14.5 -7t12 -0.5q11 5 14 13q8 16 14 31.5t4 34.5q-2 10 0 19.5t2 19.5q0 12 -1 24l-2 24q-1 11 -2 20.5t-5 20.5q-4 9 -4 20t-2 22q-4 20 -12.5 39t-18.5 38
q-2 4 -6 14q-5 11 -12.5 19.5t-19.5 12.5q-2 0 -4 2q-12 11 -24 21.5t-23 21.5q-6 7 -10.5 13.5t-9.5 14.5q-8 14 -10.5 30.5t0.5 31.5t8.5 30t22.5 23q10 5 17.5 13t16.5 15q5 3 9.5 5.5t9.5 3.5q14 2 28.5 3.5t28.5 -0.5t27.5 -6.5t24.5 -16.5q14 -16 24.5 -32.5
t11.5 -38.5q2 -15 -1 -26q-3 -13 -15.5 -18t-23.5 1q-14 7 -24.5 16t-15.5 24q-4 15 -21 15h-12.5t-12.5 -1q-14 -2 -19.5 -17.5t3.5 -26.5q13 -17 32 -29q26 -18 46 -40.5t31 -53.5q7 -19 15 -37t15 -37q6 -17 10 -35.5t1 -38.5q-1 -4 -1.5 -8t1.5 -7q6 -20 6.5 -40.5
t-0.5 -40.5q-1 -11 -1.5 -21t0.5 -21q2 -15 -2.5 -28t-10.5 -26q-5 -11 -8.5 -21t-8.5 -20q-13 -26 -34.5 -38.5t-47.5 -16.5q-13 -2 -26.5 1t-24.5 14q-4 4 -10 6q-14 5 -23 16t-20 20q-10 8 -11 19.5t-6 22.5q-8 17 -8.5 36.5t-7.5 37.5q-2 6 -1.5 12.5t0.5 12.5
q-1 8 -0.5 15t-0.5 15q-2 9 -4 17.5t3 18.5q3 7 1 15t-2 16q1 14 1.5 28t0.5 28q0 2 0.5 3t0.5 2q-6 14 -3 26.5t8 26.5q4 11 12.5 19t19.5 9q15 2 26.5 -7.5t13.5 -24.5q0 -2 0.5 -4.5t0.5 -4.5v-35z" />
    <glyph glyph-name="T" unicode="T" horiz-adv-x="360" 
d="M310 649q-21 -38 -66 -35q-11 1 -20.5 1t-20.5 1q-8 1 -10.5 -2t-1.5 -12q0 -14 1 -29t1 -29q0 -17 -0.5 -34.5t-0.5 -34.5v-92q0 -20 1 -40.5t1 -40.5l1 -2q-5 -12 -5 -23.5t1.5 -23l3 -23t0.5 -23.5q-2 -23 -3 -46.5t-2 -46.5q-1 -15 -1 -29.5v-29.5q1 -16 -7 -29
t-23 -18q-5 -2 -11 -1t-10 4q-29 21 -29 56q2 32 3 62.5t1 61.5q0 30 -1 60l-2 60q-1 14 -0.5 28.5t0.5 29.5q0 23 0.5 44.5t0.5 44.5q0 5 0.5 10t0.5 10q0 14 -1 27t-1 27v32t1 32q0 16 -3.5 20t-19.5 3q-11 0 -21 -1.5t-21 0.5t-21.5 5t-15.5 17q-10 20 -9 28.5t17 23.5
q10 10 23 10q16 0 32 -1.5t33 -3.5q2 0 5 -1t5 0q14 6 26 3.5t25 -4.5q7 -2 14.5 -1t15.5 1q13 -1 26 -1.5t26 0.5q15 2 27 -4t23 -14q5 -4 7 -9.5t5 -10.5v-7z" />
    <glyph glyph-name="U" unicode="U" horiz-adv-x="371" 
d="M168 7q-11 0 -22 -0.5t-22 1.5q-16 2 -31 6.5t-26 17.5q-2 2 -3 2q-20 9 -29 25.5t-16 34.5q-3 8 -5.5 17t-3.5 17q-2 19 -2.5 38t-1.5 38v6.5t-2 5.5q-4 6 -3 12l2 12q1 7 2.5 14t-0.5 13q-6 17 -4.5 33.5t2.5 33.5q4 16 5 49.5t0 69.5t-2 66.5t1 41.5q0 6 0.5 12.5
t0.5 12.5v46q0 8 1.5 15t0.5 14q-2 17 8 27.5t27 8.5q25 -2 35 -12t10 -35q1 -19 -1 -37t-3 -37q0 -23 -0.5 -45t1.5 -45t0.5 -45t-2.5 -45q-1 -29 -2 -57t1 -57q0 -13 2 -25.5t-3 -26.5q0 -4 1 -5q8 -16 6 -32.5t0 -33.5q1 -19 6.5 -36t23.5 -28q13 -8 28 -8q11 -1 23 -0.5
t23 4.5q16 5 24 17t11 27q4 15 3.5 30.5t-0.5 30.5q1 16 3 31.5t0 32.5t0.5 33t2.5 33q1 21 1 42.5t-3 42.5q-3 29 -1 58t2 58q0 17 -1.5 33.5t-2.5 33.5t-1.5 34.5t1.5 34.5q1 31 43 34q40 2 35 -36v-2q1 -6 0.5 -12t1.5 -12q8 -28 0 -51q-3 -9 1 -20q3 -8 3 -15.5
t-1 -15.5q-2 -16 -2.5 -31t-0.5 -31q0 -14 1 -28.5t1 -28.5q0 -9 -0.5 -17.5t4.5 -16.5q1 -2 1 -6q0 -17 0.5 -34t0.5 -34q0 -16 -3 -32q0 -5 -2.5 -10t-0.5 -9q5 -13 4.5 -25.5t-2.5 -25.5q-2 -12 -2.5 -24.5t-1.5 -24.5q-1 -10 -0.5 -19.5t-2.5 -17.5q-5 -16 -10.5 -31
t-12.5 -30q-2 -3 -5 -5.5t-5 -4.5q-7 -5 -13 -10.5t-13 -10.5q-5 -3 -9.5 -5t-9.5 -4q-15 -8 -31 -9.5t-33 -0.5z" />
    <glyph glyph-name="V" unicode="V" horiz-adv-x="347" 
d="M146 217q2 9 3.5 18t3.5 18q3 21 8 41t3 41q0 3 1 5.5t2 5.5q2 8 4.5 16t4.5 16q5 26 9 51.5t8 51.5q3 20 4.5 39t3.5 39q2 12 4.5 24t5.5 23q4 14 6 28t0 28q-1 7 3 13.5t10.5 11t14.5 6.5t15 0q5 -2 10 -3.5t10 -3.5q11 -5 14 -14t2 -19v-24t-4 -24q-8 -23 -11.5 -47.5
t-8.5 -48.5q-1 -3 0 -6.5t1 -7.5l-3 -24q-2 -8 -2.5 -17t-1.5 -18q-1 -7 -2 -13.5t-2 -13.5q-2 -9 -3.5 -18t-3.5 -18v-3q-5 -9 -7 -19t-3 -19.5t-2 -19.5t-5 -19q-1 -3 -1 -9q3 -20 -6 -41q-5 -11 -5.5 -24t-2.5 -26q-1 -12 -1.5 -23.5t-2.5 -22.5q-2 -13 -4.5 -25.5
t-5.5 -24.5q-5 -14 -10 -28.5t-10 -28.5q-11 -31 -40 -35q-17 -2 -28.5 5.5t-20.5 20.5t-13.5 26.5t-7.5 27.5q-3 17 -8 34t-7 34q-4 23 -6.5 47t-5.5 47q-5 34 -9 67t-9 66q-1 6 -0.5 12t0.5 11q0 11 -1.5 20.5t-7.5 18.5q-3 5 -2 9q5 23 -0.5 44t-8.5 43l-3 24
q-1 5 -2 9.5t-2 9.5t-1 9.5v9.5q0 2 0.5 5t-0.5 5q-1 15 -2.5 29.5t-2.5 28.5q-1 11 10 19.5t25 8.5q29 0 37 -25q5 -14 8 -29.5t6 -30.5q3 -17 3.5 -32.5t4.5 -32.5q3 -13 2.5 -27t7.5 -27q-4 -17 1 -32.5t8 -31.5q2 -9 2.5 -18t2.5 -18l4 -22t1 -22q-1 -18 1.5 -35.5
t4.5 -34.5q2 -14 1.5 -27.5t7.5 -27.5q2 -4 1 -9t-1 -10q-2 -8 -1 -12q0 -2 1.5 -3.5t2.5 -3.5q4 4 4 7q1 6 1.5 12t0.5 13h-2z" />
    <glyph glyph-name="W" unicode="W" horiz-adv-x="438" 
d="M88 628v-97q0 -16 1 -31.5t1 -32.5q0 -24 -0.5 -48t-1.5 -49v-42.5t1 -43.5q1 -23 2.5 -46t3.5 -47q1 -14 1 -29t4 -29q2 -10 9 -18t13 -16q0 -1 2.5 -0.5t3.5 2.5q3 3 5 11q5 23 10 45.5t10 45.5q2 5 -0.5 10.5t-1.5 10.5q5 20 9.5 40t9.5 41q2 8 9.5 12t15.5 4
q27 0 42 -20.5t10 -46.5q-1 -5 -1 -9.5t2 -7.5q6 -13 4 -25.5t-1 -24.5q0 -17 -0.5 -34t1.5 -34q1 -8 4.5 -15t7.5 -14q4 -8 12 -6.5t10 9.5q3 21 11 41t4 42q-2 9 -1 18t3 18q3 23 3.5 44.5t-1.5 44.5q-1 14 1 27.5t1 27.5q0 5 -0.5 20.5t-1 32.5t-1 32.5t-0.5 20.5
q-1 19 -0.5 37t-0.5 36q0 15 -1.5 30.5t-2.5 30.5q0 17 -1 34.5t1 35.5q1 14 10.5 21t22.5 11q15 5 31 -15q18 -26 15 -59q1 1 2.5 -17t2.5 -46.5t2 -62.5t1.5 -63t0.5 -49.5v-21.5q-3 -27 -2.5 -54t2.5 -53v-2q-3 -23 -4 -47t2 -48q1 -2 -1 -7q-7 -20 -14 -40.5t-12 -40.5
q-5 -18 -16 -31t-24 -25q-15 -13 -37 -16.5t-39 6.5q-21 13 -37 32q-16 18 -25 -2q-9 -19 -28 -25q-14 -5 -28.5 -7t-28.5 3t-23.5 16t-16.5 25q-4 7 -6.5 14t-6.5 14q-11 16 -16 33.5t-7 37.5t-3 39.5t-7 39.5q-5 15 -7 47t-1.5 73t1.5 87t2.5 87.5t2 75t-1.5 50.5
q-2 13 4 23.5t14 19.5q3 4 10.5 6t16 0.5t16.5 -5.5t11 -11q6 -13 10.5 -25t0.5 -26z" />
    <glyph glyph-name="X" unicode="X" horiz-adv-x="354" 
d="M5 50q-2 18 5 31.5t13 27.5q3 7 6 13.5t5 12.5q2 5 4 15q2 6 3 11.5t3 10.5v2q7 17 12.5 33.5t12.5 33.5q4 8 6.5 16t4.5 18q3 17 9 33.5t13 33.5q2 5 3.5 9.5t-0.5 9.5q-9 21 -17 41.5t-16 41.5q-8 20 -13.5 40t-12.5 40q-6 17 -13 34t-13 34q-5 13 -10.5 26t-8.5 27
q-2 6 1 13.5t7 12.5q5 7 11.5 12t13.5 10q4 4 8 2q12 -4 22 -9t15 -20q5 -17 10 -34.5t13 -34.5q18 -33 21 -70q1 -2 0.5 -4t1.5 -3q9 -8 11 -18t7 -19q1 -2 4 -5q2 2 3 4l18 51q2 5 3 10.5t3 10.5q11 19 15.5 40t7.5 42q4 21 21.5 39t39.5 20q11 2 19 -5t10 -18
q1 -11 0 -21.5t-5 -21.5q-8 -20 -14 -41t-13 -42q-5 -14 -9.5 -26.5t-8.5 -26.5q-5 -16 -8 -31.5t-8 -30.5q-5 -16 -11.5 -32t-13.5 -32q-5 -12 -1 -22q5 -13 10 -25.5t10 -26.5q3 -9 5.5 -18t3.5 -18q1 -11 5 -21t8.5 -20t9 -19.5t6.5 -20.5q4 -17 16 -38.5t19 -38.5
q9 -23 15 -50q2 -12 -5 -22t-18 -14q-1 0 -2 -1q-23 -10 -33 -3t-21 27q-4 6 -6 13.5t-4 14.5q-3 9 -5.5 18.5t-7.5 17.5q-10 15 -17 36t-15 37q-5 11 -8.5 21.5t-8.5 21.5q0 1 -4 5q-1 -2 -2 -3t-1 -3q-1 -16 -9.5 -29t-13.5 -28q-4 -11 -5.5 -23t-4.5 -23
q-2 -6 -3.5 -12.5t-4.5 -12.5l-12 -24t-12 -25q-2 -4 -4 -10q-5 -12 -16 -18.5t-22 -4.5q-14 2 -23.5 13t-9.5 25v7z" />
    <glyph glyph-name="Y" unicode="Y" horiz-adv-x="346" 
d="M42 698q18 -2 29 -11t19 -23q5 -8 10.5 -15t10.5 -15t9 -16t9 -16q4 -8 7 -15t7 -14q9 -14 18 0q10 15 19 31t17 33q8 16 17 30.5t22 27.5q5 5 20 5t23 -6q17 -16 16 -38q-2 -21 -10.5 -38t-22.5 -32q-2 -2 -4.5 -5.5t-2.5 -6.5q-1 -10 -6 -17.5t-10 -15.5
q-6 -9 -11.5 -18.5t-10.5 -19.5q-3 -6 -5.5 -12t-5.5 -12q-6 -13 -6.5 -25.5t1.5 -25.5q1 -5 1.5 -9t0.5 -9v-16q0 -2 1.5 -5t0.5 -5q-5 -21 -5 -42.5t2 -42.5q2 -14 -0.5 -29t-4.5 -29q0 -3 -0.5 -6t-0.5 -6q0 -35 1 -71t-1 -71q-2 -29 -6 -55q-3 -14 -17 -21.5t-31 -5.5
q-11 2 -19 11.5t-8 23.5q1 6 -0.5 12.5t-3.5 13.5q0 2 -1 4t0 4q2 15 -0.5 30.5t4.5 30.5q2 5 2 9.5v9.5q0 23 -0.5 46t0.5 46q0 14 1 28l2 28v6.5t-1 6.5q-5 10 -4 19t5 18q2 8 1 12q-4 15 -2.5 30t2.5 30q2 19 -1 34q-2 10 -8 16q-18 18 -26 46q-3 11 -9.5 21t-14.5 20
q-10 14 -21.5 27.5t-18.5 30.5q-2 4 -5 7q-30 33 -1 62q5 5 12.5 6.5t14.5 3.5z" />
    <glyph glyph-name="Z" unicode="Z" horiz-adv-x="345" 
d="M188 620h-1q-16 -2 -31.5 -0.5t-31.5 3.5q-14 2 -35.5 2h-35.5t-28 9t-19 21q-3 8 5 22.5t17 18.5q5 2 11 4.5t11 2.5q20 0 47.5 -0.5t47.5 -1.5q8 -1 16.5 -1.5t16.5 -0.5q14 0 29 1t29 2q18 1 31 -8t23 -22q6 -7 3.5 -15.5t-8.5 -15.5q-16 -21 -22.5 -45t-11.5 -49
q-2 -6 -4.5 -11t-4.5 -10q-5 -12 -10 -23.5t-8 -22.5q-8 -24 -18 -46t-19 -43q-2 -5 -3 -11t-3 -11q-4 -9 -7.5 -17.5t-7.5 -16.5l-2 -4t-1 -4q0 -16 -6 -29t-12 -27q-8 -23 -17 -45t-18 -45q-1 -4 -1 -11q-1 -5 -1 -8.5t-1 -7.5q-5 -14 -9.5 -26.5t-9.5 -26.5
q-5 -11 -2.5 -14.5t13.5 -3.5q17 -2 33 -1.5t32 -1.5q15 -2 30 -1.5t30 2.5q25 2 36.5 -12.5t3.5 -37.5v-1q-3 -8 -3.5 -17t-11.5 -12q-9 -2 -18.5 -1.5t-19.5 0.5q-4 0 -12 2h-65q-16 -1 -31.5 -1.5t-30.5 1.5q-47 5 -70 47q-2 7 -1 10q3 30 9 60q2 13 7 24q5 9 8.5 18
t1.5 19q-1 2 1 4.5t3 5.5l4 6t2 6q0 11 3.5 21t6.5 21q4 14 11 25t11 24q3 11 6.5 21t5.5 21q2 12 6 23.5t12 21.5q5 5 8 11t5 12q4 11 6.5 22.5t6.5 22.5q3 11 6.5 21.5t8.5 19.5q10 19 13.5 38.5t17.5 36.5q1 2 1 7q0 14 9 26q3 5 4 11.5t3 11.5z" />
    <glyph glyph-name="bracketleft" unicode="[" horiz-adv-x="227" 
d="M77 742q20 -2 39 -3.5t39 -4.5q5 -2 9.5 -8t7.5 -11q8 -12 2.5 -26.5t-19.5 -20.5q-9 -5 -18.5 -7t-20.5 2q-3 2 -6.5 1.5t-7.5 -0.5q-11 -2 -13 -4t-2 -13q-1 -16 -2 -31t-2 -31q0 -5 0.5 -9t0.5 -9v-13.5t-1 -13.5q0 -3 -0.5 -6.5t-0.5 -6.5q2 -33 2.5 -66t1.5 -66
q1 -13 -0.5 -25.5t-1.5 -25.5q1 -26 2 -51.5t1 -51.5q0 -17 -1 -35t-1 -35q0 -8 0.5 -16.5t1.5 -16.5v-9q-8 -23 -6 -47t0 -47q0 -2 0.5 -4t1.5 -2q8 -1 15 -2.5t14 -0.5t16 -1.5t17.5 -7.5t14.5 -11.5t7 -13.5q2 -9 0 -18.5t-10 -15.5t-16 -9.5t-19 -1.5l-12 2t-12 1
q-9 0 -18 -0.5t-17 -3.5q-8 -2 -14 -1.5t-13 4.5q-6 4 -9 5q-15 5 -21 14t-5 26l2 14t1 15q1 25 1 49.5v48.5q0 4 1 7t1 7q1 6 1 12v12v11l3 51q0 9 0.5 18.5t0.5 19.5q0 4 -0.5 7.5t-1.5 8.5t-2.5 10.5t-0.5 10.5q2 23 1 47t-3 47q-1 17 -2 34.5t4 34.5q7 25 3.5 49
t-0.5 49q2 12 0 25t-1 26q1 23 -1 45t5 45q2 5 1.5 10.5t1.5 10.5q7 11 17.5 15.5t23.5 6.5h20v1z" />
    <glyph glyph-name="backslash" unicode="\" horiz-adv-x="417" 
d="M0 662q0 14 8.5 22t19.5 13q14 7 22.5 4t16.5 -15q5 -8 8 -15t7 -15l12 -28t13 -28q4 -8 8 -15.5t8 -15.5q3 -6 6.5 -11t5.5 -11q5 -11 9 -22t13 -20q1 -2 3 -8t4 -12.5t4 -12.5q5 -12 11 -24t11 -24q3 -6 6.5 -12.5t6.5 -12.5q8 -16 15 -31t15 -30q5 -11 10.5 -21.5
t10.5 -21.5q3 -7 6 -13t6 -13q4 -8 7 -16t7 -16q7 -14 14.5 -28.5t15.5 -29.5q2 -4 2 -6q1 -19 10.5 -33t17.5 -29q8 -14 14 -27t10 -27q7 -30 -15 -47q-9 -7 -16.5 -7.5t-15.5 7.5q-12 11 -22 22t-14 28q-2 5 -3.5 9.5t-3.5 8.5q-7 12 -13.5 24t-12.5 24q-5 8 -8 17.5
t-8 17.5q-5 11 -9.5 20t-9.5 20q-4 7 -7.5 13.5t-6.5 14.5q-5 11 -10 23t-10 23q-7 15 -14 29.5t-14 29.5q-5 11 -9 22t-11 21q-5 6 -8 13l-6 14q-9 17 -17 34t-13 35q-3 11 -8.5 20.5t-10.5 20.5q-11 20 -20.5 41t-19.5 41q-1 2 -2 3t-2 3q-8 14 -16 28.5t-8 31.5z" />
    <glyph glyph-name="bracketright" unicode="]" horiz-adv-x="227" 
d="M100 741h20q13 -2 23.5 -6.5t17.5 -15.5q2 -5 1.5 -10.5t1.5 -10.5q7 -23 5 -45t-1 -45q1 -13 -1 -26t0 -25q3 -25 -0.5 -49t3.5 -49q5 -17 4 -34.5t-2 -34.5q-2 -23 -3 -47t1 -47q1 -5 -0.5 -10.5t-2.5 -10.5t-1.5 -8.5t-0.5 -7.5q0 -10 0.5 -19.5t0.5 -18.5l3 -51v-11
v-12t1 -12q0 -4 1 -7t1 -7v-48.5t1 -49.5q0 -8 1 -15l2 -14q1 -17 -5 -26t-21 -14q-3 -1 -9 -5q-7 -4 -13 -4.5t-14 1.5q-8 3 -17 3.5t-18 0.5q-6 0 -12 -1l-12 -2q-11 -2 -19 1.5t-16 9.5t-10 15.5t0 18.5q1 7 7 13.5t14.5 11.5t17.5 7.5t16 1.5t14 0.5t15 2.5q1 0 1.5 2
t0.5 4q-2 23 0 47t-6 47v9q1 8 1.5 16.5t0.5 16.5q0 17 -1 35t-1 35q0 26 1 51.5t2 51.5q0 13 -1.5 25.5t-0.5 25.5q1 33 1.5 66t2.5 66q0 3 -0.5 6.5t-0.5 6.5q-1 7 -1 13.5v13.5q0 5 0.5 9t0.5 9q-1 16 -2 31t-2 31q0 11 -2 13t-13 4q-4 0 -7.5 0.5t-6.5 -1.5
q-11 -4 -20.5 -2t-18.5 7q-14 6 -19.5 20.5t2.5 26.5q3 5 7.5 11t9.5 8q20 3 39 4.5t39 3.5v-1z" />
    <glyph glyph-name="asciicircum" unicode="^" horiz-adv-x="224" 
d="M173 529v-7q-3 -8 -5 -16t-13 -11q-8 -2 -19 3.5t-15 13.5q-6 12 -10 24.5t-9 24.5q-2 3 -2.5 5.5t-2.5 5.5q-2 -2 -3.5 -4.5t-2.5 -4.5q-5 -9 -9.5 -18.5t-9.5 -19.5q-8 -14 -21 -22t-28 -6q-14 2 -20 12t1 25q10 24 20.5 47.5t21.5 46.5q6 12 11.5 24t11.5 24
q9 20 30 14q18 -5 31 -21t16 -36q1 -5 3 -10.5t4 -10.5l2 -4t1 -4q-1 -15 4 -28t9 -27q4 -11 5 -20h-1z" />
    <glyph glyph-name="underscore" unicode="_" horiz-adv-x="478" 
d="M375 -1q-8 2 -15 3t-14 1h-22.5t-44.5 -0.5t-55 -1t-55 -0.5h-44.5h-22.5q-16 0 -31 -0.5t-30 -2.5q-10 -1 -21 8q-11 8 -13.5 18.5t-5.5 21.5q-2 8 7 18t20 13q8 2 15.5 4t15.5 1q6 -1 27 -1.5t48.5 -0.5h59h59.5h48.5h27.5q8 0 16.5 1.5t16.5 0.5q11 0 21.5 -1t20.5 -4
q17 -5 21.5 -19.5t-4.5 -31.5q-8 -14 -20.5 -19t-25.5 -8z" />
    <glyph glyph-name="grave" unicode="`" horiz-adv-x="130" 
d="M73 545q13 -16 1 -24q-4 -2 -10.5 -2.5t-9.5 1.5q-5 2 -9.5 5.5t-9.5 7.5q-2 1 -2 1.5t-2 0.5q-20 9 -25 19.5t-5 12.5q-2 5 2.5 8.5t10.5 4.5t15 -3.5t18 -11t16.5 -12.5t9.5 -8z" />
    <glyph glyph-name="a" unicode="a" horiz-adv-x="377" 
d="M88 321q0 -2 -0.5 -4t-0.5 -4q0 -32 0.5 -63.5t-4.5 -63.5q-3 -21 -1 -37.5t3 -37.5q0 -11 2 -20.5t4 -19.5q6 -30 -15 -59q-10 -14 -26 -13t-27 15q-9 12 -13 25t-5 27q0 8 -2.5 15t-2.5 15v29t1 29t0.5 34.5t-0.5 34.5q0 5 0.5 9.5t0.5 9.5q1 4 2 7.5t1 7.5
q-4 28 -1.5 55.5t4.5 54.5q2 34 4.5 68t8 67t16 66t29.5 66q5 8 12 14t14 13q6 6 12.5 11.5t12.5 12.5q9 11 23.5 15t28.5 -1q5 -2 11 -2h11q12 -3 27 -10t29.5 -16.5t26 -19.5t15.5 -18q11 -24 16 -49.5t11 -51.5q3 -14 4 -27.5t3 -27.5q3 -15 3.5 -30t-0.5 -30
q-2 -25 0 -49.5t-3 -50.5q-2 -11 0 -22t1 -22q-2 -17 1 -34t-2 -33q-2 -5 -0.5 -11t1.5 -11t-1 -11t-1 -13q2 -15 0 -30t-5 -30q-2 -8 -1 -10q6 -12 2.5 -24t-6.5 -23q-3 -30 -29 -38q-24 -8 -36.5 6t-13.5 34q-2 19 0 37.5t4 38.5q2 23 1.5 47t-2.5 47q0 3 0.5 6t0.5 7
q0 10 -0.5 19.5t-0.5 20.5q1 11 2 21.5t2 21.5q0 9 1 18.5t-1 17.5q-1 12 -2 23.5t1 24.5q3 12 -10 10q-22 -2 -43.5 -3t-43.5 -3q-10 -2 -19.5 -5t-20.5 -7q-3 -1 -5 -5t-3 -8zM195 482v-2q7 2 14.5 2.5t14.5 2.5q12 3 9 16q-2 9 -2 19t-1 19q-1 2 -2 5t-2 5q-1 3 -2.5 6
t-0.5 6q1 8 -2.5 13t-5.5 10q-5 11 -13 16l-16 10q-9 6 -16 5.5t-13 -5.5q-20 -12 -27 -37q-2 -5 -3.5 -9.5t-4.5 -9.5q-11 -15 -13 -32l-4 -34q-1 -11 12 -9z" />
    <glyph glyph-name="b" unicode="b" horiz-adv-x="383" 
d="M84 700q11 0 21.5 0.5t21.5 -1.5q10 -2 19.5 -2.5t17.5 -10.5q2 -3 5 -4t6 -3q8 -4 14.5 -8.5t9.5 -15.5q2 -6 7 -11.5t11 -9.5q8 -5 10.5 -11t4.5 -14q2 -11 2.5 -21.5t4.5 -19.5q6 -16 4 -31.5t-6 -29.5q-3 -11 -6 -23t-14 -20q-4 -4 -2.5 -7.5t3.5 -6.5l8.5 -8.5
t8.5 -7.5q25 -17 41.5 -41t27.5 -52q2 -3 3 -6t3 -5q10 -12 12.5 -27.5t6.5 -29.5q3 -13 2.5 -27t0.5 -27q0 -7 0.5 -13.5t-0.5 -13.5q0 -6 -1 -12t-4 -11q-18 -38 -40 -77q-3 -6 -8 -10.5t-10 -8.5q-6 -7 -11.5 -13.5t-11.5 -12.5q-6 -5 -12.5 -8t-13.5 -6q-3 -2 -6.5 -3
t-5.5 -3q-12 -10 -24.5 -13.5t-29.5 -1.5q-7 2 -14.5 -1t-15.5 -6q-23 -9 -44 -1q-9 4 -19 6.5t-20 4.5q-17 3 -26 11t-10 26q0 24 0.5 49t1.5 50q0 5 -0.5 9.5t-1.5 9.5q-1 18 -1 36t-2 36q-2 23 -1.5 45.5t5.5 44.5q2 9 0 18t-2 18q0 26 0.5 51.5t-1.5 52.5q-2 36 3 72
q0 4 -1 8t-1 9q-2 40 0 80q1 11 5.5 20.5t16.5 14.5q6 1 12 7q10 11 21.5 14.5t24.5 2.5zM255 220q-6 26 -10 52.5t-18 50.5l-10 16t-11 15q-8 8 -16 15.5t-17 12.5q-5 3 -10.5 3.5t-11.5 1.5t-12.5 0.5t-12.5 1.5q-16 4 -29.5 -5t-13.5 -25v-45q-1 -10 -2.5 -19.5
t-0.5 -19.5q2 -21 3.5 -42t3.5 -44q1 -15 0 -30.5t-2 -31.5q0 -8 -1 -15.5t-1 -15.5q0 -11 12 -12q4 0 7.5 -0.5t8.5 0.5l22 4t22 5q10 3 20 6.5t19 9.5q18 10 27 26q8 13 14 26.5t12 26.5l4 16zM160 534q-2 12 -2.5 23.5t-4.5 21.5t-11 18t-13 16q-3 3 -8 3q-7 2 -13 2.5
t-12 1.5q-9 1 -11.5 -2.5t-1.5 -12.5q0 -8 1 -15.5t1 -14.5q-1 -26 -1 -50t-1 -49q0 -2 2 -4t4 -2q26 2 47.5 18.5t23.5 45.5z" />
    <glyph glyph-name="c" unicode="c" horiz-adv-x="337" 
d="M194 539q0 12 0.5 24t-1.5 25q-1 13 -6 17t-17 6q-5 0 -9 2q-8 6 -18 5.5t-18.5 -5.5t-15 -13.5t-7.5 -18.5q-3 -17 -4.5 -34.5t-3.5 -35.5q-2 -11 -4.5 -20t-3.5 -19q-2 -11 -1.5 -21.5t0.5 -21.5q0 -3 1 -6t0 -6q-5 -20 -2 -40t1 -40q-2 -18 -0.5 -36t4.5 -37
q2 -12 0 -25t-2 -26t3 -26q5 -16 8.5 -32t9.5 -32q4 -9 10 -17.5t13 -16.5q7 -7 16 -5t14 10q6 11 11.5 22.5t10.5 23.5q8 18 12.5 37t6.5 39q1 14 1 27.5t2 26.5q2 12 9.5 21.5t17.5 17.5q1 1 2.5 1.5t3.5 1.5q6 1 14.5 -2.5t16 -10t13 -14t5.5 -13.5q0 -19 -1.5 -38
t-5.5 -38q-3 -17 -7 -33t-12 -31q-3 -5 -1 -8q3 -10 -1 -18l-8 -16q-3 -6 -6 -12.5t-7 -13.5q-3 -5 -6 -10.5t-8 -10.5q-10 -10 -20 -18l-20 -16q-4 -4 -7 -5q-8 -1 -17.5 -2.5t-17.5 0.5q-14 5 -28 8.5t-25 15.5q-4 3 -9 5t-10 5q-19 12 -26.5 30t-14.5 37q-3 8 -5.5 16.5
t-4.5 17.5q-6 19 -9 42q-6 37 -9 78q-1 8 -0.5 17.5t1.5 19.5q2 15 3 29.5t2 29.5q1 6 0 12t-1 12q0 35 -1.5 69.5t6.5 69.5q2 5 2 9.5t1 9.5q2 18 4 37t7 37q5 14 11 27.5t17 24.5q6 6 12 11t13 11q17 14 36.5 15.5t37.5 1.5q20 0 41 -6.5t35 -24.5q2 -3 6 -5t7 -5l10 -10
t8 -11q5 -9 7.5 -18.5t6.5 -18.5q2 -6 3 -11t-3 -11q-2 -2 -1.5 -4.5t0.5 -5.5q1 -17 1.5 -35t0.5 -36q0 -4 -3 -5q-8 -5 -15.5 -11t-15.5 -8q-17 -5 -30 5t-14 27q-1 8 -1.5 16.5t-0.5 16.5z" />
    <glyph glyph-name="d" unicode="d" horiz-adv-x="330" 
d="M128 696q4 -3 8.5 -4t9.5 -3q4 -2 8 -2.5t8 -2.5q11 -5 20 -9t17 -12q9 -9 16.5 -20t15.5 -22q2 -2 2 -5q12 -28 22 -54q6 -13 8 -28q2 -17 2.5 -35t2.5 -35t4.5 -35.5t2.5 -36.5q1 -21 4 -42t-2 -42q-4 -24 -2.5 -48t1.5 -47q0 -2 1 -3.5t0 -3.5q-8 -35 -16.5 -69.5
t-36.5 -60.5q-12 -11 -22.5 -24.5t-24.5 -22.5q-20 -14 -40.5 -21t-43.5 -10q-8 -2 -14 0l-20 4t-19 6q-38 15 -35 60q0 14 -0.5 27.5t-0.5 27.5q1 23 2 45t1 45q1 8 -0.5 14.5t-1.5 13.5q0 36 0.5 72t-0.5 72q0 8 -0.5 17t-2.5 18q-2 7 -1 13.5t2 13.5q2 12 3 25.5t1 27.5
q1 12 1.5 24t-0.5 25q0 16 -1 31t-2 29l-2 28t0 28q0 5 3 9.5t7 8.5q5 4 11.5 7.5t11.5 6.5zM88 103h-2q0 -3 -0.5 -6t0.5 -6q0 -5 5 -5q20 -3 35 6t26 24q11 14 19.5 29.5t10.5 34.5q0 1 2 5q8 19 12 37.5t-1 38.5q-1 3 -0.5 6.5t0.5 7.5q1 6 1.5 11.5t0.5 12.5
q1 7 0.5 14.5t-0.5 13.5q0 5 0.5 9.5t-0.5 9.5q-2 14 -1 27t-4 25q-1 2 0 4.5t1 4.5q0 3 0.5 7t-0.5 7q-1 18 -6.5 34t0.5 34q0 1 -0.5 1.5t-0.5 1.5q-2 10 -3.5 19t-3.5 17q-10 32 -24 61q-3 7 -11 11q-12 5 -24.5 11t-23.5 12q-6 3 -9 -4q-5 -14 -4 -27t3 -27q2 -10 2 -17
q-1 -6 -1.5 -12t-0.5 -12q1 -8 2 -17t1 -18q-1 -17 -1.5 -34.5t-1.5 -35.5q-1 -5 -1.5 -8t-0.5 -7q0 -23 -0.5 -45t-0.5 -45q0 -3 -0.5 -6t0.5 -6q7 -24 5.5 -47.5t-4.5 -46.5q-2 -15 1.5 -29.5t-1.5 -30.5q-2 -11 0.5 -22.5t3.5 -22.5z" />
    <glyph glyph-name="e" unicode="e" horiz-adv-x="325" 
d="M4 561q0 19 -0.5 37t0.5 37q0 25 19 41q11 11 23.5 14.5t27.5 5.5q14 1 29 3t29 2q15 0 30 -3t30 -5q7 -1 14 -1.5t15 -2.5q8 -1 15 -2t15 -4q12 -4 17.5 -14t6.5 -22q0 -5 -2 -10t-6 -8q-10 -8 -20.5 -13t-24.5 -3q-10 2 -20 1t-21 -2q-5 0 -9.5 -1t-9.5 0
q-10 2 -19 1.5t-18 -2.5q-5 -1 -15 1q-14 4 -19 0t-4 -18q2 -11 -2 -19q-5 -11 -3.5 -21t3.5 -21q2 -14 13 -7q15 11 32 10.5t34 1.5q9 2 18.5 2t18.5 1q18 3 35 -7.5t22 -26.5q4 -16 -6.5 -31.5t-31.5 -15.5q-23 -1 -42.5 -6.5t-39.5 -13.5q-14 -6 -27.5 -14t-23.5 -20
q-6 -6 -6 -14q2 -24 0 -48t5 -47q2 -8 1 -16l-2 -16q-1 -17 0 -34t-1 -34q-2 -13 0 -25.5t3 -25.5q1 -24 0 -46q0 -10 9 -9q17 4 32.5 1.5t32.5 -4.5q3 -1 6 0t6 0h27t26 -3q11 -2 18.5 -10.5t11 -19.5t1.5 -22.5t-9 -19.5q-12 -14 -32 -11q-11 1 -23 2t-23 1
q-19 0 -37 -0.5t-37 -0.5q-4 0 -12 -2q-26 -8 -44 5t-24 33q-5 11 -6 23.5t-2 25.5q-1 10 1 19.5t1 20.5q0 11 -1.5 21t-2.5 21q0 10 0.5 19.5t0.5 18.5v64q-1 13 -1 26t-1 27q-1 17 -2 33.5t-2 33.5q0 2 -0.5 5t0.5 5q4 13 2.5 25t-3.5 24q0 6 0.5 12t0.5 11q1 10 1 19v18
q1 13 1 25t1 25z" />
    <glyph glyph-name="f" unicode="f" horiz-adv-x="326" 
d="M83 689q22 1 43.5 2t44.5 2q15 1 30.5 1.5t31.5 -0.5q14 0 23.5 -6t14 -15.5t5 -20.5t-2.5 -20q-3 -10 -16 -15q-11 -5 -21.5 -8.5t-22.5 -2.5q-16 2 -31 2.5t-31 0.5h-2q-14 -7 -28.5 -7t-28.5 2q-15 2 -9 -11q4 -8 3 -15t-3 -15t-0.5 -17.5t2.5 -18.5q1 -5 4 -5.5
t7 1.5q19 11 39 11h40q24 0 47 3q18 4 30.5 -4t16.5 -25q4 -20 -0.5 -30.5t-19.5 -16.5q-11 -5 -24 -3q-27 2 -49 -8q-16 -8 -32 -14t-31 -17q-34 -23 -33 -58v-24q1 -7 1.5 -13.5t0.5 -12.5q1 -5 2 -9.5t-1 -8.5q-5 -8 -4 -16.5t3 -17.5q2 -11 1.5 -21t-1.5 -21
q-1 -18 0.5 -28.5t4.5 -28.5q2 -15 1 -30t1 -30t0.5 -29.5t-3.5 -28.5q-1 -9 -4 -17.5t-7 -16.5q-3 -8 -9 -10.5t-14 -2.5q-13 0 -26.5 9t-17.5 22q-2 8 -2.5 15.5t-0.5 15.5q0 17 1.5 34.5t0.5 34.5q0 12 -0.5 24t-1.5 23q-1 20 -1 32.5t-1 32.5q0 21 -0.5 42t-0.5 43
q-1 8 -0.5 15t0.5 15q-1 18 1 36t2 36v23.5t-1 23.5q-1 18 0.5 36t-3.5 35q-2 6 0 12.5t3 13.5q0 1 0.5 2t0.5 3v67q1 5 0.5 11t1.5 12q3 17 21 20q14 2 27 4.5t27 5.5q0 -3 1 -5z" />
    <glyph glyph-name="g" unicode="g" horiz-adv-x="338" 
d="M202 432q17 2 32.5 -3t30.5 -12q7 -3 12 -8t6 -13q1 -19 4 -37.5t-2 -38.5q-3 -14 -2 -28t0 -28q0 -8 -1 -14.5t-1 -14.5q-1 -10 -1 -19v-19q2 -17 0.5 -33t-7.5 -32q-1 -4 -1 -7.5v-6.5q2 -13 -2 -23t-12 -20q-3 -5 -6 -10.5t-7 -10.5q-27 -35 -62 -52l-7 -2
q-11 6 -22 3.5t-22 -2.5q-9 0 -18 3t-17 11q-12 11 -25.5 20.5t-24.5 21.5q-7 6 -10 15.5t-6 18.5q-3 8 -6 16.5t-5 17.5t-4.5 18.5t-3.5 19.5l-4 50l-4 50q-1 10 -1 19v19q-1 18 0 36.5t-1 36.5q-2 23 -1 45t1 45q0 9 1.5 18t2.5 18q2 16 3 31.5t4 31.5q3 17 7 34t12 32
q8 16 20.5 29.5t26.5 25.5q6 5 16.5 6t20.5 3q14 2 27.5 2.5t27.5 2.5q8 0 12 -1q59 -19 85 -71q2 -6 2 -12q1 -5 1 -11t2 -11q6 -20 3 -37.5t-9 -35.5q-2 -2 -3 -4.5t-3 -3.5q-10 -5 -20 -7t-21 1q-29 10 -23 42q4 15 -2.5 27t-8.5 26q0 2 -3.5 4.5t-6.5 3.5q-17 5 -32.5 5
t-30.5 -10q-7 -3 -10 -12q-8 -20 -13 -40t-3 -42q1 -12 -2 -23.5t-5 -23.5q-6 -41 4 -79q3 -11 1.5 -24t-1.5 -25t0.5 -24t0.5 -24t-0.5 -24.5t-1.5 -24.5q0 -8 -0.5 -16.5t4.5 -17.5t8 -18.5t-2 -20.5q-2 -3 0 -6q8 -18 14.5 -36.5t21.5 -32.5q8 -8 21 -8t21 8
q11 11 18 23.5t7 29.5q1 7 1 13.5t1 13.5q1 19 1.5 37.5t1.5 38.5q0 5 -1 10t-1 10q-1 4 -1.5 8.5t1.5 7.5q6 12 5 25t0 26q1 12 -12 15q-11 2 -21 4.5t-20 7.5q-14 7 -17.5 23.5t6.5 28.5q7 9 15 15t21 4q7 -1 13.5 0t12.5 2z" />
    <glyph glyph-name="h" unicode="h" 
d="M104 320q1 -13 -2 -25.5t-12 -23.5q-2 -2 -2 -5.5v-6.5q2 -16 2.5 -31t-3.5 -32q-3 -11 -1.5 -23t1.5 -24l-2 -28t-1 -28q0 -10 1.5 -19.5t1.5 -19.5q0 -15 -3 -30q-4 -11 -11.5 -19.5t-20.5 -9.5q-11 -1 -19.5 4.5t-15.5 13.5q-11 14 -14.5 29.5t-1.5 32.5q1 11 1.5 22
t1.5 22q2 26 3.5 62.5t2 76.5t0 80t-1 74.5t-1.5 59t-1 34.5v12t-1 11q0 4 -0.5 7.5t-0.5 6.5q1 15 2 29.5t1 28.5q0 11 -2 21t-2 20q1 16 8 36q7 19 28 12q8 -2 14.5 -4.5t13.5 -5.5q8 -5 12.5 -15t2.5 -19q0 -6 -0.5 -13t1.5 -12q6 -18 4 -35.5t-1 -35.5v-31
q0 -5 0.5 -10.5t0.5 -10.5q2 -11 10 -5l45 30q5 4 10.5 6.5t12.5 0.5q5 0 8 1.5t3 9.5q-1 46 0 92q0 9 1 18t4 18q3 14 18.5 18.5t28.5 -3.5q27 -16 23 -49v-3q3 -17 2.5 -33.5t-1.5 -33.5q-1 -14 2.5 -29t0.5 -29q-3 -13 -2.5 -25.5t1.5 -25.5t2 -25.5t-2 -25.5q-2 -2 0 -3
q5 -21 2 -41.5t-4 -41.5q0 -6 1 -8l2 -18t1 -17q0 -26 -2.5 -52t2.5 -52q1 -4 -1 -11q-5 -18 -4 -36.5t3 -36.5q1 -12 -1.5 -24.5t-4.5 -24.5l-2 -4t-1 -4q-5 -17 -11.5 -21.5t-23.5 -1.5q-15 3 -27 10q-10 5 -14 16t1 21q6 14 1 30q-2 7 -3 14t5 15q1 2 1 8q0 20 0.5 38.5
t0.5 37.5q0 20 -1 39.5t-1 39.5q-1 10 0.5 19.5t1.5 19.5q0 8 -1 14.5t-2 14.5q0 4 1.5 8t0.5 8q-3 20 2 38.5t0 38.5q0 2 -2 8q-6 -2 -8 -3q-38 -24 -52 -66q-5 -14 -8.5 -28t-1.5 -29z" />
    <glyph glyph-name="i" unicode="i" horiz-adv-x="228" 
d="M75 698h56q4 0 8.5 -1.5t7.5 -3.5q6 -5 12.5 -9t11.5 -9q9 -10 5.5 -25.5t-14.5 -20.5q-17 -6 -32 -13q-2 -2 -3.5 -6t-1.5 -8q0 -14 1 -27t1 -26q0 -11 -0.5 -21t-1.5 -21v-49t-3 -49q-2 -17 0 -35t3 -35q0 -4 0.5 -7.5t-0.5 -7.5q-5 -20 -2 -40t4 -40v-11t-1 -10
q-4 -14 -2.5 -27.5t3.5 -27.5q2 -17 2 -34.5v-35.5q0 -10 1.5 -13t12.5 -5q23 -6 29.5 -25.5t-6.5 -40.5q-10 -14 -22.5 -15t-25.5 -2h-13.5t-12.5 -1q-15 0 -30 -1t-31 1q-15 2 -21.5 13t-4.5 27q2 14 10 23t19 15q10 5 14.5 11t2.5 18q-2 14 -3 29t-3 30q0 2 -1 5t0 5
q7 18 3 35.5t-6 35.5q-2 6 0 11q5 13 3.5 26t-2.5 27q0 13 1 25l2 24q0 2 1 3t1 2q-9 14 -8 28.5t3 28.5q2 19 -1 38.5t9 36.5q2 4 1 7q-10 18 -8 36t1 35q0 9 1.5 18.5t1.5 17.5q0 3 -3 5.5t-5 4.5q-8 7 -20 12q-12 7 -15.5 18t-2.5 24q0 19 22 22q9 2 18.5 2.5t19.5 1.5
h14v1z" />
    <glyph glyph-name="j" unicode="j" horiz-adv-x="277" 
d="M134 162q2 5 4 13t3 17q2 14 3 29t2 29t0.5 27.5t-0.5 27.5v1q-1 26 -2 52.5t-2 52.5q-1 15 -2 29.5t1 30.5t1.5 33t-0.5 34q0 3 -1 6.5t1 7.5q4 13 0.5 25.5t-5.5 24.5q-2 7 -5.5 7.5t-8.5 -0.5l-26 -2t-26 0q-32 1 -48 35q-3 6 -0.5 14t7.5 15.5t12.5 12.5t14.5 5
q23 0 45 2t45 4q31 1 49 -17.5t20 -49.5q1 -10 0.5 -20t5.5 -19q2 -2 1.5 -6t-0.5 -8q-1 -8 -2 -15t-1 -15v-24.5t2 -24.5q2 -16 1.5 -31t0.5 -30q1 -18 0 -37q-2 -14 -2.5 -28.5t-2.5 -28.5q0 -9 1 -13q5 -11 6 -22t0 -23q-1 -8 -1.5 -17t-1.5 -18q-1 -8 -0.5 -16.5
t-0.5 -16.5q-2 -12 0.5 -25t-6.5 -25q-2 -1 0 -4t2 -6q0 -4 1 -8t-1 -7q-3 -11 -7 -22.5t-8 -22.5q-4 -8 -4 -12q-2 -23 -16 -37t-29 -28q-8 -8 -17 -10t-19 -2q-7 1 -14 1h-14q-31 -2 -48 22q-5 8 -11.5 15.5t-11.5 15.5q-4 7 -7 14t-4 14q-3 29 -5.5 57t-2.5 56
q0 26 3.5 52t5.5 52q1 9 0.5 18t5.5 17q5 6 10.5 10.5t14.5 2.5q1 0 2 0.5t3 0.5q7 2 13.5 3t13.5 -6t11.5 -14t4.5 -18q0 -4 0.5 -7.5t1.5 -8.5q1 -2 2 -5t-1 -5q-4 -9 -4.5 -18.5t0 -18.5t1 -18.5t-2.5 -18.5q-6 -17 -2.5 -34.5t1.5 -35.5q-1 -5 1 -10l4 -10
q2 -6 3.5 -12.5t3.5 -12.5q2 -5 4 -9.5t6 -6.5q5 -2 8.5 1.5t5.5 8.5q8 14 12.5 28.5t1.5 35.5z" />
    <glyph glyph-name="k" unicode="k" horiz-adv-x="347" 
d="M8 282v16t-1 16q-1 20 -2 39t-1 39q-1 18 -3 36t1 37q2 14 1 27.5t4 26.5q-5 22 -3 43.5t1 43.5q-1 12 0 24.5t2 24.5q2 23 20 29q23 6 39 -11q8 -9 13.5 -19t5.5 -24q0 -15 0.5 -29.5t-1.5 -29.5q-1 -9 -0.5 -18t1.5 -17q0 -2 2.5 -3.5t4.5 -1.5q7 2 11 6q9 12 18 24.5
t18 24.5l4 8t5 7q11 12 23 24t23 24q4 5 6 9.5t4 9.5q6 9 13 16t20 7q7 -1 16 4t17 3t16 -7q7 -4 9.5 -19t-1.5 -22q-9 -16 -19.5 -30.5t-25.5 -25.5q-6 -4 -10.5 -10t-9.5 -12q-6 -8 -11.5 -16.5t-11.5 -16.5q-7 -9 2 -15q17 -14 26 -32t20 -35q8 -12 9.5 -27.5t5.5 -29.5
q1 -5 2.5 -9t3.5 -9q2 -8 4.5 -17t3.5 -17q1 -23 0.5 -46t1.5 -46q1 -13 3 -25t4 -25q0 -2 1 -3t0 -2q-6 -25 -3 -50q1 -8 0 -15t-1 -15q0 -2 0.5 -2.5t0.5 -2.5q-2 -23 -3.5 -47t-4.5 -47q-1 -9 -7 -15t-14 -9t-17 -2t-16 6q-12 9 -16 21.5t-2 26.5v51v31.5t-2 31.5
q-2 15 2 30.5t-3 30.5q-2 4 0 8q5 8 3.5 14.5t-3.5 14.5q-2 11 -2 23t-1 24q0 5 1 10t-1 9q-8 14 -9.5 28.5t-3.5 29.5q-2 12 -8 23.5t-11 22.5q-2 6 -5 11.5t-5 10.5q-9 25 -25 5q-11 -12 -21.5 -25t-21.5 -25q-10 -11 -11.5 -23t0.5 -25q2 -11 3.5 -22t-1.5 -23
q-2 -8 0.5 -17.5t2.5 -19.5q1 -18 0.5 -36.5t-0.5 -36.5q0 -19 1 -37.5t1 -36.5q1 -11 1 -22.5v-22.5q0 -7 3 -13q5 -11 4.5 -22t-2.5 -22q0 -7 -3 -8q-9 -5 -17.5 -11t-18.5 -10q-8 -3 -16.5 -2t-16.5 5.5t-13.5 11t-5.5 14.5z" />
    <glyph glyph-name="l" unicode="l" horiz-adv-x="289" 
d="M9 226q-2 11 -2.5 22.5t-1.5 23.5q0 2 -0.5 3.5t0.5 3.5q4 13 4.5 26t-1 25.5t-3 25.5t-0.5 26q1 5 1 9v9q1 3 1.5 7t-1.5 6q-3 8 -3.5 15.5t4.5 15.5q2 2 1.5 6t-1.5 8q-1 12 -3.5 24.5t-0.5 24.5q3 17 1.5 33t-1.5 33q1 19 0.5 37.5t-2.5 36.5q-2 14 3 25.5t12 22.5
q5 7 13 9t16 -3q9 -6 18 -13t18 -15q5 -3 5 -6q-3 -12 -0.5 -24t-2.5 -23q-2 -4 -1.5 -8.5t1.5 -8.5q3 -8 5 -16.5t-3 -17.5q-2 -4 0 -9q4 -13 4.5 -25.5t-1.5 -26.5q-1 -15 -1.5 -29.5t-1.5 -28.5q0 -6 2 -12q4 -12 5.5 -24t-6.5 -24q-2 -4 -1 -10.5t2 -11.5q2 -11 4.5 -20
t-3.5 -20q-2 -3 -1.5 -8t1.5 -9q2 -9 2.5 -17.5t-1.5 -17.5q-2 -8 0.5 -16.5t1.5 -16.5q0 -11 -1.5 -20.5t-3.5 -20.5q0 -3 -0.5 -6.5t1.5 -5.5q6 -12 5.5 -24t-1.5 -25q0 -14 -1 -27t-1 -27q0 -1 4 -3t7 -2q12 2 23.5 4t23.5 4q9 2 19 0q11 -2 20.5 -5.5t20.5 -5.5
q17 -2 25.5 -15t5.5 -26q-3 -15 -17.5 -25.5t-29.5 -8.5q-9 2 -17.5 3t-17.5 3q-8 2 -14.5 1.5t-14.5 -5.5q-16 -11 -36 -5q-10 2 -19.5 3.5t-19.5 5.5q-29 9 -38 39q-4 14 -5.5 27.5t1.5 28.5q1 6 1.5 13t-1.5 13q-6 20 -4 40.5t1 40.5v14h2z" />
    <glyph glyph-name="m" unicode="m" horiz-adv-x="416" 
d="M268 560q-2 -7 -5 -13.5t-5 -14.5q-5 -14 -10.5 -28t-14.5 -28q-5 -7 -9 -15.5t-9 -16.5q-7 -9 -15 -17t-20 -12q-27 -9 -43 15q-5 8 -8.5 17t-7.5 18q-7 16 -12.5 32t-12.5 32q-1 2 -2.5 4t-3.5 4q-1 -2 -2 -4.5t-1 -4.5q-3 -17 -4 -34.5t1 -35.5q2 -13 1 -26.5
t-2 -27.5v-16q0 -8 0.5 -17t-3.5 -18q-3 -6 -1 -15q5 -17 3.5 -34t3.5 -34q4 -11 3.5 -23.5t0.5 -24.5q1 -14 1 -29t3 -29t0 -26.5t-1 -25.5q1 -8 0.5 -15t0.5 -15q2 -10 3 -19t-7 -18q-2 -2 -2 -5.5t-1 -6.5q-4 -23 -24 -31t-37 6q-5 5 -11 12.5t-7 14.5q-2 19 -3 37l-2 36
q-1 23 0 45t-1 45v28q-2 25 0 49.5t1 49.5q-1 17 0.5 34.5t-0.5 34.5q-2 14 0 27.5t2 27.5q-1 8 -2.5 15.5t-1.5 15.5q-1 5 -0.5 11t0.5 11q1 9 1.5 18t0.5 17q0 3 -1.5 6.5t-0.5 5.5q8 22 5.5 44t0.5 44q3 29 17.5 42.5t34.5 21.5q8 2 16 -1t13 -9q26 -31 45 -71
q8 -17 18.5 -31t21.5 -29q3 -5 4.5 -3.5t3.5 4.5q11 23 21.5 46.5t19.5 47.5q7 17 19 28t26.5 15t29.5 -1t29 -19q7 -8 11.5 -18t7.5 -21q7 -23 7.5 -45.5t-0.5 -45.5q-2 -17 -1.5 -33t1.5 -33q1 -20 2 -39.5t2 -39.5q1 -11 0 -22.5t-1 -22.5q0 -17 1 -34l2 -34q1 -11 1 -21
t1 -21q0 -11 1 -16q0 -3 1 -5.5t1 -5.5q-2 -16 1 -32.5t1 -32.5q-2 -20 -1.5 -40.5t-2.5 -41.5q-1 -2 -0.5 -4t0.5 -4q3 -19 -5.5 -33t-19.5 -25q-6 -7 -16.5 -5t-18.5 5q-11 5 -17 17t-4 23q1 5 1 14q-2 14 -1.5 28.5t2.5 29.5q3 13 1.5 26.5t-2.5 27.5q0 7 0.5 13.5
t0.5 12.5q1 7 1 14t-2 13q-5 16 -3.5 32t0.5 32q-1 26 -1.5 51.5t-1.5 51.5v30q-1 10 0 19.5t-1 19.5q-2 20 -2 40t2 40q0 4 -2 8t-4 9z" />
    <glyph glyph-name="n" unicode="n" horiz-adv-x="367" 
d="M230 500q-1 17 -2.5 34.5t-0.5 35.5q2 20 0.5 39.5t0.5 39.5q0 4 1.5 8t2.5 9q2 16 13.5 21.5t27.5 4.5q27 -2 32 -29q3 -23 4.5 -45t-0.5 -45q-2 -18 0 -36l4 -36q1 -13 2 -25.5t1 -25.5v-30.5t-1 -65t-1.5 -83.5t-1.5 -85.5t-2 -71t-1 -39.5q-2 -17 -3 -33t-11 -30
q-11 -15 -21 -15.5t-26 9.5q-19 12 -19 36q0 8 -3 15t-1 15q6 30 4.5 53.5t1.5 53.5q2 11 0 22.5t-3 23.5q0 1 -0.5 2t0.5 3q4 12 4 24.5t-1 25.5q-1 17 0 33t2 33q1 5 0.5 11t0.5 12q3 19 -15 29q-17 10 -26 28q-5 7 -11 13t-12 11q-15 16 -30.5 31t-31.5 30q-4 4 -7 6
q-8 6 -8 -4q1 -17 1.5 -35t0.5 -35q0 -10 -1.5 -19.5t-2.5 -19.5l-2 -12t0 -12q4 -22 2.5 -43t-3.5 -42q-1 -13 -0.5 -26t0.5 -26q1 -9 0 -16q-12 -51 -3 -104q2 -11 1 -23.5t-2 -24.5q-1 -8 -2 -15.5t0 -15.5q3 -24 -19 -38q-13 -8 -26 -9t-26 9q-2 2 -3.5 5.5t-2.5 6.5v24
t-1 23q-1 18 -2 35.5t-2 34.5q0 13 1 25.5t2 25.5q2 4 2 7q-2 14 0 27.5t0 26.5q-2 20 -1 38t3 37q2 17 1.5 33.5t1.5 33.5q3 20 0.5 39.5t-1.5 39.5q1 14 2.5 27t-3.5 27q-1 2 0 4.5t1 4.5q1 8 1 15v15q0 12 -2 24t3 24q3 7 2 14.5t-2 15.5q-2 22 14 38.5t37 14.5
q4 -1 8 -2.5t6 -3.5l12 -18t6 -18q1 -15 8.5 -22.5t18.5 -11.5q12 -5 19 -13.5t12 -18.5q5 -11 13 -19l16 -16q6 -5 11 -11.5t10 -11.5q14 -14 29 -26v-1l1 -1z" />
    <glyph glyph-name="o" unicode="o" horiz-adv-x="353" 
d="M300 523l3 -36v-34q-1 -21 -2.5 -41.5t1.5 -42.5q0 -3 0.5 -6t0.5 -6q-2 -26 -3.5 -52t-0.5 -52q0 -17 -3 -33t-7 -32q-1 -5 -1 -10v-10q2 -20 0.5 -38t-12.5 -35q-6 -9 -10 -18.5t-8 -20.5q-14 -33 -45 -48q-21 -9 -42 -13.5t-44 2.5q-2 1 -4.5 1t-3.5 2
q-12 13 -28.5 19.5t-29.5 18.5q-8 7 -12.5 16.5t-9.5 18.5q-2 4 -3.5 7.5t-3.5 7.5q-5 9 -8.5 18.5t-3.5 20.5q-1 12 -4.5 24.5t-5.5 26.5q-4 24 -6 50q-2 19 -3 37t-1 36q0 12 1.5 23t3.5 22q0 2 1 3.5t0 3.5q-1 22 -1.5 44.5t-1.5 44.5q0 2 -0.5 3t-0.5 3q6 15 6.5 30
t1.5 30q2 11 3 22.5t3 22.5q3 24 12 46.5t25 42.5q7 8 12.5 17.5t11.5 19.5q4 7 8.5 11.5t12.5 6.5q11 3 22.5 7t22.5 6t21 2h21q3 0 9 -2q13 -8 26 -16.5t27 -17.5q2 -2 4.5 -3.5t4.5 -4.5q8 -14 17.5 -27.5t14.5 -30.5q13 -43 12 -87zM85 431h2q1 -24 1.5 -48t0.5 -47
q0 -2 -1 -5t-1 -5q-2 -7 -3.5 -13.5t-1.5 -13.5q0 -20 1 -40.5t6 -41.5q2 -12 2.5 -24.5t2.5 -25.5q2 -11 4.5 -21t5.5 -20q5 -18 18.5 -28t26.5 -21q5 -4 11.5 -3.5t11.5 5.5q7 7 13 13.5t10 17.5q5 11 8.5 21t2.5 22q0 2 1.5 5l2.5 5q1 3 1 7v8q2 17 2.5 33.5t1.5 33.5v2
q5 12 6 24t-1 25q-1 6 -0.5 12.5t0.5 14.5l2 34t1 34t-1 33.5t-1 33.5q0 16 1.5 31t0.5 30q-1 13 -4 25t-5 24q-1 6 -2.5 12t-1.5 12t-5.5 13.5t-13 13.5t-15 10t-13.5 3q-1 0 -1 -1q-15 -7 -28.5 -15.5t-21.5 -25.5t-14.5 -35t-4.5 -39q0 -3 -0.5 -5.5t-0.5 -5.5
q-2 -18 -3.5 -37t-3.5 -37z" />
    <glyph glyph-name="p" unicode="p" horiz-adv-x="340" 
d="M290 530q-3 -16 -6 -37t-11 -42q-12 -37 -48 -57q-16 -9 -33 -16.5t-34 -15.5q-6 -2 -12.5 -2t-13.5 -2q-10 -2 -20 -3t-20 -5q-3 -1 -5 -7t-2 -11q0 -7 1.5 -13.5t3.5 -13.5q0 -2 1 -4.5t0 -4.5q-4 -14 -4 -28.5t1 -29.5q1 -5 1 -9.5v-9.5q0 -11 -0.5 -22.5t-0.5 -23.5
q0 -10 0.5 -20t0.5 -20v-24.5t-1 -24.5q0 -5 0.5 -9t0.5 -8t0.5 -7t-0.5 -6l-8 -22t-9 -21q-5 -11 -20 -11.5t-24 9.5q-8 9 -14.5 19.5t-3.5 24.5q2 2 0 4q-6 15 -3.5 30t3.5 31q0 8 -0.5 16t-1.5 16q-1 5 -1 11v11q0 4 0.5 7t0.5 6q-5 35 -1.5 70t-0.5 70q-2 14 -1 29t0 30
q0 4 -1 7t-2 7q0 3 -1 7t0 6q7 14 5.5 26.5t-2.5 25.5q-2 12 -0.5 24t1.5 23q1 5 1.5 11t0.5 11q-2 17 -1 33.5t-4 33.5q-2 10 1 21t2 22q-2 19 9 27t22.5 15t24.5 11q13 5 26.5 5.5t27.5 2.5q5 1 9.5 1h9.5q14 -2 28 -6t29 -4q7 1 14 -5t14 -11q5 -4 10 -7.5t9 -8.5
q6 -7 11 -13.5t10 -14.5q14 -22 22.5 -46.5t8.5 -57.5zM210 531q0 2 -0.5 3.5t-0.5 3.5q-2 17 -9 30t-15 27q-10 17 -20 21.5t-30 2.5q-22 -3 -40 -2q-11 1 -14 -1t-1 -13q1 -9 2.5 -18t1.5 -17q1 -11 -1 -23t1 -23q5 -18 1 -35.5t-2 -35.5q2 -11 2.5 -13.5t11.5 -2.5
q7 0 14.5 2t13.5 0q8 -3 13.5 -1t10.5 6l24 15q4 3 8 6.5t8 7.5q11 13 13.5 29t7.5 31z" />
    <glyph glyph-name="q" unicode="q" horiz-adv-x="355" 
d="M169 695q8 -1 21.5 -2t27.5 -3q5 -1 8.5 -4t7.5 -6q22 -19 36 -42.5t22 -50.5q8 -28 10.5 -56.5t2.5 -57.5q0 -19 -0.5 -37.5t-0.5 -38.5v-56q0 -7 -2 -10q-6 -9 -5.5 -18t2.5 -18q1 -5 1 -10.5v-10.5q-1 -23 -1.5 -45t-2.5 -44q-2 -15 -5 -30t-7 -29q-3 -13 -6 -25
t-7 -24q-2 -5 -3.5 -9t-4.5 -7q-5 -5 -4.5 -9t4.5 -9q6 -9 11.5 -18.5t9.5 -19.5q10 -29 -15 -43q-11 -6 -25 -4.5t-23 10.5q-7 7 -13.5 14t-12.5 15q-13 15 -33 9t-37.5 -3t-32.5 20q-3 4 -7.5 7t-8.5 6q-14 14 -24.5 28.5t-13.5 34.5q0 2 -1 4l-2 4q-10 14 -13.5 30
t-4.5 33q-1 14 -3.5 27t-4.5 27q-2 6 -1 9q2 18 -1 36t-6 35q-1 5 -0.5 10.5t0.5 10.5q1 13 1.5 25t1.5 24q1 14 1.5 27.5t1.5 27.5q0 2 0.5 4t-0.5 4q-4 14 -1.5 26.5t3.5 26.5q2 19 2.5 37.5t9.5 35.5q1 2 0.5 5t-0.5 5v9t2 7q7 13 14 26.5t15.5 25.5t19.5 22.5t27 17.5
q15 7 31 11.5t39 2.5zM207 154q2 8 4 16.5t3 16.5q2 27 2.5 54.5t1.5 55.5q0 6 -1.5 12.5t-1.5 13.5q1 11 2 22.5t3 22.5q1 8 2 15t1 15v25t-1 25l-2 18t-1 18q-2 14 0 26q2 11 3 20.5t-4 19.5q-4 10 -8 19t-8 19q-5 14 -16.5 20t-23.5 12q-4 2 -7 0q-14 -8 -27 -16.5
t-20 -24.5q-10 -20 -14 -41.5t-5 -43.5v-12t-2 -11q-4 -9 -3 -17.5t3 -17.5q3 -16 1 -37q0 -6 -2 -11.5t-2 -11.5q0 -16 2 -32t-3 -32q-1 -4 1 -10q2 -16 3 -31.5t3 -32.5q2 -9 2.5 -18t1.5 -18q1 -4 2 -7.5t1 -6.5q-1 -17 5 -33t11 -32q3 -10 9 -17q2 -3 5.5 -4.5t6.5 -3.5
q0 4 0.5 7t0.5 6t-1 5.5t-2 4.5q-8 14 -3 26.5t10 24.5q1 4 9 8q10 5 18 2t16 -9q14 -9 25 -19z" />
    <glyph glyph-name="r" unicode="r" horiz-adv-x="339" 
d="M93 382q0 -25 0.5 -49t-0.5 -48q0 -16 -1 -31t0 -30q0 -15 1.5 -30.5t2.5 -30.5q2 -6 1 -9q-5 -16 -4.5 -32.5t-4.5 -33.5q-2 -5 0 -10q5 -17 1.5 -33t-8.5 -31q-3 -10 -12.5 -15.5t-20.5 -7.5q-21 -4 -34 17q-7 10 -8.5 21.5t-0.5 22.5q2 14 4.5 28t4.5 28v19
q-1 20 -1.5 40t-0.5 40v72v13q-3 22 -1.5 43t2.5 43q1 10 -1 19.5t-3 19.5l-2 6t0 6q7 20 2.5 39.5t-4.5 39.5q0 4 0.5 8t0.5 9t1 9.5t-1 7.5q-5 8 -5 14.5t1 14.5v37.5t-1 38.5q-1 13 8 26.5t21 18.5q14 5 27 8t27 0q4 -1 8.5 -0.5t9.5 0.5q17 1 33.5 1.5t33.5 1.5
q5 0 15 -4q6 -2 12.5 -4.5t11.5 -5.5q4 -2 7.5 -4t5.5 -5q8 -17 20.5 -29t23.5 -26q6 -9 9 -21t5 -24q2 -11 2 -23.5t1 -24.5q0 -8 -3 -15q-26 -55 -74 -91q-18 -15 -8 -33q8 -14 6 -33q-2 -17 3 -32t12 -30q5 -10 7 -20t5 -21l6 -20l6 -20q2 -11 4.5 -21t4.5 -20
q3 -11 6.5 -22t6.5 -22q3 -9 7.5 -17.5t2.5 -19.5q-1 -3 1.5 -6.5t5.5 -6.5q11 -12 6 -30q-2 -6 -3.5 -12t-3.5 -12q-5 -21 -22 -24q-12 -2 -23.5 2t-15.5 13q-7 17 -14 32.5t-9 34.5q-2 11 -5 22t-7 22q-5 14 -10.5 28t-9.5 28q-2 10 -4.5 19.5t-5.5 19.5q-4 14 -6.5 29
t-5.5 30v2q-13 17 -14.5 37.5t-8.5 39.5q-2 4 -1.5 8t-0.5 8q-3 15 -9 30q-1 2 -4.5 3t-5.5 1q-1 0 -2.5 -3t-1.5 -5q0 -6 0.5 -11.5t0.5 -11.5h-2zM105 623q-4 -1 -10.5 0.5t-7.5 -10.5q0 -9 -0.5 -18.5t-1.5 -18.5q-2 -17 -0.5 -33.5t2.5 -33.5q1 -7 3.5 -10.5t10.5 -3.5
q11 0 21 -1.5t21 -2.5q2 0 3.5 0.5t3.5 0.5q35 8 45.5 31t2.5 52q-5 16 -16 27t-24 19q-4 2 -7 2h-46z" />
    <glyph glyph-name="s" unicode="s" 
d="M83 363q0 -13 0.5 -25.5t1.5 -25.5v-15q-3 -26 -1 -51t4 -51q2 -20 5 -39.5t6 -39.5q1 -5 6.5 -10.5t13 -10t14.5 -7t12 -0.5q11 5 14 13q8 16 14 31.5t4 34.5q-2 10 0 19.5t2 19.5q0 12 -1 24l-2 24q-1 11 -2 20.5t-5 20.5q-4 9 -4 20t-2 22q-4 20 -12.5 39t-18.5 38
q-2 4 -6 14q-5 11 -12.5 19.5t-19.5 12.5q-2 0 -4 2q-12 11 -24 21.5t-23 21.5q-6 7 -10.5 13.5t-9.5 14.5q-8 14 -10.5 30.5t0.5 31.5t8.5 30t22.5 23q10 5 17.5 13t16.5 15q5 3 9.5 5.5t9.5 3.5q14 2 28.5 3.5t28.5 -0.5t27.5 -6.5t24.5 -16.5q14 -16 24.5 -32.5
t11.5 -38.5q2 -15 -1 -26q-3 -13 -15.5 -18t-23.5 1q-14 7 -24.5 16t-15.5 24q-4 15 -21 15h-12.5t-12.5 -1q-14 -2 -19.5 -17.5t3.5 -26.5q13 -17 32 -29q26 -18 46 -40.5t31 -53.5q7 -19 15 -37t15 -37q6 -17 10 -35.5t1 -38.5q-1 -4 -1.5 -8t1.5 -7q6 -20 6.5 -40.5
t-0.5 -40.5q-1 -11 -1.5 -21t0.5 -21q2 -15 -2.5 -28t-10.5 -26q-5 -11 -8.5 -21t-8.5 -20q-13 -26 -34.5 -38.5t-47.5 -16.5q-13 -2 -26.5 1t-24.5 14q-4 4 -10 6q-14 5 -23 16t-20 20q-10 8 -11 19.5t-6 22.5q-8 17 -8.5 36.5t-7.5 37.5q-2 6 -1.5 12.5t0.5 12.5
q-1 8 -0.5 15t-0.5 15q-2 9 -4 17.5t3 18.5q3 7 1 15t-2 16q1 14 1.5 28t0.5 28q0 2 0.5 3t0.5 2q-6 14 -3 26.5t8 26.5q4 11 12.5 19t19.5 9q15 2 26.5 -7.5t13.5 -24.5q0 -2 0.5 -4.5t0.5 -4.5v-35z" />
    <glyph glyph-name="t" unicode="t" horiz-adv-x="360" 
d="M310 649q-21 -38 -66 -35q-11 1 -20.5 1t-20.5 1q-8 1 -10.5 -2t-1.5 -12q0 -14 1 -29t1 -29q0 -17 -0.5 -34.5t-0.5 -34.5v-92q0 -20 1 -40.5t1 -40.5l1 -2q-5 -12 -5 -23.5t1.5 -23l3 -23t0.5 -23.5q-2 -23 -3 -46.5t-2 -46.5q-1 -15 -1 -29.5v-29.5q1 -16 -7 -29
t-23 -18q-5 -2 -11 -1t-10 4q-29 21 -29 56q2 32 3 62.5t1 61.5q0 30 -1 60l-2 60q-1 14 -0.5 28.5t0.5 29.5q0 23 0.5 44.5t0.5 44.5q0 5 0.5 10t0.5 10q0 14 -1 27t-1 27v32t1 32q0 16 -3.5 20t-19.5 3q-11 0 -21 -1.5t-21 0.5t-21.5 5t-15.5 17q-10 20 -9 28.5t17 23.5
q10 10 23 10q16 0 32 -1.5t33 -3.5q2 0 5 -1t5 0q14 6 26 3.5t25 -4.5q7 -2 14.5 -1t15.5 1q13 -1 26 -1.5t26 0.5q15 2 27 -4t23 -14q5 -4 7 -9.5t5 -10.5v-7z" />
    <glyph glyph-name="u" unicode="u" horiz-adv-x="371" 
d="M168 7q-11 0 -22 -0.5t-22 1.5q-16 2 -31 6.5t-26 17.5q-2 2 -3 2q-20 9 -29 25.5t-16 34.5q-3 8 -5.5 17t-3.5 17q-2 19 -2.5 38t-1.5 38v6.5t-2 5.5q-4 6 -3 12l2 12q1 7 2.5 14t-0.5 13q-6 17 -4.5 33.5t2.5 33.5q4 16 5 49.5t0 69.5t-2 66.5t1 41.5q0 6 0.5 12.5
t0.5 12.5v46q0 8 1.5 15t0.5 14q-2 17 8 27.5t27 8.5q25 -2 35 -12t10 -35q1 -19 -1 -37t-3 -37q0 -23 -0.5 -45t1.5 -45t0.5 -45t-2.5 -45q-1 -29 -2 -57t1 -57q0 -13 2 -25.5t-3 -26.5q0 -4 1 -5q8 -16 6 -32.5t0 -33.5q1 -19 6.5 -36t23.5 -28q13 -8 28 -8q11 -1 23 -0.5
t23 4.5q16 5 24 17t11 27q4 15 3.5 30.5t-0.5 30.5q1 16 3 31.5t0 32.5t0.5 33t2.5 33q1 21 1 42.5t-3 42.5q-3 29 -1 58t2 58q0 17 -1.5 33.5t-2.5 33.5t-1.5 34.5t1.5 34.5q1 31 43 34q40 2 35 -36v-2q1 -6 0.5 -12t1.5 -12q8 -28 0 -51q-3 -9 1 -20q3 -8 3 -15.5
t-1 -15.5q-2 -16 -2.5 -31t-0.5 -31q0 -14 1 -28.5t1 -28.5q0 -9 -0.5 -17.5t4.5 -16.5q1 -2 1 -6q0 -17 0.5 -34t0.5 -34q0 -16 -3 -32q0 -5 -2.5 -10t-0.5 -9q5 -13 4.5 -25.5t-2.5 -25.5q-2 -12 -2.5 -24.5t-1.5 -24.5q-1 -10 -0.5 -19.5t-2.5 -17.5q-5 -16 -10.5 -31
t-12.5 -30q-2 -3 -5 -5.5t-5 -4.5q-7 -5 -13 -10.5t-13 -10.5q-5 -3 -9.5 -5t-9.5 -4q-15 -8 -31 -9.5t-33 -0.5z" />
    <glyph glyph-name="v" unicode="v" horiz-adv-x="347" 
d="M146 217q2 9 3.5 18t3.5 18q3 21 8 41t3 41q0 3 1 5.5t2 5.5q2 8 4.5 16t4.5 16q5 26 9 51.5t8 51.5q3 20 4.5 39t3.5 39q2 12 4.5 24t5.5 23q4 14 6 28t0 28q-1 7 3 13.5t10.5 11t14.5 6.5t15 0q5 -2 10 -3.5t10 -3.5q11 -5 14 -14t2 -19v-24t-4 -24q-8 -23 -11.5 -47.5
t-8.5 -48.5q-1 -3 0 -6.5t1 -7.5l-3 -24q-2 -8 -2.5 -17t-1.5 -18q-1 -7 -2 -13.5t-2 -13.5q-2 -9 -3.5 -18t-3.5 -18v-3q-5 -9 -7 -19t-3 -19.5t-2 -19.5t-5 -19q-1 -3 -1 -9q3 -20 -6 -41q-5 -11 -5.5 -24t-2.5 -26q-1 -12 -1.5 -23.5t-2.5 -22.5q-2 -13 -4.5 -25.5
t-5.5 -24.5q-5 -14 -10 -28.5t-10 -28.5q-11 -31 -40 -35q-17 -2 -28.5 5.5t-20.5 20.5t-13.5 26.5t-7.5 27.5q-3 17 -8 34t-7 34q-4 23 -6.5 47t-5.5 47q-5 34 -9 67t-9 66q-1 6 -0.5 12t0.5 11q0 11 -1.5 20.5t-7.5 18.5q-3 5 -2 9q5 23 -0.5 44t-8.5 43l-3 24
q-1 5 -2 9.5t-2 9.5t-1 9.5v9.5q0 2 0.5 5t-0.5 5q-1 15 -2.5 29.5t-2.5 28.5q-1 11 10 19.5t25 8.5q29 0 37 -25q5 -14 8 -29.5t6 -30.5q3 -17 3.5 -32.5t4.5 -32.5q3 -13 2.5 -27t7.5 -27q-4 -17 1 -32.5t8 -31.5q2 -9 2.5 -18t2.5 -18l4 -22t1 -22q-1 -18 1.5 -35.5
t4.5 -34.5q2 -14 1.5 -27.5t7.5 -27.5q2 -4 1 -9t-1 -10q-2 -8 -1 -12q0 -2 1.5 -3.5t2.5 -3.5q4 4 4 7q1 6 1.5 12t0.5 13h-2z" />
    <glyph glyph-name="w" unicode="w" horiz-adv-x="438" 
d="M88 628v-97q0 -16 1 -31.5t1 -32.5q0 -24 -0.5 -48t-1.5 -49v-42.5t1 -43.5q1 -23 2.5 -46t3.5 -47q1 -14 1 -29t4 -29q2 -10 9 -18t13 -16q0 -1 2.5 -0.5t3.5 2.5q3 3 5 11q5 23 10 45.5t10 45.5q2 5 -0.5 10.5t-1.5 10.5q5 20 9.5 40t9.5 41q2 8 9.5 12t15.5 4
q27 0 42 -20.5t10 -46.5q-1 -5 -1 -9.5t2 -7.5q6 -13 4 -25.5t-1 -24.5q0 -17 -0.5 -34t1.5 -34q1 -8 4.5 -15t7.5 -14q4 -8 12 -6.5t10 9.5q3 21 11 41t4 42q-2 9 -1 18t3 18q3 23 3.5 44.5t-1.5 44.5q-1 14 1 27.5t1 27.5q0 5 -0.5 20.5t-1 32.5t-1 32.5t-0.5 20.5
q-1 19 -0.5 37t-0.5 36q0 15 -1.5 30.5t-2.5 30.5q0 17 -1 34.5t1 35.5q1 14 10.5 21t22.5 11q15 5 31 -15q18 -26 15 -59q1 1 2.5 -17t2.5 -46.5t2 -62.5t1.5 -63t0.5 -49.5v-21.5q-3 -27 -2.5 -54t2.5 -53v-2q-3 -23 -4 -47t2 -48q1 -2 -1 -7q-7 -20 -14 -40.5t-12 -40.5
q-5 -18 -16 -31t-24 -25q-15 -13 -37 -16.5t-39 6.5q-21 13 -37 32q-16 18 -25 -2q-9 -19 -28 -25q-14 -5 -28.5 -7t-28.5 3t-23.5 16t-16.5 25q-4 7 -6.5 14t-6.5 14q-11 16 -16 33.5t-7 37.5t-3 39.5t-7 39.5q-5 15 -7 47t-1.5 73t1.5 87t2.5 87.5t2 75t-1.5 50.5
q-2 13 4 23.5t14 19.5q3 4 10.5 6t16 0.5t16.5 -5.5t11 -11q6 -13 10.5 -25t0.5 -26z" />
    <glyph glyph-name="x" unicode="x" horiz-adv-x="354" 
d="M5 50q-2 18 5 31.5t13 27.5q3 7 6 13.5t5 12.5q2 5 4 15q2 6 3 11.5t3 10.5v2q7 17 12.5 33.5t12.5 33.5q4 8 6.5 16t4.5 18q3 17 9 33.5t13 33.5q2 5 3.5 9.5t-0.5 9.5q-9 21 -17 41.5t-16 41.5q-8 20 -13.5 40t-12.5 40q-6 17 -13 34t-13 34q-5 13 -10.5 26t-8.5 27
q-2 6 1 13.5t7 12.5q5 7 11.5 12t13.5 10q4 4 8 2q12 -4 22 -9t15 -20q5 -17 10 -34.5t13 -34.5q18 -33 21 -70q1 -2 0.5 -4t1.5 -3q9 -8 11 -18t7 -19q1 -2 4 -5q2 2 3 4l18 51q2 5 3 10.5t3 10.5q11 19 15.5 40t7.5 42q4 21 21.5 39t39.5 20q11 2 19 -5t10 -18
q1 -11 0 -21.5t-5 -21.5q-8 -20 -14 -41t-13 -42q-5 -14 -9.5 -26.5t-8.5 -26.5q-5 -16 -8 -31.5t-8 -30.5q-5 -16 -11.5 -32t-13.5 -32q-5 -12 -1 -22q5 -13 10 -25.5t10 -26.5q3 -9 5.5 -18t3.5 -18q1 -11 5 -21t8.5 -20t9 -19.5t6.5 -20.5q4 -17 16 -38.5t19 -38.5
q9 -23 15 -50q2 -12 -5 -22t-18 -14q-1 0 -2 -1q-23 -10 -33 -3t-21 27q-4 6 -6 13.5t-4 14.5q-3 9 -5.5 18.5t-7.5 17.5q-10 15 -17 36t-15 37q-5 11 -8.5 21.5t-8.5 21.5q0 1 -4 5q-1 -2 -2 -3t-1 -3q-1 -16 -9.5 -29t-13.5 -28q-4 -11 -5.5 -23t-4.5 -23
q-2 -6 -3.5 -12.5t-4.5 -12.5l-12 -24t-12 -25q-2 -4 -4 -10q-5 -12 -16 -18.5t-22 -4.5q-14 2 -23.5 13t-9.5 25v7z" />
    <glyph glyph-name="y" unicode="y" horiz-adv-x="346" 
d="M42 698q18 -2 29 -11t19 -23q5 -8 10.5 -15t10.5 -15t9 -16t9 -16q4 -8 7 -15t7 -14q9 -14 18 0q10 15 19 31t17 33q8 16 17 30.5t22 27.5q5 5 20 5t23 -6q17 -16 16 -38q-2 -21 -10.5 -38t-22.5 -32q-2 -2 -4.5 -5.5t-2.5 -6.5q-1 -10 -6 -17.5t-10 -15.5
q-6 -9 -11.5 -18.5t-10.5 -19.5q-3 -6 -5.5 -12t-5.5 -12q-6 -13 -6.5 -25.5t1.5 -25.5q1 -5 1.5 -9t0.5 -9v-16q0 -2 1.5 -5t0.5 -5q-5 -21 -5 -42.5t2 -42.5q2 -14 -0.5 -29t-4.5 -29q0 -3 -0.5 -6t-0.5 -6q0 -35 1 -71t-1 -71q-2 -29 -6 -55q-3 -14 -17 -21.5t-31 -5.5
q-11 2 -19 11.5t-8 23.5q1 6 -0.5 12.5t-3.5 13.5q0 2 -1 4t0 4q2 15 -0.5 30.5t4.5 30.5q2 5 2 9.5v9.5q0 23 -0.5 46t0.5 46q0 14 1 28l2 28v6.5t-1 6.5q-5 10 -4 19t5 18q2 8 1 12q-4 15 -2.5 30t2.5 30q2 19 -1 34q-2 10 -8 16q-18 18 -26 46q-3 11 -9.5 21t-14.5 20
q-10 14 -21.5 27.5t-18.5 30.5q-2 4 -5 7q-30 33 -1 62q5 5 12.5 6.5t14.5 3.5z" />
    <glyph glyph-name="z" unicode="z" horiz-adv-x="345" 
d="M188 620h-1q-16 -2 -31.5 -0.5t-31.5 3.5q-14 2 -35.5 2h-35.5t-28 9t-19 21q-3 8 5 22.5t17 18.5q5 2 11 4.5t11 2.5q20 0 47.5 -0.5t47.5 -1.5q8 -1 16.5 -1.5t16.5 -0.5q14 0 29 1t29 2q18 1 31 -8t23 -22q6 -7 3.5 -15.5t-8.5 -15.5q-16 -21 -22.5 -45t-11.5 -49
q-2 -6 -4.5 -11t-4.5 -10q-5 -12 -10 -23.5t-8 -22.5q-8 -24 -18 -46t-19 -43q-2 -5 -3 -11t-3 -11q-4 -9 -7.5 -17.5t-7.5 -16.5l-2 -4t-1 -4q0 -16 -6 -29t-12 -27q-8 -23 -17 -45t-18 -45q-1 -4 -1 -11q-1 -5 -1 -8.5t-1 -7.5q-5 -14 -9.5 -26.5t-9.5 -26.5
q-5 -11 -2.5 -14.5t13.5 -3.5q17 -2 33 -1.5t32 -1.5q15 -2 30 -1.5t30 2.5q25 2 36.5 -12.5t3.5 -37.5v-1q-3 -8 -3.5 -17t-11.5 -12q-9 -2 -18.5 -1.5t-19.5 0.5q-4 0 -12 2h-65q-16 -1 -31.5 -1.5t-30.5 1.5q-47 5 -70 47q-2 7 -1 10q3 30 9 60q2 13 7 24q5 9 8.5 18
t1.5 19q-1 2 1 4.5t3 5.5l4 6t2 6q0 11 3.5 21t6.5 21q4 14 11 25t11 24q3 11 6.5 21t5.5 21q2 12 6 23.5t12 21.5q5 5 8 11t5 12q4 11 6.5 22.5t6.5 22.5q3 11 6.5 21.5t8.5 19.5q10 19 13.5 38.5t17.5 36.5q1 2 1 7q0 14 9 26q3 5 4 11.5t3 11.5z" />
    <glyph glyph-name="braceleft" unicode="{" horiz-adv-x="277" 
d="M226 -20q0 -13 -9 -23t-22 -14q-14 -4 -27.5 0.5t-26.5 8.5q-24 7 -34 25.5t-13 41.5q-2 11 -3 22t-3 22q-1 4 -1.5 8.5t0.5 8.5q5 17 3 33.5t-3 33.5q-1 19 -0.5 37.5t0.5 37.5q-1 14 -2.5 26.5t-3.5 26.5v21q-2 14 -8.5 19t-21.5 3q-20 -4 -36 10q-18 14 -13 37
q2 11 9.5 17t18.5 10q12 5 24 9.5t23 10.5q9 4 12 11.5t3 17.5q-1 12 0 24t1 24q0 7 -0.5 13.5t-0.5 14.5q-1 10 -1 20v20l3 72q2 20 7.5 37.5t17.5 33.5q9 13 19 25.5t27 14.5q20 3 39 -5q6 -2 10.5 -9t8.5 -13q4 -8 0.5 -18t-10.5 -15t-13 -11t-16 -7q-2 0 -4 -3t-3 -5
q-4 2 -6 -12t-3.5 -36t-1.5 -49.5t0.5 -51.5t1 -41t1.5 -20q3 -6 -1 -16q-6 -16 -12.5 -32t-13.5 -33q-1 -2 -0.5 -4.5t0.5 -4.5l18 -69q2 -5 1 -8q-4 -19 -1.5 -37t4.5 -37q1 -14 -0.5 -28t0.5 -28q2 -29 0.5 -57.5t5.5 -56.5q3 -17 19 -16q20 1 29 -7.5t8 -29.5z" />
    <glyph glyph-name="bar" unicode="|" horiz-adv-x="145" 
d="M36 698h56q3 0 2.5 -13.5t-2.5 -30.5t-4 -32.5t-2 -19.5q0 -14 1 -27t1 -26q0 -11 -0.5 -21t-1.5 -21v-49t-3 -49q-2 -17 0 -35t3 -35q0 -4 0.5 -7.5t-0.5 -7.5q-5 -20 -2 -40t4 -40v-11t-1 -10q-4 -14 -2.5 -27.5t3.5 -27.5q2 -17 2 -34.5v-35.5q0 2 0 -9.5t-1 -28
t-3.5 -34.5t-6.5 -29q-2 -6 -11 -3t-15 2q-8 0 -8.5 0.5t0.5 1t0 1t-9 -0.5q-15 -2 -21 14t-6.5 36t1.5 37t2 18q-2 14 -3 29t-3 30q0 2 -1 5t0 5q7 18 3 35.5t-6 35.5q-2 6 0 11q5 13 3.5 26t-2.5 27q0 13 1 25l2 24q0 2 1 3t1 2q-9 14 -8 28.5t3 28.5q2 19 -1 38.5t9 36.5
q2 4 1 7q-10 18 -8 36t1 35q0 9 1.5 18.5t1.5 17.5q0 17 -0.5 29.5t-1 22t-1 18.5t-0.5 20q0 2 4 2t9.5 -0.5t10.5 -1t7 -0.5v1z" />
    <glyph glyph-name="braceright" unicode="}" horiz-adv-x="277" 
d="M1 -20q-1 21 8 29.5t29 7.5q16 -1 19 16q7 28 5.5 56.5t0.5 57.5q2 14 0.5 28t-0.5 28q2 19 4.5 37t-1.5 37q-2 3 1 8l18 69q0 2 0.5 4.5t-0.5 4.5q-7 17 -13.5 33t-12.5 32q-4 10 -1 16q1 3 1.5 20t1 41t0.5 51.5t-1.5 49.5t-3.5 36t-6 12q-1 2 -3 5t-4 3q-10 1 -16 7
t-13 11t-10.5 15t0.5 18q4 6 8.5 13t10.5 9q19 8 39 5q17 -2 27 -14.5t19 -25.5q12 -16 17.5 -33.5t7.5 -37.5l3 -72v-20t-1 -20q0 -8 -0.5 -14.5t-0.5 -13.5q0 -12 1 -24t0 -24q0 -10 3 -17.5t12 -11.5q11 -6 23 -10.5t24 -9.5q11 -4 18.5 -10t9.5 -17q5 -23 -13 -37
q-16 -14 -36 -10q-15 2 -21.5 -3t-8.5 -19v-21q-2 -14 -3.5 -26.5t-2.5 -26.5q0 -19 0.5 -37.5t-0.5 -37.5q-1 -17 -3 -33.5t3 -33.5q1 -4 0.5 -8.5t-1.5 -8.5q-2 -11 -3 -22t-3 -22q-3 -23 -13 -41.5t-34 -25.5q-13 -4 -26.5 -8.5t-27.5 -0.5q-13 4 -22 14t-9 23z" />
    <glyph glyph-name="asciitilde" unicode="~" horiz-adv-x="325" 
d="M188 288q-44 1 -77 33q-26 24 -39 -6q-8 -20 -18 -22.5t-27 -1.5q-11 2 -19.5 13.5t-6.5 25.5t10 26q10 11 20.5 22.5t22.5 19.5t26 12t31 -2q18 -7 34 -15.5t30 -22.5q5 -5 10 -5.5t10 5.5q4 5 8 8.5t7 8.5q12 15 27.5 15t26.5 -15q13 -17 10 -34t-22 -31q-8 -5 -14 -11
q-13 -15 -22 -19t-28 -4z" />
    <glyph glyph-name="Preview" unicode="&#xe000;" horiz-adv-x="2969" 
d="M1582 708h-28.5t-29.5 2q-2 0 -4 1t-4 1q-9 2 -18 3t-18 3q-8 2 -16 1t-16 1q-28 9 -55.5 13t-54.5 9l-42 6t-39 14l-6 2q-24 2 -47.5 8.5t-46.5 16.5q-33 10 -65 16q-11 1 -19 10q-29 9 -56.5 18.5t-57.5 11.5q-4 0 -6.5 2t-5.5 2l-31 6q-11 2 -20 2t-18 1
q-23 5 -44.5 3.5t-41.5 -14.5q-4 -3 -9.5 -6t-10.5 -6q-20 -10 -31 -25t-17 -35l-2 -5q-2 -6 -4.5 -10t-4.5 -14q-3 -9 -7 -29t-8 -45.5t-8.5 -53.5t-8 -53.5t-6.5 -46t-4 -30.5l-4 -24q-1 -8 -1 -16.5t-2 -18.5l-5 -28l-5 -36v-2q-5 -9 -7 -19.5t-3.5 -20.5t-2.5 -19.5
t-5 -18.5v-9q3 -20 -6 -41q-5 -12 -5.5 -25t-2.5 -25t-2 -23.5t-2 -22.5q-3 -14 -5 -26t-6 -24q-4 -16 -9.5 -30t-9.5 -28q-7 -14 -16 -23.5t-25 -11.5q-18 -2 -29.5 5t-20.5 21q-10 12 -13.5 26t-6.5 29q-3 17 -7.5 33t-7.5 34q-4 23 -6.5 47t-5.5 48l-19 134v23
q0 11 -1 21t-6 19q-2 2 -3 4t1 3q4 23 -2 44.5t-9 44.5l-2 24l-4 18q-2 5 -2 16l-12 -9q-15 -8 -30.5 -12.5t-31.5 -8.5q-29 -9 -56 -9t-54 7q-26 5 -49 -1t-44 -20q-5 -2 -9 -9t-7 -12q-5 -14 -7 -27t-4 -21q-2 -30 8 -47t33 -30q11 -6 22 -9.5t22 -8.5q14 -5 20 -17t1 -27
q-6 -20 -19 -27t-42 -2q-21 2 -38.5 11t-34.5 18q-19 11 -30 29t-17 40q-3 9 -5.5 18t-4.5 17q-4 10 -4 15q3 20 2 40t8 37q13 25 26.5 49t42.5 36q8 3 13 10q8 6 15.5 11t20.5 5q6 0 12.5 3t14.5 5q7 5 15.5 6t17.5 -4q0 -1 1 -1q2 0 3 1q10 4 20 2.5t19.5 -4t19.5 -5
t20 -0.5q4 1 7 0.5t8 0.5l40 11q9 2 16.5 5t11.5 13q4 5 8 9.5t7 8.5q3 5 5.5 10t2.5 11q3 14 12 23.5t23 13.5q11 1 21 -5t14 -18q7 -26 11.5 -44t7.5 -31.5t4.5 -23.5t3.5 -19q4 -17 4 -32.5t5 -32.5q3 -14 2.5 -27.5t7.5 -25.5q-5 -17 0 -33t8 -31q3 -9 3.5 -18t2.5 -19
q2 -12 4 -22.5t0 -21.5q0 -20 2.5 -37t4.5 -35q2 -14 2 -27t7 -27q2 -5 1 -10t-1 -10q-2 -5 -2 -12q0 -2 2 -3.5t2 -3.5q5 5 5 7q1 5 1 11.5v14.5h-1l7 36q4 22 8 42t2 40q0 3 1 5l3 6q2 8 4.5 16t4.5 17q4 26 8.5 51.5t8.5 51.5q3 23 8.5 60.5t12.5 79t14 81.5t14 67
q0 2 1 3t1 3v8q0 22 8 40.5t14 38.5q4 6 7 9q12 11 22.5 23.5t26.5 19.5q3 2 5.5 3t4.5 2q9 14 22 18.5t28 6.5q18 2 35 5t34 7q2 0 4.5 1t4.5 -1q12 -2 23 -2.5t23 -4.5q20 -2 38.5 -6t38.5 -9q11 -3 21 -4t21 -5q19 -3 38 -7.5t36 -12.5q18 -11 36 -16l36 -10
q8 -2 15.5 -4t12.5 -4l44 -10t45 -11l52 -14q20 -4 39 -6.5t38 -5.5q7 -3 12 0q13 3 22 -0.5t19 -10.5q3 -2 9 -2.5t11 -0.5q11 -2 22 -3t22 -1q26 0 50 -1.5t50 3.5q11 3 21.5 3.5t21.5 0.5q26 1 46 10t40 26q2 2 2 3t2 1q15 0 18.5 9.5t11.5 17.5q5 8 12 16.5t16 13.5
q7 5 16.5 4.5t18.5 -5t15.5 -13t7.5 -18.5q0 -11 -2.5 -22.5t-11.5 -20.5q-8 -9 -14 -18t-14 -18q-3 -7 -10 -11q-32 -11 -53 -34q-2 -3 -5 -4.5t-6 -3.5q-20 -5 -37 -10.5t-37 -7.5q-28 -5 -55 -7t-54 -5zM842 99q-15 -3 -28.5 -0.5t-26.5 4.5q-22 5 -29 23t4 34
q8 11 16.5 18t22.5 5q9 0 9 7q-2 17 -2 33.5v33.5q0 5 2.5 9.5t2.5 10.5t-1.5 12t-3.5 11q0 2 -2 4t0 4q4 8 5 16t0.5 16t-1.5 15.5t0 15.5q0 3 1 6t-1 6q-6 42 0 83v6q-4 13 -4 26.5t1.5 27t2.5 27t-2 26.5q-2 9 -2.5 14t-2 8t-5 5t-11.5 4q-12 2 -21.5 10t-15.5 16
q-5 6 -4.5 14t4 15.5t10 13.5t14.5 8q3 2 7.5 2.5t8.5 0.5q11 0 21 1t20 1h40t43 -2q12 0 22 -7.5t18 -17.5q4 -4 3 -10t-3 -11q-2 -21 -16 -31t-31 -5q-17 3 -17 -10q0 -15 -1.5 -29t1.5 -30q2 -5 1.5 -12.5t1.5 -15.5q0 -14 0.5 -26t0.5 -26t-0.5 -29.5t-0.5 -30.5v-28
q1 -29 1 -58.5v-59.5q0 -14 2.5 -28t-0.5 -28q-2 -2 2.5 -4.5t8.5 -4.5q7 -2 14.5 -4.5t15.5 -7.5q18 -8 19.5 -26t-12.5 -30q-14 -11 -27 -17t-33 -2h-19.5t-22.5 -2zM904 73q9 0 16 0.5t17 -2.5q13 -6 17.5 -16t6.5 -24q1 -8 -3.5 -15.5t-11.5 -13.5t-15.5 -9.5
t-16.5 -2.5q-12 3 -28 0h-44q-17 -2 -34.5 -0.5t-35.5 4.5q-14 5 -19 11.5t-5 20.5t6.5 23.5t16.5 16.5q2 5 7 5q16 2 32 2t36 2q12 0 26.5 -1t31.5 -1zM1239 564q2 20 0 39t0 39q0 5 2 9.5t2 8.5q3 15 14.5 20t28.5 5q26 -2 31 -29q3 -23 4.5 -44.5t-0.5 -46.5
q-2 -18 0.5 -35.5t4.5 -36.5q0 -11 1 -24.5t1 -25.5v-30.5t-0.5 -65.5t-1 -84t-1.5 -86t-2 -71.5t-2 -39.5q-2 -16 -3.5 -32.5t-10.5 -31.5q-11 -15 -21 -15t-27 9q-9 6 -13.5 16t-4.5 21q0 7 -3 14.5t-1 15.5q6 30 4.5 53.5t1.5 54.5q2 11 0 22.5t-4 22.5v5q5 12 4.5 25
t-0.5 25q-2 17 -1 33.5t3 33.5v23q3 20 -14 30t-25 28q-5 7 -11.5 13t-13.5 11q-27 30 -62 60l-6 6q-3 3 -5.5 2.5t-2.5 -6.5q0 -16 1 -34t1 -35q0 -9 -2 -19t-2 -19q-2 -7 -3 -12.5t1 -12.5q3 -23 1.5 -44t-3.5 -41v-53q3 -10 0 -16q-13 -49 -2 -104q2 -12 1 -24.5
t-3 -24.5q0 -9 -1.5 -16t-1.5 -15q4 -24 -18 -39q-13 -8 -26.5 -8.5t-24.5 8.5q-3 2 -4.5 5.5t-1.5 6.5v24t-2 25q0 17 -1 34.5t-3 34.5q0 12 1.5 25t2.5 25q0 2 1 4.5t1 4.5q-2 13 0 26.5t0 27.5q-2 20 -1 38.5t3 35.5q2 18 1 35t1 34q3 21 0.5 40.5t-0.5 39.5q0 14 1.5 27
t-3.5 27q0 2 1 3.5t1 3.5v30q0 13 -2 25t4 24q3 8 1.5 15t-1.5 15q-3 23 12.5 39t37.5 14l8 -2t6 -3q6 -8 12 -17.5t6 -18.5q2 -14 9.5 -22.5t18.5 -11.5q13 -5 19.5 -14t11.5 -18q5 -11 12.5 -19.5t17.5 -17.5q6 -5 10.5 -11t7.5 -11q8 -8 15.5 -13.5t15.5 -12.5v-2l-2 2
q0 17 -2 34.5t0 36.5zM1624 608h-21t-21 2q-7 0 -9 -2.5t-2 -11.5q0 -15 1 -30t1 -29v-69v-93q0 -20 0.5 -40.5t0.5 -41.5v-1q-5 -11 -5 -23t1.5 -23.5t3 -23.5t0.5 -23q-1 -24 -2 -47.5t-1 -46.5q-2 -15 -2 -29.5v-28.5q3 -36 -31 -49q-5 -2 -11 -0.5t-9 4.5q-30 22 -30 57
q2 32 3 62t1 62q0 30 -1 60t-1 60q-2 14 -1 28.5t1 29.5v91q0 5 1 9.5t1 10.5q0 13 -1 26t-1 27v65q0 15 -3.5 19.5t-18.5 2.5q-11 0 -21.5 -1t-21.5 1t-21 5t-16 17q-9 20 -8 28.5t16 22.5q8 11 24 11q14 0 30.5 -2t32.5 -4q4 0 6.5 -1t4.5 1q14 6 26.5 2.5t25.5 -5.5
q7 -2 15 -1t15 1q12 0 25 -1t27 1q16 2 28 -3.5t23 -12.5q4 -5 6.5 -10.5t5.5 -9.5v-9q-11 -20 -28.5 -28t-38.5 -6zM1776 313v-8q0 -32 0.5 -64.5t-4.5 -64.5q-2 -21 -1 -37t3 -36q0 -11 2 -21t4 -19q4 -17 -0.5 -32t-14.5 -29q-9 -14 -26 -13t-29 15q-9 12 -12 25.5
t-5 27.5q0 8 -2 15t-2 15v57q2 19 1 36.5t-1 34.5q0 5 1 9t1 9t1 8t1 8q-3 27 -1 54.5t4 55.5q3 35 5.5 68.5t8 66.5t16.5 66.5t30 67.5q4 8 11 14t13 13q6 5 13.5 11.5t12.5 11.5q9 12 24 16t29 -2q5 -2 10.5 -2h11.5q11 -2 26 -9.5t29.5 -16.5t26 -19.5t16.5 -18.5
q11 -24 15.5 -49.5t10.5 -51.5q3 -15 4 -28t4 -27q3 -15 3.5 -30.5t-1.5 -29.5q-2 -25 0.5 -50.5t-2.5 -51.5q-3 -10 -0.5 -21t0.5 -22q-1 -18 2 -34.5t-2 -33.5q-1 -5 -0.5 -10.5t0.5 -12.5q0 -4 -0.5 -10t-0.5 -14q1 -15 0 -29.5t-5 -29.5q-2 -3 -2 -6v-5q6 -11 2.5 -22.5
t-6.5 -22.5q-3 -33 -28 -39q-24 -8 -37 5.5t-13 34.5q-2 40 4 77q2 22 2 45.5t-4 48.5q0 3 1 6t1 6q0 11 -1 20.5t-1 20.5q2 11 3.5 22t1.5 21q0 9 1 18t-1 17q0 13 -2 25t2 24q2 7 -2 9.5t-8 1.5q-23 -2 -44.5 -2.5t-44.5 -4.5q-20 -3 -41 -12q-3 0 -4 -4.5t-3 -7.5z
M1885 474q6 2 14.5 2t13.5 2q13 3 10 15q-1 9 -1 19t-2 20q0 6 -5 9q0 4 -2 6.5t0 5.5q0 8 -3 13.5t-4 11.5q-7 11 -15 15.5t-16 10.5q-9 6 -15.5 5.5t-13.5 -5.5q-11 -6 -17.5 -16.5t-10.5 -22.5q-2 -4 -3 -8.5t-4 -8.5q-11 -16 -12.5 -33t-3.5 -33q-2 -8 2 -9t9 -1
q20 2 39.5 2t39.5 2v-2zM2331 410q8 -4 13.5 -8.5t5.5 -12.5q2 -20 4.5 -39t-2.5 -40q-3 -13 -1.5 -26t-0.5 -29q0 -8 -1 -14t-1 -14v-39q2 -16 0 -32.5t-8 -33.5v-13q2 -12 -2 -22.5t-12 -20.5q-3 -4 -6 -10t-7 -11q-25 -35 -63 -53q-1 0 -2 -0.5t-2 -0.5q-1 -1 -2 -1
q-11 6 -22 4t-22 -2q-9 0 -18.5 3t-17.5 11q-12 11 -25 21t-25 22q-6 6 -9.5 15.5t-6.5 17.5t-6 17t-4 18q-3 8 -5.5 17.5t-2.5 20.5q-4 23 -5 48.5t-3 51.5q-2 9 -2 18v20q0 18 1 37t-1 37q-3 23 -1.5 45.5t1.5 45.5q0 9 1 18t3 17q1 15 1.5 31t4.5 32q3 17 7 34t13 32
q8 17 20 30.5t26 25.5q5 5 15.5 5.5t21.5 1.5q14 2 27.5 3.5t27.5 3.5q8 0 12 -2q29 -9 50.5 -26t35.5 -44q0 -3 1 -6t1 -6v-11.5t2 -10.5q6 -20 3 -38.5t-9 -36.5q-2 -2 -3 -4t-3 -4q-9 -5 -19 -7t-21 1q-14 5 -20.5 16t-3.5 26q4 16 -2 28.5t-7 26.5q0 2 -4 4t-7 4
q-17 5 -33 5t-32 -11q-6 -4 -10 -12q-7 -20 -12.5 -39.5t-3.5 -42.5q2 -12 -1 -23t-4 -23q-4 -21 -3.5 -41t6.5 -40q3 -11 1.5 -24t-1.5 -27v-47v-23.5t-2 -24.5v-17.5t4 -16.5q5 -9 8 -19t-1 -21v-7q7 -17 14 -35.5t21 -32.5q8 -7 21.5 -8t21.5 8q26 23 26 52v14t2 14
q0 19 1.5 38t1.5 39q0 5 -1.5 9.5t-1.5 10.5q0 4 -1 8.5t1 8.5q6 12 5 24t1 24q0 8 -2 11.5t-10 4.5q-11 4 -21 6t-21 7q-14 8 -17.5 24t7.5 28q6 9 14 16t22 5q6 -2 13 -1t13 3q17 2 32 -3.5t29 -12.5zM2412 297q0 17 -2 33t-2 33q-2 20 -1 38.5t1 38.5q0 29 -1 57t-1 56
q0 13 1 26t1 25q2 9 1 17t-1 18q0 16 8.5 26.5t21.5 19.5q5 2 14 2q17 2 34 2.5t34 0.5q13 0 25 -0.5t24 4.5q2 2 4 1t6 -1h42q28 3 51 -16q8 -7 9.5 -19t-0.5 -23q-2 -12 -10 -17t-20 -5q-14 0 -28 -1t-28 -1h-12q-17 -5 -33.5 -4.5t-35.5 2.5q-14 2 -17.5 -1.5t-5.5 -18.5
q-2 -8 -1 -17t1 -17q-2 -13 -2 -24.5v-22.5v-10q3 0 6.5 0.5t5.5 2.5q14 14 32.5 19.5t37.5 12.5q6 1 12.5 0.5t13.5 0.5q9 2 19 2t19 2q15 3 27 -7q5 -11 8.5 -21.5t-1.5 -19.5q-5 -13 -16 -22.5t-28 -10.5q-12 0 -25 -0.5t-26 -3.5q-14 -5 -27 -13t-22 -22q-8 -8 -14 -19
t-14 -17q-5 -3 -5.5 -10t-0.5 -12q0 -14 1 -27.5t3 -27.5q0 -2 -1 -4.5t-1 -4.5q-2 -5 -3 -11.5t1 -11.5q0 -14 2 -27.5t2 -27.5q2 -11 4.5 -13.5t12.5 -0.5q12 0 23.5 1.5t22.5 -1.5q17 -2 34.5 0.5t32.5 -6.5q3 -3 7 0q7 2 14 -0.5t14 -5.5q5 -4 11.5 -8t11.5 -11
q8 -11 5.5 -25.5t-16.5 -20.5q-29 -12 -59 -6q-12 2 -25 4t-25 0q-18 -3 -36 -1t-34 0q-11 -2 -20 -3.5t-19 0.5q-35 5 -40 38v23h-2v114zM2449 80q15 2 30 0.5t29 -1.5h16.5t16.5 1q23 4 45.5 4.5t45.5 0.5q11 0 21 -3t21 -5q11 -5 17.5 -18.5t4.5 -25.5t-8.5 -19
t-22.5 -12q-13 -5 -28 -2.5t-30 2.5q-11 -2 -21 -1t-21 1q-6 0 -11 -2t-12 -4q-6 0 -11 -1t-11 1h-20.5t-18.5 2q-26 3 -50 12q-9 3 -15 11t-4 19q2 20 10 29.5t27 10.5zM2489 -258h-58q-2 0 -4.5 1t-4.5 1q-9 3 -18 4t-18 3h-16t-16 2q-27 8 -54.5 12t-55.5 9
q-21 4 -41.5 7t-38.5 12q-2 2 -7 2q-23 2 -47 9.5t-47 17.5q-16 6 -31.5 9.5t-32.5 6.5q-6 0 -10.5 3t-9.5 5q-29 11 -56 20t-58 12q-5 0 -12 5l-30 5q-9 2 -19 2t-19 2q-22 4 -44 2t-43 -16q-8 -6 -21 -10q-19 -11 -30 -26.5t-17 -35.5q-8 -17 -23 -28t-33 -9
q-11 2 -18.5 14.5t-7.5 23.5q-2 22 7 40.5t16 38.5q2 3 3 6t4 7q12 11 22.5 22t25.5 17l10 5q10 14 23 19.5t30 7.5q16 2 33.5 5.5t34.5 6.5h9q11 -2 22.5 -3t22.5 -3q20 -5 38 -8.5t38 -8.5q11 -2 21.5 -3.5t21.5 -3.5q18 -4 37 -8.5t36 -13.5q19 -9 37 -14t35 -12
q8 -2 15.5 -3.5t13.5 -3.5q23 -5 44 -10.5t44 -12.5l52 -12q19 -5 38 -8t39 -6h13q20 6 41 -10q2 -3 7.5 -3.5t11.5 -0.5q11 0 22 -1t22 -1q25 0 50 -2.5t51 4.5q11 2 21.5 3t22.5 1t24 3.5t24 8t23 8.5t20 4q7 1 25 12.5t39.5 29.5t42.5 40t34 46q14 24 28 59t23 73
t12 74.5t-6 63.5q-15 44 -50 81q-11 9 -20 20l-18 22l-25 30q-6 6 -10 16q-5 12 -9.5 23t-6.5 24q-5 16 -6.5 32t-3.5 33q0 2 2 4.5t2 3.5q3 8 6.5 15.5t3.5 14.5q-2 13 3.5 22.5t13.5 18.5l23 31q13 15 28 22.5t33 11.5q40 10 80 -5q8 -4 12 -8t6 -12q2 -16 -8 -30.5
t-26 -17.5h-14q-34 0 -57 -26q-13 -17 -21 -40q-8 -17 -6 -34.5t10 -31.5q6 -14 13.5 -27t20.5 -24q5 -4 9.5 -9.5t8.5 -9.5q0 -5 2 -7q17 -8 26 -24t22 -30q14 -17 21 -36.5t13 -41.5q7 -27 8 -59.5t-2 -63t-8.5 -56.5t-10.5 -40q-4 -14 -9 -29t-10 -29q-8 -14 -14 -25
l-14 -24q-35 -60 -72.5 -94t-68 -51t-49.5 -20.5t-17 -2.5q-3 -4 -11 -8q-18 -5 -36.5 -10t-36.5 -8q-27 -4 -54 -6t-56 -5v2z" />
    </font>
</defs>
</svg>
